<?xml version="1.0" encoding="utf-8"?><svg xmlns="http://www.w3.org/2000/svg" xmlns:xlink="http://www.w3.org/1999/xlink"><symbol viewBox="0 0 478.448 478.448" id="carousel-next"><path d="M131.659 0l-31.165 32.035 213.31 207.197-213.31 207.141 31.156 32.075 246.304-239.216z"/></symbol><symbol viewBox="0 0 370.814 370.814" id="carousel-prev"><path d="M292.92 24.848L268.781 0 77.895 185.401l190.886 185.413 24.139-24.853-165.282-160.56z"/></symbol><symbol viewBox="0 0 54.757 54.757" id="contacts-address"><path d="M27.557 12c-3.859 0-7 3.141-7 7s3.141 7 7 7 7-3.141 7-7-3.141-7-7-7zm0 12c-2.757 0-5-2.243-5-5s2.243-5 5-5 5 2.243 5 5-2.243 5-5 5z"/><path d="M40.94 5.617A19.052 19.052 0 0 0 27.38 0a19.05 19.05 0 0 0-13.56 5.617c-6.703 6.702-7.536 19.312-1.804 26.952L27.38 54.757 42.721 32.6c5.755-7.671 4.922-20.281-1.781-26.983zm.159 25.814L27.38 51.243 13.639 31.4C8.44 24.468 9.185 13.08 15.235 7.031 18.479 3.787 22.792 2 27.38 2s8.901 1.787 12.146 5.031c6.05 6.049 6.795 17.437 1.573 24.4z"/></symbol><symbol viewBox="0 0 23 18" id="contacts-email"><path d="M3.033 4.177v12.772l6.884-6.386-6.884-6.386zm13.083 6.386L23 16.949V4.177l-6.884 6.386zm-3.099.772l8.85-8.21h-17.7l8.85 8.21zm0 2.102l-1.966-1.823L4.166 18h17.7l-6.884-6.386-1.965 1.823z"/><path d="M19.967 0H0v14.874h1.516V1.563h18.451V0z"/></symbol><symbol viewBox="0 0 21 21" id="contacts-tel"><path d="M19.626 14.94a14.864 14.864 0 0 1-4.701-1.227 1.497 1.497 0 0 0-1.956.683l-1.02 2.024a18.941 18.941 0 0 1-7.37-7.37l2.025-1.02a1.497 1.497 0 0 0 .686-1.956 14.756 14.756 0 0 1-1.23-4.7A1.494 1.494 0 0 0 4.575 0H.75A.75.75 0 0 0 0 .75c0 3.054.666 5.998 1.978 8.755a20.432 20.432 0 0 0 9.52 9.518A20.196 20.196 0 0 0 20.25 21a.75.75 0 0 0 .75-.75v-3.825c0-.776-.591-1.415-1.374-1.485z"/></symbol><symbol viewBox="0 0 139.4 44.7" id="dorohovdesign"><path d="M52.2 19.5V8.1H57c3.6 0 6.1 2.1 6.1 5.7 0 3.5-2.6 5.7-6.1 5.7h-4.8zm7.9-5.7c0-1.8-1.1-3.1-3.1-3.1h-1.9v6.2H57c2 0 3.1-1.4 3.1-3.1m4.1 0c0-3.4 2.6-5.9 6.1-5.9 3.5 0 6.1 2.4 6.1 5.9 0 3.5-2.6 5.9-6.1 5.9-3.5 0-6.1-2.4-6.1-5.9m9.2 0c0-1.9-1.2-3.3-3.1-3.3-1.9 0-3.1 1.4-3.1 3.3 0 1.8 1.2 3.3 3.1 3.3 1.9 0 3.1-1.4 3.1-3.3m11 5.7l-1.9-3.8H81v3.8h-2.9V8.1h5.7c2.5 0 3.9 1.7 3.9 3.8 0 2-1.2 3-2.3 3.4l2.3 4.2h-3.3zm.3-7.6c0-.8-.6-1.2-1.4-1.2H81v2.4h2.3c.8 0 1.4-.4 1.4-1.2m4.2 1.9c0-3.4 2.6-5.9 6.1-5.9 3.5 0 6.1 2.4 6.1 5.9 0 3.5-2.6 5.9-6.1 5.9-3.5 0-6.1-2.4-6.1-5.9m9.1 0c0-1.9-1.2-3.3-3.1-3.3-1.9 0-3.1 1.4-3.1 3.3 0 1.8 1.2 3.3 3.1 3.3 1.9 0 3.1-1.4 3.1-3.3m12.4 5.7v-4.6h-4.7v4.6h-3V8.1h3v4.3h4.7V8.1h2.9v11.4zm4.6-5.7c0-3.4 2.6-5.9 6.1-5.9 3.5 0 6.1 2.4 6.1 5.9 0 3.5-2.6 5.9-6.1 5.9-3.5 0-6.1-2.4-6.1-5.9m9.2 0c0-1.9-1.2-3.3-3.1-3.3-1.9 0-3.1 1.4-3.1 3.3 0 1.8 1.2 3.3 3.1 3.3 1.9 0 3.1-1.4 3.1-3.3m7.3 5.7l-4.3-11.4h3.3l2.8 8.2 2.8-8.2h3.3l-4.2 11.4zm-79.3 17V25.1H57c3.6 0 6.1 2.1 6.1 5.7 0 3.5-2.6 5.7-6.1 5.7h-4.8zm7.9-5.7c0-1.8-1.1-3.1-3.1-3.1h-1.9v6.2H57c2 0 3.1-1.4 3.1-3.1m4.7 5.7V25.1h8.3v2.6h-5.3v1.8H73V32h-5.2v1.9h5.3v2.6zm9.6-1.6l1.5-2.2c.8.8 2.1 1.5 3.6 1.5 1 0 1.6-.4 1.6-.9 0-1.5-6.4-.3-6.4-4.7 0-1.9 1.6-3.6 4.5-3.6 1.8 0 3.4.5 4.6 1.6l-1.6 2.1c-1-.8-2.2-1.2-3.3-1.2-.8 0-1.2.3-1.2.8 0 1.4 6.4.4 6.4 4.6 0 2.3-1.7 3.8-4.7 3.8-2.2 0-3.8-.7-5-1.8m11.5-9.8h2.9v11.3h-2.9zm4.7 5.7c0-3.6 2.8-5.9 6.1-5.9 2.5 0 4.1 1.3 4.8 2.8L99.1 29c-.4-.7-1.3-1.4-2.4-1.4-1.9 0-3.2 1.4-3.2 3.3s1.3 3.3 3.2 3.3c.8 0 1.7-.3 2.1-.7v-.9h-2.6V30h5.5v4.5c-1.2 1.3-2.9 2.2-5 2.2-3.4 0-6.1-2.3-6.1-5.9m20.9 5.7l-4.8-6.6v6.6h-2.9V25.1h3l4.6 6.3v-6.3h2.9v11.4zM17.7 0H0v44.7h17.8c15 0 24.6-8.8 24.6-22.4C42.4 8.7 32.7 0 17.7 0m-.4 35.7h-8V9.5h8c9.3 0 15.7 3.7 15.7 12.7.1 7.5-5.8 13.5-15.7 13.5"/><path d="M19.1 17H17v10.6h2c4 0 6.4-2.4 6.4-5.4 0-3.7-2.6-5.2-6.3-5.2"/></symbol><symbol viewBox="0 0 96.124 96.123" id="fb"><path d="M72.089.02L59.624 0C45.62 0 36.57 9.285 36.57 23.656v10.907H24.037a1.96 1.96 0 0 0-1.96 1.961v15.803a1.96 1.96 0 0 0 1.96 1.96H36.57v39.876a1.96 1.96 0 0 0 1.96 1.96h16.352a1.96 1.96 0 0 0 1.96-1.96V54.287h14.654a1.96 1.96 0 0 0 1.96-1.96l.006-15.803a1.963 1.963 0 0 0-1.961-1.961H56.842v-9.246c0-4.444 1.059-6.7 6.848-6.7l8.397-.003a1.96 1.96 0 0 0 1.959-1.96V1.98A1.96 1.96 0 0 0 72.089.02z"/></symbol><symbol viewBox="0 0 31 27" id="github"><path d="M10.434 14.804c-1.55 0-2.813 1.492-2.813 3.326 0 1.835 1.262 3.326 2.813 3.326 1.55 0 2.813-1.491 2.813-3.326 0-1.834-1.262-3.326-2.813-3.326zm0 5.543c-.93 0-1.688-.994-1.688-2.217s.758-2.217 1.688-2.217c.93 0 1.688.994 1.688 2.217s-.757 2.218-1.688 2.218zm10.688-5.543c-1.55 0-2.813 1.492-2.813 3.326 0 1.835 1.262 3.326 2.813 3.326 1.55 0 2.813-1.491 2.813-3.326 0-1.834-1.262-3.326-2.813-3.326zm0 5.543c-.93 0-1.688-.994-1.688-2.217s.758-2.217 1.688-2.217c.93 0 1.688.994 1.688 2.217s-.757 2.218-1.688 2.218z"/><path d="M21.98 12.033h-.083c-.521.009-1.043.03-1.564.05-.475.02-.95.038-1.424.048l-.824.017c-1.43.03-2.913.06-4.36.053a60.323 60.323 0 0 1-1.981-.051c-.9-.033-1.827-.069-2.749-.046-1.278.03-2.354.433-3.198 1.197-1.4 1.269-1.98 2.952-1.77 5.145.305 3.184 1.608 4.812 4.5 5.618 2.433.678 4.875.74 6.932.71l.686.004c.23.001.462.004.693.004.285 0 .57-.003.856-.012 2.022-.064 3.794-.361 5.418-.911 1.783-.604 2.97-1.755 3.526-3.423.425-1.275.55-2.483.382-3.693-.274-1.968-2.016-4.71-5.04-4.71zm3.59 8.057c-.447 1.34-1.37 2.23-2.823 2.72-1.516.513-3.18.792-5.089.852-.501.015-1.002.011-1.503.008l-.703-.004c-1.983.027-4.325-.03-6.617-.669-2.428-.677-3.428-1.939-3.688-4.654-.174-1.825.288-3.207 1.412-4.226.637-.576 1.465-.88 2.463-.905a45.13 45.13 0 0 1 2.68.046c.672.025 1.345.05 2.018.052a171.87 171.87 0 0 0 4.389-.054l.823-.017c.482-.01.964-.03 1.446-.048.512-.02 1.025-.041 1.537-.05h.061c2.323 0 3.717 2.23 3.929 3.754.145 1.038.035 2.084-.335 3.195z"/><path d="M29.176 8.513c-.335-.454-.488-.72-.44-1.206.1-1.021-.042-2.05-.18-3.044l-.009-.065a14.311 14.311 0 0 0-1.05-3.78L27.314 0l-.83.174C25.33.413 24.135.66 23.047 1.28c-.722.412-1.441.85-2.136 1.274-.465.284-.93.567-1.398.844a.265.265 0 0 1-.09.027c-2.516-.433-5.13-.437-7.769-.013a.445.445 0 0 1-.223-.061c-.29-.171-.573-.355-.856-.539a21.78 21.78 0 0 0-.994-.62C7.972 1.258 6.194.36 4.096.095l-.41-.052-.22.468c-.04.085-.075.159-.104.235A17.517 17.517 0 0 0 2.28 5.783c-.041.61-.083 1.242.008 1.872.03.21.005.251-.078.353a9.316 9.316 0 0 0-1.657 2.976c-.6 1.8-.708 3.795-.342 6.277.304 2.078.82 3.593 1.675 4.913 1.796 2.777 4.568 4.34 8.241 4.649 1.835.154 3.698.177 5.524.177l1.172-.002c.513-.002 1.026-.003 1.537-.002 2.351.001 4.227-.3 5.932-.958 3.035-1.17 5.053-3.35 5.998-6.48.527-1.743.762-3.597.7-5.51-.068-2.132-.68-3.994-1.814-5.535zm.036 10.73c-.853 2.823-2.596 4.708-5.33 5.763-1.57.605-3.302.892-5.52.881-.513 0-1.027 0-1.541.002-2.172.006-4.418.012-6.598-.171-3.351-.281-5.768-1.636-7.389-4.14-.764-1.18-1.23-2.561-1.51-4.476-.345-2.339-.253-4.119.298-5.772a8.249 8.249 0 0 1 1.466-2.629c.294-.361.384-.71.313-1.203-.075-.516-.036-1.088.004-1.696a16.33 16.33 0 0 1 .965-4.544c1.724.3 3.247 1.08 4.642 1.887.32.185.632.388.943.59.297.193.594.385.899.565.304.178.67.255.982.204 2.514-.404 5.001-.4 7.395.012a1.34 1.34 0 0 0 .86-.169c.473-.28.942-.566 1.412-.852a79.811 79.811 0 0 1 2.107-1.257c.91-.518 1.939-.738 3.027-.964.38.964.646 1.996.795 3.071l.009.066c.128.932.26 1.895.174 2.788-.087.884.258 1.434.65 1.965 1.014 1.376 1.537 2.985 1.6 4.918.06 1.796-.16 3.532-.653 5.16z"/></symbol><symbol viewBox="0 0 33 30" id="icon-cake"><path d="M30.143 22.048c.69-.28 1.181-.995 1.181-1.83V15c0-1.079-.819-1.957-1.826-1.957H26.49V8.5a1.33 1.33 0 0 0-.349-.898c.454-.543.788-1.466.176-2.948-.43-1.039-1.176-1.994-1.583-2.471a.641.641 0 0 0-.976 0c-1.934 2.267-2.43 4.174-1.417 5.405a1.328 1.328 0 0 0-.362.912v4.543h-3.223v-6.5c0-.346-.133-.66-.35-.897.455-.543.789-1.467.177-2.948-.43-1.04-1.177-1.995-1.584-2.472a.641.641 0 0 0-.975 0c-1.935 2.267-2.43 4.174-1.418 5.405a1.329 1.329 0 0 0-.362.913v6.5h-3.222V8.5c0-.346-.133-.661-.35-.898.455-.543.788-1.466.176-2.948-.43-1.039-1.176-1.994-1.583-2.471a.641.641 0 0 0-.976 0C6.355 4.45 5.86 6.357 6.872 7.587a1.329 1.329 0 0 0-.362.913v4.543H3.502c-1.007 0-1.826.878-1.826 1.957v5.217c0 .836.492 1.55 1.181 1.83v5.997c0 .228.038.448.105.652h-.45a.648.648 0 0 0-.645.652c0 .36.289.652.644.652h27.977a.648.648 0 0 0 .645-.652.648.648 0 0 0-.645-.652h-.45a2.09 2.09 0 0 0 .105-.652v-5.996zm-5.9-18.396c.775 1.065 1.522 2.512.852 3.175a1.199 1.199 0 0 1-.848.347h-.009a1.174 1.174 0 0 1-.836-.341c-.743-.752.151-2.252.841-3.181zM23.268 8.5c0-.01.01-.022.021-.022h1.891c.01 0 .021.012.021.022v4.543h-1.933V8.5zm-6.76-6.805c.776 1.065 1.523 2.513.852 3.176a1.198 1.198 0 0 1-.848.346h-.008a1.174 1.174 0 0 1-.837-.341c-.742-.751.152-2.252.842-3.181zm.959 4.849v6.5h-1.934v-6.5c0-.01.011-.022.022-.022h1.89c.01 0 .022.011.022.022zM8.774 3.65c.776 1.066 1.522 2.513.852 3.176a1.199 1.199 0 0 1-.848.347h-.009a1.174 1.174 0 0 1-.836-.342c-.743-.75.151-2.251.841-3.18zM7.8 8.501c0-.011.01-.023.021-.023h1.891c.01 0 .021.012.021.022v4.543H7.8V8.5zm21.054 14.086h-2a.648.648 0 0 0-.644.653c0 .36.288.652.644.652h2v4.152c0 .353-.245.651-.536.652H4.683c-.29 0-.537-.3-.537-.652v-.5h2a.648.648 0 0 0 .645-.652.648.648 0 0 0-.644-.652h-2v-4.192c.69-.28 1.181-.995 1.181-1.83v-1.941c0-.433.306-.797.668-.797.363 0 .669.364.669.797v2.677c0 1.16.878 2.102 1.957 2.102 1.08 0 1.958-.943 1.958-2.102v-2.677c0-.433.306-.797.668-.797.363 0 .669.364.669.797v.166c0 1.16.878 2.102 1.957 2.102 1.08 0 1.957-.943 1.957-2.102v-.166c0-.433.307-.797.669-.797.362 0 .668.364.668.797v1.373c0 1.159.879 2.101 1.958 2.101 1.08 0 1.957-.942 1.957-2.101v-1.373c0-.433.306-.797.669-.797.362 0 .668.364.668.797v.166c0 1.16.878 2.102 1.957 2.102 1.08 0 1.958-.943 1.958-2.102v-.166c0-.433.306-.797.668-.797.363 0 .669.364.669.797v1.94c0 .836.492 1.551 1.181 1.83v.54zm1.182-2.37c0 .354-.246.653-.537.653-.291 0-.537-.3-.537-.653v-1.94c0-1.16-.878-2.102-1.957-2.102-1.08 0-1.958.943-1.958 2.101v.167c0 .432-.306.797-.668.797-.363 0-.669-.365-.669-.797v-.167c0-1.158-.878-2.1-1.957-2.1-1.08 0-1.958.942-1.958 2.1v1.374c0 .432-.306.797-.668.797-.362 0-.669-.365-.669-.797v-1.373c0-1.16-.878-2.102-1.957-2.102-1.08 0-1.957.943-1.957 2.101v.167c0 .432-.306.797-.669.797-.362 0-.668-.365-.668-.797v-.167c0-1.158-.878-2.1-1.958-2.1-1.079 0-1.957.942-1.957 2.1v2.678c0 .432-.306.797-.669.797-.362 0-.668-.365-.668-.797v-2.678c0-1.158-.878-2.1-1.957-2.1-1.08 0-1.958.942-1.958 2.1v1.941c0 .354-.246.653-.537.653-.291 0-.537-.3-.537-.653V15c0-.353.246-.652.537-.652h25.996c.291 0 .537.299.537.652v5.217zm2.319 8.479h-.015a.648.648 0 0 0-.644.652c0 .36.288.652.644.652h.015a.648.648 0 0 0 .645-.652.648.648 0 0 0-.645-.652zm-31.695 0H.645a.648.648 0 0 0-.645.652c0 .36.289.652.645.652H.66a.648.648 0 0 0 .644-.652.648.648 0 0 0-.644-.652z"/><path d="M8.014 26.24h-.015a.648.648 0 0 0-.645.652c0 .36.289.652.645.652h.015a.648.648 0 0 0 .644-.652.648.648 0 0 0-.644-.652zm16.987-3.652h-.015a.648.648 0 0 0-.644.652c0 .36.288.652.644.652h.015a.648.648 0 0 0 .645-.652.648.648 0 0 0-.645-.652zm-8.578-.326h-1.225a.648.648 0 0 0-.644.652c0 .36.288.652.644.652h1.225a.648.648 0 0 0 .645-.652.648.648 0 0 0-.645-.652zm-4.641 1.858h-.838a.648.648 0 0 0-.644.653c0 .36.288.652.644.652h.838a.648.648 0 0 0 .645-.652.648.648 0 0 0-.645-.652zm14.373 2.12h-1.482a.648.648 0 0 0-.645.652c0 .36.29.652.645.652h1.482a.648.648 0 0 0 .645-.652.648.648 0 0 0-.645-.652zm-4.672-2.739h-.838a.648.648 0 0 0-.645.652c0 .36.289.652.645.652h.838a.648.648 0 0 0 .644-.652.648.648 0 0 0-.644-.652zm-3.61 2.739h-.838a.648.648 0 0 0-.644.652c0 .36.288.652.644.652h.838a.648.648 0 0 0 .645-.652.648.648 0 0 0-.645-.652z"/></symbol><symbol viewBox="0 0 33 25" id="icon-car"><path d="M23.587 7.02h-1.18c-.306 0-.555.268-.555.598 0 .33.248.599.554.599h1.181c.306 0 .554-.268.554-.599 0-.33-.248-.598-.554-.598zm.146 4.943a1.109 1.109 0 0 0-.902-.476H10.169a1.11 1.11 0 0 0-.902.476 1.306 1.306 0 0 0-.208 1.06l.295 1.277c.128.551.584.936 1.11.936h12.071c.526 0 .983-.385 1.11-.936l.296-1.276c.086-.372.01-.76-.208-1.061zm-.866.77l-.296 1.277a.037.037 0 0 1-.036.03h-12.07a.038.038 0 0 1-.036-.03l-.296-1.277c-.001-.005-.004-.019.007-.034.011-.015.024-.015.03-.015h12.66c.006 0 .019 0 .03.015a.039.039 0 0 1 .007.034z"/><path d="M31.265 8.217c.957 0 1.735-.841 1.735-1.875s-.778-1.875-1.735-1.875h-.59c-.863 0-1.58.684-1.713 1.576l-1.477-4.389C27.152.664 26.273 0 25.299 0H7.701c-.975 0-1.853.665-2.186 1.654l-1.477 4.39c-.133-.893-.85-1.577-1.712-1.577h-.591C.778 4.467 0 5.308 0 6.342s.778 1.875 1.735 1.875h.59c.273 0 .531-.069.761-.19L1.82 9.736a3.325 3.325 0 0 0-.639 1.968v11.868c0 .682.513 1.236 1.144 1.236h1.772c.631 0 1.145-.554 1.145-1.236V20.98h22.516v2.593c0 .682.514 1.236 1.145 1.236h1.771c.631 0 1.145-.554 1.145-1.236V11.705c0-.713-.227-1.412-.64-1.969l-1.265-1.71c.23.122.488.19.76.19h.591zM2.325 7.02h-.59c-.346 0-.628-.304-.628-.678 0-.374.282-.678.628-.678h.59c.347 0 .628.304.628.678 0 .374-.281.678-.627.678zm1.81 16.553a.04.04 0 0 1-.038.04H2.325c-.02 0-.036-.018-.036-.04v-2.966c.354.236.771.373 1.218.373h.627v2.593zm18.899-3.79H9.966v-1.316c0-.022.017-.04.037-.04h12.994c.02 0 .037.018.037.04v1.317zm7.677 3.79c0 .022-.016.04-.037.04h-1.771c-.02 0-.037-.018-.037-.04V20.98h.627c.447 0 .864-.137 1.218-.373v2.966zm-.396-13.09c.256.346.396.78.396 1.222v6.762c0 .726-.546 1.317-1.218 1.317h-5.352v-1.317c0-.681-.513-1.236-1.144-1.236H10.003c-.63 0-1.144.554-1.144 1.236v1.317H3.507c-.672 0-1.218-.59-1.218-1.317v-6.762c0-.442.14-.876.396-1.221l1.678-2.267h15.68c.306 0 .554-.268.554-.599 0-.33-.248-.598-.553-.598H4.888l1.668-4.957c.174-.518.634-.866 1.145-.866h17.598c.51 0 .97.348 1.145.866l1.668 4.957H25.95c-.306 0-.554.268-.554.598 0 .33.248.599.554.599h2.687l1.678 2.267zm-.268-4.141c0-.374.281-.678.627-.678h.591c.346 0 .628.304.628.678 0 .374-.282.678-.628.678h-.59c-.347 0-.628-.304-.628-.678z"/><path d="M5.87 15.954c-.632 0-1.145.555-1.145 1.237s.513 1.236 1.144 1.236c.631 0 1.144-.554 1.144-1.236 0-.682-.513-1.236-1.144-1.236zm21.26 0c-.63 0-1.143.555-1.143 1.237s.513 1.236 1.144 1.236c.63 0 1.144-.554 1.144-1.236 0-.682-.513-1.236-1.144-1.236zM5.574 10.85c-1.12 0-2.03.983-2.03 2.193s.91 2.194 2.03 2.194c1.12 0 2.03-.985 2.03-2.194 0-1.21-.91-2.194-2.03-2.194zm0 3.19c-.509 0-.923-.447-.923-.997s.414-.997.923-.997c.509 0 .923.447.923.997s-.414.997-.923.997zm21.852-3.19c-1.12 0-2.03.983-2.03 2.193s.91 2.194 2.03 2.194c1.12 0 2.03-.985 2.03-2.194 0-1.21-.91-2.194-2.03-2.194zm0 3.19c-.509 0-.923-.447-.923-.997s.414-.997.923-.997c.509 0 .923.447.923.997s-.414.997-.923.997z"/></symbol><symbol viewBox="0 0 33 36" id="icon-family"><path d="M32.989 5.918a7.224 7.224 0 0 0-1.714-3.52l-.005-.006c-.454-.516-1.205-1.226-2.209-1.675l-.023-.01A7.04 7.04 0 0 0 25.948 0c-1.6 0-3.113.52-4.376 1.506l-.009.007c-1.085.855-1.802 2.077-1.89 2.233a7.281 7.281 0 0 0-.843 4.227.699.699 0 0 0 .367.547c.13.069.266.126.406.172a6.6 6.6 0 0 0 3.324 3.872 6.474 6.474 0 0 0-1.776 1.348.703.703 0 0 0 .03.987c.28.265.718.251.98-.03.248-.266.519-.502.811-.707.42 1.2 1.5 2.077 2.73 2.077h.104c1.232 0 2.312-.94 2.706-2.214a5.173 5.173 0 0 1 2.4 4.337v7.26l-6.303 4.125a.702.702 0 0 0-.204.967.69.69 0 0 0 .959.206l6.618-4.332a.7.7 0 0 0 .316-.587v-7.64a6.487 6.487 0 0 0-3.535-5.8 6.652 6.652 0 0 0 3.642-5.542c.195-.179.365-.389.501-.625a.702.702 0 0 0 .083-.476zm-7.183 8.924h-.103c-.83 0-1.53-.811-1.53-1.77a.71.71 0 0 0-.001-.037 6.529 6.529 0 0 0 3.11.058c-.053.945-.72 1.749-1.476 1.749zm.041-2.987a5.18 5.18 0 0 1-4.753-3.137 2.61 2.61 0 0 0 1.853-2.112c.413.054.832.08 1.253.08 1.41 0 2.767-.297 3.983-.868a2.595 2.595 0 0 0 2.74 1.868c-.489 2.375-2.585 4.17-5.076 4.17zm4.82-5.554a1.208 1.208 0 0 1-1.201-1.211V4.7a.7.7 0 0 0-.358-.611.687.687 0 0 0-.703.02c-1.22.772-2.674 1.18-4.205 1.18a8.293 8.293 0 0 1-1.769-.19.688.688 0 0 0-.582.14.701.701 0 0 0-.258.544v.424A1.208 1.208 0 0 1 20.178 7.4a5.87 5.87 0 0 1 .695-2.956l.005-.01c.006-.01.632-1.105 1.537-1.818l.005-.004a5.684 5.684 0 0 1 3.528-1.214 5.676 5.676 0 0 1 2.55.596c.771.345 1.363.904 1.726 1.316l.012.014a5.825 5.825 0 0 1 1.332 2.564 1.2 1.2 0 0 1-.9.413zm-10.72 17.883a5.37 5.37 0 0 0 2.626-4.621 5.365 5.365 0 0 0-.639-2.546c-.9-1.673-2.657-2.812-4.673-2.812a5.31 5.31 0 0 0-4.719 2.9 5.363 5.363 0 0 0-.592 2.458 5.37 5.37 0 0 0 2.625 4.62 5.908 5.908 0 0 0-3.174 5.25v2.55a.7.7 0 0 0 .321.59l5.167 3.318a.688.688 0 0 0 .742 0l5.18-3.3a.7.7 0 0 0 .323-.594l-.012-2.567a5.929 5.929 0 0 0-3.175-5.246zm-2.686-8.582c1.206 0 2.287.552 3.008 1.418-.934.27-1.958.41-3.008.41s-2.074-.14-3.007-.41a3.906 3.906 0 0 1 3.007-1.418zm-3.926 3.96c0-.454.077-.89.217-1.297 1.143.37 2.412.563 3.71.563 1.297 0 2.565-.193 3.709-.563.14.407.216.843.216 1.298 0 2.183-1.76 3.96-3.926 3.96-2.164 0-3.926-1.777-3.926-3.96zm5.156 5.214c-.086.66-.661 1.108-1.181 1.108h-.085c-.55 0-1.163-.47-1.242-1.12a5.264 5.264 0 0 0 2.508.012zm-1.228 9.698l-4.476-2.875v-2.165c0-1.537.77-2.94 2.016-3.768.433.997 1.454 1.616 2.422 1.616h.084c1.046 0 1.97-.687 2.37-1.64a4.54 4.54 0 0 1 2.057 3.795l.01 2.18-4.483 2.857zm-4.977-18.762a.703.703 0 0 0-.223-.962 6.41 6.41 0 0 0-.654-.36 6.556 6.556 0 0 0 2.215-1.864c.247.086.513.133.79.133 1.331 0 2.414-1.092 2.414-2.435V8.487c0-2.208-.836-4.3-2.354-5.888A8.341 8.341 0 0 0 8.75.007a8.375 8.375 0 0 0-6.294 2.486A8.44 8.44 0 0 0 0 8.487v1.737c0 1.343 1.083 2.436 2.415 2.436.276 0 .542-.047.79-.134a6.547 6.547 0 0 0 2.479 1.994 6.489 6.489 0 0 0-3.46 5.76v5.722a.7.7 0 0 0 .315.586l6.286 4.114a.69.69 0 0 0 .958-.206.703.703 0 0 0-.204-.966l-5.97-3.908v-5.341c0-1.618.747-3.102 1.997-4.06.429 1.255 1.53 2.198 2.748 2.198h.104c1.322 0 2.378-1.207 2.75-2.557l.122.075a.69.69 0 0 0 .955-.225zM4.129 5.947a5.043 5.043 0 0 0-.685 2.54v1.737a1.04 1.04 0 0 1-.454.86 1.016 1.016 0 0 1-.575.178 1.035 1.035 0 0 1-1.03-1.038V8.487c0-3.88 3.014-6.993 6.86-7.087a6.85 6.85 0 0 1 .45.004c3.783.151 6.746 3.262 6.746 7.083v1.737c0 .572-.461 1.038-1.029 1.038a1.017 1.017 0 0 1-.634-.222 1.04 1.04 0 0 1-.395-.816V8.487c0-2.467-1.822-4.6-4.238-4.96a.688.688 0 0 0-.533.145.701.701 0 0 0-.259.492c-.038.489-.126.97-.262 1.438H4.726a.692.692 0 0 0-.597.345zM8.458 17.02h-.104c-.783 0-1.552-.959-1.552-1.936 0-.06-.008-.12-.022-.177a6.571 6.571 0 0 0 3.184.021c-.047 1.017-.81 2.092-1.506 2.092zm-.044-3.305a5.138 5.138 0 0 1-4.085-2.009c.314-.411.5-.926.5-1.483V8.487c0-.515.11-1.022.317-1.487h3.446c.29 0 .549-.182.65-.457a8.5 8.5 0 0 0 .39-1.456 3.639 3.639 0 0 1 2.366 3.4v1.737c0 .557.187 1.072.5 1.483a5.138 5.138 0 0 1-4.084 2.009z"/></symbol><symbol viewBox="0 0 33 28" id="icon-quality"><path d="M16.5 7.636a.64.64 0 0 0-.645.637.64.64 0 0 0 .645.636.64.64 0 0 0 .645-.636.64.64 0 0 0-.645-.637z"/><path d="M33 8.267a.646.646 0 0 0-.003-.05v-.01a.626.626 0 0 0-.01-.058l-.005-.025a.618.618 0 0 0-.009-.033c-.002-.009-.006-.017-.009-.026a.627.627 0 0 0-.1-.183l-.018-.022-.007-.009L26.007.215 26.002.21a.6.6 0 0 0-.034-.034l-.013-.012a.634.634 0 0 0-.042-.035l-.009-.006a.665.665 0 0 0-.178-.09c-.006-.003-.013-.004-.02-.006a.666.666 0 0 0-.045-.012l-.016-.003a.663.663 0 0 0-.05-.008l-.016-.001A.634.634 0 0 0 25.528 0H7.472a.66.66 0 0 0-.05.003l-.017.001a.655.655 0 0 0-.049.008l-.017.003-.045.012-.02.005h-.001a.653.653 0 0 0-.177.09L7.087.13a.657.657 0 0 0-.042.034l-.013.012a.628.628 0 0 0-.033.034l-.006.005L.161 7.851l-.007.01a.57.57 0 0 0-.082.12.6.6 0 0 0-.036.084l-.01.027a.641.641 0 0 0-.008.032l-.005.025a.607.607 0 0 0-.01.058v.01a.62.62 0 0 0-.003.05v.021l.003.04.003.024a.6.6 0 0 0 .026.119l.011.03.01.025.015.03.012.023.019.031.012.02a.654.654 0 0 0 .035.046l.001.002 15.855 19.09.004.004a.638.638 0 0 0 .043.046l.006.005a.612.612 0 0 0 .103.08c.002 0 .003.002.005.003a.65.65 0 0 0 .055.03l.015.006a.67.67 0 0 0 .048.02l.012.004c.02.007.04.013.061.017l.013.003a.626.626 0 0 0 .051.008l.017.002a.657.657 0 0 0 .13 0c.005 0 .01 0 .016-.002a.63.63 0 0 0 .052-.008l.012-.003a.625.625 0 0 0 .061-.017l.012-.004a.67.67 0 0 0 .049-.02l.014-.006a.65.65 0 0 0 .056-.03l.005-.003a.683.683 0 0 0 .103-.08l.006-.005a.617.617 0 0 0 .043-.046l.004-.005 15.854-19.09h.001a.63.63 0 0 0 .036-.048l.012-.019.02-.031.01-.024.015-.03.01-.025.011-.03a.592.592 0 0 0 .03-.142.583.583 0 0 0 .002-.04L33 8.273v-.006zm-7.22-6.382l5.145 5.751H23.84l1.941-5.75zm-1.152-.612L22.7 6.988l-4.823-5.715h6.753zm-9.505 0L10.3 6.988 8.37 1.273h6.754zm-7.905.612L9.16 7.636H2.074l5.145-5.75zM2.007 8.91H9.59l5.194 15.385L2.007 8.91zM16.5 25.351L10.949 8.91h2.973a.64.64 0 0 0 .644-.636.64.64 0 0 0-.644-.637H11.43L16.5 1.63l5.07 6.006h-2.553a.64.64 0 0 0-.644.637.64.64 0 0 0 .644.636h3.034L16.5 25.351zm1.716-1.057L23.41 8.91h7.583L18.216 24.294z"/></symbol><symbol viewBox="0 0 451 451" id="icon-search"><path d="M447.05 428l-109.6-109.6c29.4-33.8 47.2-77.9 47.2-126.1C384.65 86.2 298.35 0 192.35 0 86.25 0 .05 86.3.05 192.3s86.3 192.3 192.3 192.3c48.2 0 92.3-17.8 126.1-47.2L428.05 447c2.6 2.6 6.1 4 9.5 4s6.9-1.3 9.5-4c5.2-5.2 5.2-13.8 0-19zM26.95 192.3c0-91.2 74.2-165.3 165.3-165.3 91.2 0 165.3 74.2 165.3 165.3s-74.1 165.4-165.3 165.4c-91.1 0-165.3-74.2-165.3-165.4z"/></symbol><symbol viewBox="0 0 33 33" id="icon-smoke"><path d="M24.806 6.26C19.102 1.7 10.781 2.627 6.221 8.33c-4.56 5.705-3.633 14.026 2.071 18.586.304.233.739.18.978-.12L24.94 7.245a.703.703 0 0 0-.134-.984zm-11.21 12.885h-2.737v-2.701a.168.168 0 0 1 .127-.042h4.81l-2.2 2.742zm3.312-4.15h-5.936a1.47 1.47 0 0 0-1.52 1.407v2.721a1.47 1.47 0 0 0 1.52 1.407h1.498l-3.847 4.832C3.699 21.086 3.173 13.627 7.45 8.703a11.81 11.81 0 0 1 6.94-3.9 11.77 11.77 0 0 1 8.967 2.11l-6.45 8.082zm12.702-.703l.042.014A13.23 13.23 0 0 0 26.91 8.25a.703.703 0 0 0-.562-.26.703.703 0 0 0-.549.26L10.395 27.24a.703.703 0 0 0 .225 1.069c6.507 3.298 14.455.697 17.753-5.81a13.21 13.21 0 0 0 1.237-8.207zm-8.707 2.271l.126-.161h4.333v2.7a.161.161 0 0 1-.12.043H20.89l.014-2.582zm-1.407 1.738v.844h-.703l.703-.844zm3.869 7.96a11.8 11.8 0 0 1-4.755 1.935c-2.205.38-4.473.118-6.534-.752l5.584-6.893h7.568a1.47 1.47 0 0 0 1.52-1.406v-2.736a1.47 1.47 0 0 0-1.52-1.407h-3.101l4.22-5.162c3.71 5.358 2.376 12.71-2.983 16.421z"/><path d="M16.5 0C7.387 0 0 7.387 0 16.5S7.387 33 16.5 33 33 25.613 33 16.5C32.988 7.392 25.608.012 16.5 0zm0 31.593c-8.336 0-15.093-6.757-15.093-15.093S8.164 1.407 16.5 1.407 31.593 8.164 31.593 16.5c-.007 8.333-6.76 15.086-15.093 15.093z"/><path d="M9.576 10.052a.703.703 0 0 0-.918-.297v-.014a3.552 3.552 0 0 0-1.85 4.065 3.003 3.003 0 0 0-.527 2.11c.15.84.609 1.593 1.287 2.11a.703.703 0 0 0 .97-.12.703.703 0 0 0-.14-.984 2.046 2.046 0 0 1-.704-1.196 1.793 1.793 0 0 1 .436-1.336.703.703 0 0 0 .113-.654 2.215 2.215 0 0 1 1.055-2.729.703.703 0 0 0 .278-.955z"/></symbol><symbol viewBox="0 0 97.395 97.395" id="inst"><path d="M12.501 0h72.393c6.875 0 12.5 5.09 12.5 12.5v72.395c0 7.41-5.625 12.5-12.5 12.5H12.501C5.624 97.395 0 92.305 0 84.895V12.5C0 5.09 5.624 0 12.501 0zm58.447 10.821a4.395 4.395 0 0 0-4.383 4.385v10.495a4.396 4.396 0 0 0 4.383 4.385h11.008a4.398 4.398 0 0 0 4.385-4.385V15.206a4.397 4.397 0 0 0-4.385-4.385H70.948zm15.439 30.367h-8.572a28.486 28.486 0 0 1 1.25 8.355c0 16.2-13.556 29.332-30.275 29.332-16.718 0-30.272-13.132-30.272-29.332 0-2.904.438-5.708 1.25-8.355h-8.945v41.141a3.884 3.884 0 0 0 3.872 3.872h67.822a3.883 3.883 0 0 0 3.872-3.872V41.188h-.002zM48.789 29.533c-10.802 0-19.56 8.485-19.56 18.953s8.758 18.953 19.56 18.953c10.803 0 19.562-8.485 19.562-18.953s-8.758-18.953-19.562-18.953z"/></symbol><symbol viewBox="-168 186.7 161.5 128.3" id="logotip"><path d="M-65.6 193.3c-9.7-10-14.7-2.1-13.1 3.9 2.9-2.3 6-4.4 13.1-3.9zm-22 3.1c-30.2 4.8-54.2 15.1-70.9 32v-19.2c.5-5.3 2.9-9.8 8.5-12.8 3.8-2 5.4-1.6 9.5-1.8 13.5-.5 26.9-1 40.4-1.4 5.3.2 9.7 1.1 12.5 3.2zm-46.3 23.5c-12.4 7.2-34.6 23.7-34.1 39.7.3 8.1 5 14.9 12.2 19.2.1 1.3.4 2.4 1.5 4.2 1.5 2.6 3.6 4.6 6.9 5.8 3.3 1.2 5.5.9 8.9.7 12.5-.5 24.9-1.1 37.4-1.6 5.9-.3 8.1-.3 13.8-2.6 5.7-2.3 10.8-5.7 14.5-11.2 2.8-4.1 3.7-7.7 3.9-12.8v-2.1c-.2-4.3-1.4-7.2-1.8-8.1-.1-.1-.3-.6-.6-1.2-2.1-4-5.2-6.4-6.2-7.2-.9-.7-1.8-1.3-2.8-1.8-4.5-2.5-8.9-3-10.4-3.2 12.8-7.4 18.3-21 10.1-33.2-16.8 1.3-30 4.6-39.7 9.8 1.8-.1 4.3-.2 7.5-.3 3.2 0 4.6-.2 7 2.3 2.9 3.1 3.8 8.4-.6 12.4-2.3 1.6-5 2.2-7.8 2.4h-8.2c-2.7 0-4.3.2-6.8-1.3-3.2-1.7-4.6-5.2-4.7-9.9zm-23 26.6l1 29v1.5c-5.2-3.3-8.8-8.2-9.3-14-.6-6.4 2.7-12.3 8.3-16.5zm34.8 3.4h16.9c4.7 0 8.5 3.8 8.5 8.5s-3.8 8.5-8.5 8.5h-16.9c-4.7 0-8.5-3.8-8.5-8.5s3.8-8.5 8.5-8.5z"/><path d="M-31.3 189.5c-12.5-2.7-25.2-3.1-38-2.6 6.9 3.7 10.8 9.7 9.7 19.3 9.9-8 19.5-14.4 28.3-16.7zM-64.3 284.4c10.5 5.7 21.7 8.3 33.9 5.2 4.6-1.2 11.7-3 13.4-8 1.3-3.8-.3-7.7-2.4-9.9-2.7-2.9-4.9-1.8-8.4-1.5-6.1.7-13.5 2.3-19.3.1-4.2-2-6.8-4.6-8.2-7.6-1.2-2.6-2.4-5.5 1.6-5.2 8.8 1.2 17.6 2.4 26.4 3.5 4.1.5 8.2.9 11.9-.2 3-.9 4.9-2.3 6.2-4.2 4.9-7.6 2.1-21.1-2.6-28.3-10.2-15.7-32.2-21.1-48.6-12.2-5.2 2.8-10 6.9-14.2 12.4-6.3 9.1-7.9 19.4-6.4 30.5 2.9 11.7 8.5 20.1 16.7 25.4zm14.9-50.1c6.1-4.1 15.9-2.4 18.1 5.2 1.1 3.8-.3 5.9-4.2 5.6-4.2-.3-8.5-.5-12.7-.8-6.1-1.3-5.5-7-1.2-10zM-150.9 296.5c0-1.4-.9-2.3-2.3-2.3s-2.3.9-2.3 2.3v15.9c0 1.4.9 2.3 2.3 2.3s2.3-.9 2.3-2.3v-15.9zm5.6 11.4c0-1.3 1-2.4 2.3-2.4 1 0 1.8.9 1.8 2.2v4.7c0 1.4.9 2.3 2.3 2.3s2.3-.9 2.3-2.3v-4.9c0-4.4-1.7-6.6-5.2-6.6-1.4 0-2.7.5-3.8 1.4-.4-.7-1.1-1.1-2-1.1-1.4 0-2.3.9-2.3 2.3v8.9c0 1.4.9 2.3 2.3 2.3s2.3-.9 2.3-2.3v-4.5zm11.2-2.1v4.6c0 3.4 1.7 4.6 4.7 4.6.9 0 1.6-.1 2.1-.2 1-.3 1.6-1.1 1.6-2.1 0-1.3-.7-2.4-2-2.4-.2 0-.8.1-1 .1-.4 0-.6-.1-.6-.6-.1-.4-.1-.7-.1-1.5v-2.5h1.3c1.4 0 2.3-.9 2.3-2.3s-.9-2.3-2.3-2.3h-1.3v-1.3c0-1.4-.9-2.3-2.3-2.3s-2.3.9-2.3 2.3v1.3h-.1c-1.4 0-2.3.9-2.3 2.3-.1 1.4.8 2.3 2.3 2.3zm20.2 3.1c1.3 1 1.5 2.1.4 3.7-1.2 1.5-3.2 2.4-5.4 2.4-1.9 0-3.6-.7-5-2-1.4-1.4-2-3-2-5 0-1.9.7-3.6 2-5 1.4-1.4 3-2.1 5-2.1 1.8 0 3.2.5 4.5 1.5 1.2.9 1.9 2.1 1.9 3.5 0 1.3-.9 2.2-2.3 2.2h-6.3c.1 1.4.8 2.4 2.3 2.4.8 0 1.4-.3 1.8-.9.6-1.2 2-1.5 3.1-.7zm-6.9-3.4h3.3c-.3-.7-.9-1.1-1.7-1.1-.7-.1-1.2.3-1.6 1.1zm13.4 6.9V308c0-1.4 1-2.5 2.3-2.5h.6c1.4 0 2.3-.9 2.3-2.2 0-1.4-.9-2.3-2.3-2.3h-.1c-1.2 0-2.3.4-3.2 1.3-.4-.6-1.1-1-1.9-1-1.4 0-2.3.9-2.3 2.3v8.9c0 1.4.9 2.3 2.3 2.3 1.3-.1 2.3-1 2.3-2.4zm10.3-4.5c0-1.3 1-2.4 2.3-2.4 1 0 1.8.9 1.8 2.2v4.7c0 1.4.9 2.3 2.3 2.3s2.3-.9 2.3-2.3v-4.9c0-4.4-1.7-6.6-5.2-6.6-1.4 0-2.7.5-3.8 1.4-.4-.7-1.1-1.1-2-1.1-1.4 0-2.3.9-2.3 2.3v8.9c0 1.4.9 2.3 2.3 2.3s2.3-.9 2.3-2.3v-4.5zm23.7-4.4c0-1.4-.9-2.3-2.3-2.3-1 0-1.7.4-2.1 1.2-1.1-1-2.4-1.5-3.8-1.5-1.9 0-3.3.7-4.4 2.1-1.1 1.4-1.6 3.1-1.6 5s.5 3.6 1.6 5 2.5 2.1 4.4 2.1c1.5 0 2.8-.5 3.9-1.4.4.7 1.1 1.1 2 1.1 1.4 0 2.3-.9 2.3-2.3v-9zm-8.7 2.7c.9-1 2.5-1 3.4 0 .5.5.7 1.1.7 1.8s-.2 1.3-.7 1.8c-.9.9-2.5.9-3.4 0-.5-.5-.7-1.1-.7-1.8s.3-1.3.7-1.8zm11.7-.4v4.6c0 3.4 1.7 4.6 4.7 4.6.9 0 1.6-.1 2.1-.2 1-.3 1.6-1.1 1.6-2.1 0-1.3-.7-2.4-2-2.4-.2 0-.8.1-1 .1-.4 0-.6-.1-.6-.6-.1-.4-.1-.7-.1-1.5v-2.5h1.3c1.4 0 2.3-.9 2.3-2.3s-.9-2.3-2.3-2.3h-1.3v-1.3c0-1.4-.9-2.3-2.3-2.3s-2.3.9-2.3 2.3v1.3h-.1c-1.4 0-2.3.9-2.3 2.3-.1 1.4.8 2.3 2.3 2.3zm13.7-2.3c0-1.4-.9-2.3-2.3-2.3s-2.3.9-2.3 2.3v8.9c0 1.4.9 2.3 2.3 2.3s2.3-.9 2.3-2.3v-8.9zm8-2.5c-2 0-3.7.7-5.1 2.1s-2.1 3-2.1 5c0 1.9.7 3.6 2.1 5s3.1 2 5.1 2 3.7-.7 5.1-2c1.4-1.4 2.1-3 2.1-5 0-1.9-.7-3.6-2.1-5-1.4-1.4-3.1-2.1-5.1-2.1zm-1.7 5.2c.9-1 2.5-1 3.4 0 .5.5.7 1.1.7 1.8s-.2 1.3-.7 1.8c-.9.9-2.5.9-3.4 0-.5-.5-.7-1.1-.7-1.8s.2-1.3.7-1.8zm14.2 1.7c0-1.3 1-2.4 2.3-2.4 1 0 1.8.9 1.8 2.2v4.7c0 1.4.9 2.3 2.3 2.3s2.3-.9 2.3-2.3v-4.9c0-4.4-1.7-6.6-5.2-6.6-1.4 0-2.7.5-3.8 1.4-.4-.7-1.1-1.1-2-1.1-1.4 0-2.3.9-2.3 2.3v8.9c0 1.4.9 2.3 2.3 2.3s2.3-.9 2.3-2.3v-4.5zm23.8-4.4c0-1.4-.9-2.3-2.3-2.3-1 0-1.7.4-2.1 1.2-1.1-1-2.4-1.5-3.8-1.5-1.9 0-3.3.7-4.4 2.1-1.1 1.4-1.6 3.1-1.6 5s.5 3.6 1.6 5 2.5 2.1 4.4 2.1c1.5 0 2.8-.5 3.9-1.4.4.7 1.1 1.1 2 1.1 1.4 0 2.3-.9 2.3-2.3v-9zm-8.7 2.7c.9-1 2.5-1 3.4 0 .5.5.7 1.1.7 1.8s-.2 1.3-.7 1.8c-.9.9-2.5.9-3.4 0-.5-.5-.7-1.1-.7-1.8s.2-1.3.7-1.8zm9.6 6.3c0 1.4.9 2.3 2.3 2.3s2.3-.9 2.3-2.3v-12.6c0-1.4-.9-2.3-2.3-2.3s-2.3.9-2.3 2.3v12.6zm-45.1-14.3c0 1.3-1 2.3-2.3 2.3s-2.3-1-2.3-2.3c0-1.3 1-2.3 2.3-2.3s2.3 1 2.3 2.3z"/><path d="M-80.3 240.9s9.8 5.1 11.2 15.4c1.3 9.5-1.8 15.3-4.6 19.1-3.1-4.4-6.5-10.4-7.4-17.5-1.3-9.7.8-17 .8-17z"/></symbol><symbol viewBox="0 0 54 54" id="map-location"><path d="M26.7 0C16 .4 7.1 8.8 6.1 19.4c-.2 2.1-.1 4.2.3 6.2 0 0 0 .2.1.7.3 1.5.8 2.9 1.5 4.3 2.2 5.1 7.2 13.7 18.4 23 .7.6 1.7.6 2.4 0C40 44.3 45 35.7 47.2 30.6c.6-1.4 1.1-2.8 1.5-4.3.1-.4.1-.7.1-.7.3-1.3.4-2.7.4-4.1C49 9.4 39-.4 26.7 0zm.8 32.3c-5.8 0-10.5-4.7-10.5-10.5s4.7-10.5 10.5-10.5S38 16 38 21.8s-4.7 10.5-10.5 10.5z"/></symbol><symbol viewBox="0 0 371.23 371.23" id="modal-close"><path d="M371.23 21.213L350.018 0 185.615 164.402 21.213 0 0 21.213l164.402 164.402L0 350.018l21.213 21.212 164.402-164.402L350.018 371.23l21.212-21.212-164.402-164.403z"/></symbol><symbol viewBox="0 0 95.481 95.481" id="ok"><path d="M43.041 67.254c-7.402-.772-14.076-2.595-19.79-7.064-.709-.556-1.441-1.092-2.088-1.713-2.501-2.402-2.753-5.153-.774-7.988 1.693-2.426 4.535-3.075 7.489-1.682.572.27 1.117.607 1.639.969 10.649 7.317 25.278 7.519 35.967.329 1.059-.812 2.191-1.474 3.503-1.812 2.551-.655 4.93.282 6.299 2.514 1.564 2.549 1.544 5.037-.383 7.016-2.956 3.034-6.511 5.229-10.461 6.761-3.735 1.448-7.826 2.177-11.875 2.661.611.665.899.992 1.281 1.376 5.498 5.524 11.02 11.025 16.5 16.566 1.867 1.888 2.257 4.229 1.229 6.425-1.124 2.4-3.64 3.979-6.107 3.81-1.563-.108-2.782-.886-3.865-1.977-4.149-4.175-8.376-8.273-12.441-12.527-1.183-1.237-1.752-1.003-2.796.071-4.174 4.297-8.416 8.528-12.683 12.735-1.916 1.889-4.196 2.229-6.418 1.15-2.362-1.145-3.865-3.556-3.749-5.979.08-1.639.886-2.891 2.011-4.014 5.441-5.433 10.867-10.88 16.295-16.322.359-.362.694-.746 1.217-1.305z"/><path d="M47.55 48.329c-13.205-.045-24.033-10.992-23.956-24.218C23.67 10.739 34.505-.037 47.84 0c13.362.036 24.087 10.967 24.02 24.478-.068 13.199-10.971 23.897-24.31 23.851zm12.001-24.186c-.023-6.567-5.253-11.795-11.807-11.801-6.609-.007-11.886 5.316-11.835 11.943.049 6.542 5.324 11.733 11.896 11.709 6.552-.023 11.768-5.285 11.746-11.851z"/></symbol><symbol viewBox="51 -52.2 477.2 477.2" id="owl-next"><path d="M167.6 401.9c-5.3 5.3-5.3 13.8 0 19.1 2.6 2.7 6.1 4 9.5 4s6.9-1.4 9.5-4l225.1-225c5.3-5.3 5.3-13.8 0-19.1L186.6-48.2c-5.3-5.3-13.8-5.3-19.1 0s-5.3 13.8 0 19.1L383 186.4 167.6 401.9z"/></symbol><symbol viewBox="0 0 477.175 477.175" id="owl-prev"><path d="M145.188 238.575l215.5-215.5c5.3-5.3 5.3-13.8 0-19.1s-13.8-5.3-19.1 0l-225.1 225.1c-5.3 5.3-5.3 13.8 0 19.1l225.1 225c2.6 2.6 6.1 4 9.5 4s6.9-1.3 9.5-4c5.3-5.3 5.3-13.8 0-19.1l-215.4-215.5z"/></symbol><symbol viewBox="0 0 56 56" id="plus"><path fill-rule="evenodd" d="M27 35.5V20h2v15.5h-2z"/><path fill-rule="evenodd" d="M35.75 28.75h-15.5v-2h15.5v2zM0 0h15v2H2v13H0V0zm56 0v15h-2V2H41V0h15zm0 56H41v-2h13V41h2v15zM0 56V41h2v13h13v2H0z"/></symbol><symbol viewBox="0 0 500 500" id="ruble"><path d="M382.3 43.6C355.4 16.7 318.2 0 277.4 0H128.9v355.8H74.1v48.4h54.8V500h48.4v-95.8h170v-48.4h-170v-53h100.1c40.9 0 78-16.7 104.9-43.6s43.6-64 43.6-104.9v-5.8c0-40.9-16.7-78-43.6-104.9zm-4.8 110.7c0 27.5-11.3 52.5-29.4 70.7-18.2 18.2-43.2 29.4-70.7 29.4H177.3v-206h100.1c27.5 0 52.5 11.3 70.7 29.4 18.2 18.2 29.4 43.2 29.4 70.7v5.8z"/></symbol><symbol viewBox="0 0 27 27" id="skype"><path d="M19.247 12.655c-.62-.398-1.377-.74-2.25-1.016a30.2 30.2 0 0 0-2.768-.715 45.363 45.363 0 0 1-1.68-.406 4.998 4.998 0 0 1-.883-.338 1.67 1.67 0 0 1-.54-.396.493.493 0 0 1-.112-.34c0-.165.057-.392.497-.677.434-.28 1.043-.424 1.808-.424 1.072 0 1.525.22 1.698.35.358.267.673.656.95 1.178.303.512.575.865.855 1.108.358.314.848.473 1.453.473.659 0 1.244-.242 1.69-.7.44-.45.671-.995.671-1.577 0-.549-.153-1.108-.456-1.662-.292-.536-.748-1.045-1.355-1.513-.596-.458-1.343-.827-2.221-1.097-.867-.265-1.892-.4-3.048-.4-1.447 0-2.732.202-3.82.6-1.14.415-2.033 1.03-2.654 1.828a4.482 4.482 0 0 0-.958 2.814c0 1.098.311 2.04.926 2.8.582.717 1.372 1.29 2.347 1.699.898.377 2.019.709 3.337.986.916.19 1.658.37 2.204.539.45.138.816.334 1.085.582.2.185.29.41.29.728 0 .277-.075.644-.655 1.034-.526.354-1.248.534-2.146.534-.653 0-1.17-.086-1.536-.257-.354-.165-.628-.371-.812-.61a5.57 5.57 0 0 1-.636-1.115c-.232-.538-.529-.96-.885-1.26-.407-.338-.9-.51-1.466-.51-.659 0-1.243.218-1.69.63-.457.426-.7.97-.7 1.573 0 .833.3 1.684.894 2.528a6.348 6.348 0 0 0 2.236 1.957c1.244.652 2.82.983 4.686.983 1.553 0 2.924-.24 4.075-.713 1.194-.489 2.122-1.187 2.759-2.075.643-.9.97-1.925.97-3.049 0-.938-.195-1.755-.578-2.425a4.78 4.78 0 0 0-1.582-1.65zm.223 6.45c-.506.706-1.262 1.268-2.247 1.67-1.006.414-2.225.623-3.62.623-1.671 0-3.06-.284-4.128-.843a5.188 5.188 0 0 1-1.823-1.593c-.453-.645-.682-1.272-.682-1.863 0-.285.104-.515.326-.721.229-.21.517-.314.88-.314.284 0 .515.077.703.233.212.178.401.456.562.831.238.537.5.992.78 1.358.302.391.722.715 1.249.96.525.246 1.212.37 2.041.37 1.141 0 2.088-.248 2.814-.738.777-.522 1.17-1.194 1.17-1.997 0-.641-.222-1.172-.664-1.58-.402-.371-.92-.655-1.54-.845a26.21 26.21 0 0 0-2.312-.566c-1.241-.263-2.29-.571-3.118-.919-.793-.333-1.427-.79-1.886-1.354-.442-.548-.667-1.244-.667-2.07 0-.787.24-1.495.714-2.104.482-.62 1.197-1.107 2.127-1.445.955-.35 2.103-.527 3.408-.527 1.038 0 1.945.117 2.698.348.74.227 1.362.531 1.845.903.477.367.826.752 1.04 1.145.21.382.315.755.315 1.108 0 .282-.111.534-.34.768-.225.231-.5.342-.839.342-.21 0-.498-.03-.67-.181-.178-.155-.385-.43-.602-.797-.347-.652-.774-1.171-1.27-1.543-.526-.395-1.316-.587-2.414-.587-1 0-1.827.207-2.457.615-.684.443-1.03.999-1.03 1.653 0 .41.127.773.38 1.079.228.274.54.51.926.7.359.178.728.319 1.096.419.345.095.926.236 1.738.421.974.207 1.872.438 2.666.688.771.244 1.433.541 1.964.883.51.328.913.746 1.196 1.244.282.493.425 1.117.425 1.852a4.017 4.017 0 0 1-.755 2.374zm6.816-2.936c.17-.833.257-1.684.257-2.534 0-7.02-5.79-12.73-12.905-12.73a13.1 13.1 0 0 0-1.986.15A7.785 7.785 0 0 0 7.732 0C3.47 0 0 3.422 0 7.629c0 1.281.328 2.543.95 3.664a12.747 12.747 0 0 0-.218 2.342c0 7.021 5.79 12.734 12.906 12.734.727 0 1.452-.06 2.16-.179a7.84 7.84 0 0 0 3.47.81C23.53 27 27 23.578 27 19.372c0-1.12-.24-2.196-.715-3.203zm-7.019 9.664a6.63 6.63 0 0 1-3.095-.766l-.184-.097-.205.037c-.7.129-1.422.194-2.146.194-6.464 0-11.723-5.189-11.723-11.566 0-.773.08-1.556.238-2.327l.044-.219-.114-.192a6.392 6.392 0 0 1-.9-3.268c0-3.563 2.94-6.462 6.55-6.462a6.59 6.59 0 0 1 3.484.992l.193.12.224-.038c.653-.113 1.328-.17 2.005-.17 6.464 0 11.722 5.188 11.722 11.564 0 .834-.092 1.669-.272 2.484l-.044.2.092.184a6.31 6.31 0 0 1 .681 2.87c0 3.562-2.939 6.46-6.55 6.46z"/></symbol><symbol viewBox="0 0 31.494 31.494" id="slick-left"><path d="M10.273 5.009a1.112 1.112 0 0 1 1.587 0 1.12 1.12 0 0 1 0 1.571l-8.047 8.047h26.554c.619 0 1.127.492 1.127 1.111s-.508 1.127-1.127 1.127H3.813l8.047 8.032c.429.444.429 1.159 0 1.587a1.112 1.112 0 0 1-1.587 0L.321 16.532a1.12 1.12 0 0 1 0-1.571l9.952-9.952z"/></symbol><symbol viewBox="0 0 32 23" id="slick-right"><path d="M21.221 21.808a1.112 1.112 0 0 1-1.587 0 1.12 1.12 0 0 1 0-1.571l8.047-8.047H1.127A1.118 1.118 0 0 1 0 11.079c0-.619.508-1.127 1.127-1.127h26.554L19.634 1.92c-.429-.444-.429-1.159 0-1.587a1.112 1.112 0 0 1 1.587 0l9.952 9.952a1.12 1.12 0 0 1 0 1.571l-9.952 9.952z"/></symbol><symbol viewBox="0 0 480.56 480.56" id="tel"><path d="M365.354 317.9c-15.7-15.5-35.3-15.5-50.9 0-11.9 11.8-23.8 23.6-35.5 35.6-3.2 3.3-5.9 4-9.8 1.8-7.7-4.2-15.9-7.6-23.3-12.2-34.5-21.7-63.4-49.6-89-81-12.7-15.6-24-32.3-31.9-51.1-1.6-3.8-1.3-6.3 1.8-9.4 11.9-11.5 23.5-23.3 35.2-35.1 16.3-16.4 16.3-35.6-.1-52.1-9.3-9.4-18.6-18.6-27.9-28-9.6-9.6-19.1-19.3-28.8-28.8-15.7-15.3-35.3-15.3-50.9.1-12 11.8-23.5 23.9-35.7 35.5-11.3 10.7-17 23.8-18.2 39.1-1.9 24.9 4.2 48.4 12.8 71.3 17.6 47.4 44.4 89.5 76.9 128.1 43.9 52.2 96.3 93.5 157.6 123.3 27.6 13.4 56.2 23.7 87.3 25.4 21.4 1.2 40-4.2 54.9-20.9 10.2-11.4 21.7-21.8 32.5-32.7 16-16.2 16.1-35.8.2-51.8-19-19.1-38.1-38.1-57.2-57.1zm-19.1-79.7l36.9-6.3c-5.8-33.9-21.8-64.6-46.1-89-25.7-25.7-58.2-41.9-94-46.9l-5.2 37.1c27.7 3.9 52.9 16.4 72.8 36.3 18.8 18.8 31.1 42.6 35.6 68.8zm57.7-160.4c-42.6-42.6-96.5-69.5-156-77.8l-5.2 37.1c51.4 7.2 98 30.5 134.8 67.2 34.9 34.9 57.8 79 66.1 127.5l36.9-6.3c-9.7-56.2-36.2-107.2-76.6-147.7z"/></symbol><symbol viewBox="0 0 30 25" id="tm"><path d="M22.574 5.025l-12.338 7.23c-.698.41-1.028 1.22-.803 1.97l1.334 4.46a.903.903 0 0 0 .947.63c.438-.03.784-.34.842-.753l.347-2.446c.047-.329.213-.635.469-.86L23.553 6.25a.744.744 0 0 0 .095-1.034.838.838 0 0 0-1.074-.191zm-10.016 9.397a2.546 2.546 0 0 0-.84 1.542l-.168 1.187-.968-3.238a.602.602 0 0 1 .281-.69l9.039-5.296-7.344 6.495z"/><path d="M29.512.312a1.433 1.433 0 0 0-1.389-.224L.883 10.087c-.539.198-.886.681-.883 1.231.003.55.355 1.032.897 1.225l6.363 2.26 2.482 7.595c.136.417.48.741.92.867.44.126.914.036 1.27-.24l3.699-2.87a.527.527 0 0 1 .617-.016l6.673 4.61a1.423 1.423 0 0 0 1.309.162 1.33 1.33 0 0 0 .853-.957L29.97 1.58a1.277 1.277 0 0 0-.46-1.268zM28.8 1.349l-4.888 22.374a.174.174 0 0 1-.114.127.188.188 0 0 1-.176-.022l-6.673-4.61a1.757 1.757 0 0 0-.999-.308c-.382 0-.763.122-1.075.364l-3.7 2.87a.186.186 0 0 1-.17.032.177.177 0 0 1-.123-.116l-2.569-7.862a.582.582 0 0 0-.361-.364l-6.637-2.356a.166.166 0 0 1-.12-.165c-.001-.055.02-.129.118-.165l27.24-9.999a.185.185 0 0 1 .185.03.166.166 0 0 1 .062.17z"/><path d="M25.048 12.285a.598.598 0 0 0-.71.435l-.092.398a.57.57 0 0 0 .457.676.632.632 0 0 0 .128.013.592.592 0 0 0 .583-.448l.091-.398a.57.57 0 0 0-.457-.676zm-.598 2.619a.598.598 0 0 0-.71.435l-1.375 6.024a.57.57 0 0 0 .457.677.625.625 0 0 0 .127.013.592.592 0 0 0 .584-.448l1.374-6.024a.57.57 0 0 0-.457-.677z"/></symbol><symbol viewBox="0 0 612 612" id="tw"><path d="M612 116.258a250.714 250.714 0 0 1-72.088 19.772c25.929-15.527 45.777-40.155 55.184-69.411-24.322 14.379-51.169 24.82-79.775 30.48-22.907-24.437-55.49-39.658-91.63-39.658-69.334 0-125.551 56.217-125.551 125.513 0 9.828 1.109 19.427 3.251 28.606-104.326-5.24-196.835-55.223-258.75-131.174-10.823 18.51-16.98 40.078-16.98 63.101 0 43.559 22.181 81.993 55.835 104.479a125.556 125.556 0 0 1-56.867-15.756v1.568c0 60.806 43.291 111.554 100.693 123.104-10.517 2.83-21.607 4.398-33.08 4.398-8.107 0-15.947-.803-23.634-2.333 15.985 49.907 62.336 86.199 117.253 87.194-42.947 33.654-97.099 53.655-155.916 53.655-10.134 0-20.116-.612-29.944-1.721 55.567 35.681 121.536 56.485 192.438 56.485 230.948 0 357.188-191.291 357.188-357.188l-.421-16.253c24.666-17.593 46.005-39.697 62.794-64.861z"/></symbol><symbol viewBox="0 0 33 24" id="vk"><path d="M30.928 17.945c-.704-1.046-1.5-1.98-2.268-2.883-.27-.318-.55-.646-.82-.972-.362-.438-.54-.75-.558-.979-.018-.226.106-.56.392-1.055A94.32 94.32 0 0 1 29 9.844c.392-.64.797-1.304 1.186-1.97l.087-.15c.759-1.301 1.543-2.647 1.963-4.286.12-.47.244-1.166-.056-1.777-.3-.61-.858-.791-1.251-.874a2.556 2.556 0 0 0-.543-.045L25.467.737c-.85-.017-1.44.482-1.762 1.486-.257.801-.561 1.73-.913 2.61-.674 1.702-1.53 3.66-2.77 5.293l-.055.073c-.085.111-.223.294-.293.336-.135-.104-.29-.703-.283-1.017v-.023l-.004-7.046a.982.982 0 0 0-.006-.107c-.11-1.005-.325-2.013-1.608-2.327A.523.523 0 0 0 17.648 0H12.53c-.962 0-1.472.546-1.88 1.139-.118.173-.432.631-.272 1.192.162.567.644.68.803.718.557.13.845.522.935 1.268.176 1.452.198 3.004.068 4.884-.036.504-.104.888-.213 1.207-.03.088-.056.143-.074.175a.717.717 0 0 1-.14-.097c-.391-.332-.686-.849-.972-1.348-1.14-1.997-2.1-4.202-2.933-6.742C7.51 1.355 6.864.774 6.037.759A98.856 98.856 0 0 0 1.583.76c-.67.014-1.14.276-1.397.777-.257.503-.248 1.144.028 1.905 1.972 5.436 3.763 9.391 5.806 12.823 1.439 2.417 2.887 4.094 4.558 5.279 1.755 1.245 3.734 1.855 6.03 1.855.262 0 .528-.008.797-.024 1.417-.08 1.993-.779 2.056-2.49.035-.903.117-1.636.398-2.272.079-.178.168-.298.238-.32.074-.023.206.034.353.152.269.216.5.51.69.767.193.261.387.531.576.793.4.556.815 1.13 1.25 1.68.982 1.241 2.115 1.81 3.368 1.691l4.501.003c.014 0 .029 0 .043-.002.52-.043.968-.4 1.232-.978.317-.697.313-1.58-.013-2.362-.34-.813-.78-1.514-1.169-2.093zm.06 3.67c-.063.136-.14.16-.179.166l-4.5-.002c-.018 0-.036 0-.054.003-.886.091-1.64-.295-2.369-1.216a45.62 45.62 0 0 1-1.209-1.626c-.19-.264-.387-.538-.585-.806-.246-.333-.55-.715-.94-1.029-.583-.47-1.067-.455-1.37-.36-.3.093-.726.36-1.053 1.1-.424.958-.518 1.991-.556 2.967-.022.597-.103.755-.137.795-.045.052-.194.145-.69.173-2.389.139-4.393-.391-6.128-1.622-1.51-1.071-2.832-2.61-4.16-4.84C5.07 11.98 3.323 8.115 1.39 2.787a1.603 1.603 0 0 1-.098-.378.905.905 0 0 1 .315-.05 97.948 97.948 0 0 1 4.41-.003c.214.004.457.083.642.643.87 2.654 1.876 4.964 3.075 7.062.318.557.714 1.25 1.296 1.744.534.452.966.43 1.236.333.269-.098.643-.37.894-1.109.163-.476.26-1.012.31-1.69.138-2.01.114-3.682-.078-5.259-.135-1.13-.605-1.945-1.346-2.362.131-.085.28-.12.485-.12h5.05c.284.079.34.172.36.203.081.135.128.454.157.704l.004 6.98c-.011.67.25 2.154 1.144 2.56a.705.705 0 0 0 .022.01c.813.33 1.351-.382 1.64-.764l.052-.068c1.358-1.788 2.274-3.878 2.988-5.683.373-.932.689-1.896.956-2.727.133-.417.255-.486.544-.478h.012l4.925.005c.115 0 .234.002.327.021.235.05.331.11.363.135.003.047.003.18-.068.458-.357 1.394-1.048 2.579-1.779 3.833l-.087.15c-.38.651-.78 1.306-1.168 1.94a95.45 95.45 0 0 0-1.347 2.248c-.937 1.62-.855 2.695.314 4.108.276.335.56.667.833.989.777.911 1.51 1.772 2.165 2.745.342.512.73 1.127 1.014 1.804.147.355.111.676.035.842z"/><path d="M4.702 4.932a95.126 95.126 0 0 1-.282-.699c-.157-.396-.544-.558-.863-.363-.32.196-.45.675-.293 1.071.095.238.19.475.287.712.114.278.34.439.576.439a.544.544 0 0 0 .29-.086c.318-.2.446-.68.285-1.074zm4.044 8.292C7.689 11.448 6.7 9.52 5.722 7.328c-.172-.387-.564-.527-.876-.313-.311.213-.424.7-.252 1.086 1.005 2.253 2.024 4.24 3.115 6.072.126.213.321.325.519.325a.56.56 0 0 0 .382-.156c.287-.262.347-.763.136-1.118z"/></symbol></svg>