<svg version="1" xmlns="http://www.w3.org/2000/svg" width="350.667" height="350.667" viewBox="0 0 263.000000 263.000000"><path d="M121.1 13.1c-32.6 6.4-52.7 29.2-50.7 57.4.5 7.3.2 10.3-1.4 16-2.5 8.7-2.5 12.1-.2 16.5 2.4 4.4 3.6 11.6 2.1 12.5-.5.4-.9 1.7-.7 2.9.1 1.2-.6 3.9-1.6 6-3.1 6.6-.8 16.5 5.8 24.2 1.7 2.1 2.3 3.7 1.9 5.6-.7 3.6 4 8.4 9.1 9.4 3.3.6 3.7.9 3.2 3-.6 2.3 1.1 7.4 2.5 7.4.4 0 .7 5.3.7 11.8 0 6.4.1 13.7.1 16.2.2 5.9-2.3 9.3-7.6 10.2-5.2.8-15.7 6.1-17.6 8.8-.7 1.1-4.3 2.9-7.9 4-12 3.7-23.7 14.6-32.2 30.1-3.8 6.8-4.1 7.9-2.8 7.9.4 0 1.8-2.1 3.1-4.8 3.5-7.2 10.4-16.4 16.3-21.7 5.6-5.1 15.7-10.5 19.6-10.5 2.1 0 2.2.1.8 2.7-1.5 3.1-11.6 31.9-11.6 33.4 0 .5 26.9.9 66.4.9h66.4l1.2-4.7c3.3-13.4 12.9-29.9 21-36.3 3.7-2.9 4.6-3.2 8.7-2.6 13.7 1.9 26.2 16 32.3 36.7 1.2 3.8 2.5 6.9 3 6.9s.8-.6.5-1.3c-.2-.6-1.3-4.4-2.5-8.2-6.4-20.1-18.7-34-32-36.1-3.1-.5-5.4-1.9-9.4-5.8-5.7-5.6-12.8-9.6-16.9-9.6-1.9 0-3.1-.8-4.1-2.7-3.9-7.7-6-24.2-5-40.5l.7-11.8 3.2-1.9c7.3-4.3 12.1-20.6 7.6-26.2-1.7-2.3-1.8-2.8-.3-10.4 1-5.4 1.5-14.4 1.6-28 0-21.9-1-28.4-6.1-39.3-5.7-12.2-21.8-23.8-38.3-27.6-7-1.7-21.7-1.9-28.9-.5zM162 51.5c.8.9 1.5 7.1 2.1 16.2.7 13.5 1.1 15.6 4.3 24 7 18 7.8 24.3 5.1 39.8-3.9 22.4-19 46.2-34.3 53.9-11.7 5.9-26 7.3-33.9 3.4-3.8-1.9-4.8-2-7.6-1-1.9.7-3.5.8-4 .3-1.2-1.2.1-12.1 1.4-12.1.5 0 .9.8.9 1.7.1 2.1 2.7 5.9 3.6 5.1.3-.4-.2-1.7-1-3-.9-1.4-1.3-2.8-.9-3.1 1.3-1.3 2.3-.7 2.3 1.5 0 1.3.5 3 1.1 3.8.7 1.1.9.7.7-1.9-.2-2.1.2-3.6 1-3.8.8-.3 1.2.7 1.2 3.1 0 2 .4 3.6.9 3.6s.8-1.4.7-3.1c0-2 .5-3.4 1.3-3.7 1-.3 1.2 0 .8 1.2-.4.9-.3 2.6.2 3.8.7 1.9.9 1.6 1.5-2 .3-2.3 1.1-4.2 1.6-4.2.6 0 1-.4 1-.8 0-.5-3.7-.7-8.2-.5-10 .5-13.3-.8-13.3-5.2v-2.9l9.5.2c10.3.3 23.9-1.7 30.7-4.5 4.4-1.9 5.2-3 3.1-5.1-1.7-1.7-3.1-1.5-2.4.3.8 2.2-3.6 4.1-14.3 5.9-11.8 2-20 2-27.6.1-8.1-2.1-11-4.4-10.8-8.5.1-2.3-.6-4.1-2.4-5.9-6.3-6.6-9-17.5-5.7-23.6.9-1.7 1.6-4.2 1.5-5.7-.2-3.5 2.5-4.3 12.3-3.5 11.7.9 12.5 1.8 8.2 9.7-7.2 13.1-7.6 15.8-3.1 20 2 1.9 3.5 2.2 11.5 2.2 7.6 0 9.7-.3 11.9-1.9 1.4-1.1 2.8-2.8 3-3.8.3-1.5-.2-1.4-2.9.8-2.9 2.5-3.9 2.7-12 2.7-8.4 0-9-.1-10.9-2.6-2.9-3.7-2.7-5 1.8-12.3 5.2-8.4 7.4-19 4.6-22.1-1-1.1-3.5-2.5-5.5-3.1-3.7-1.1-14.3-.8-17 .4-1.1.5-2.1-.2-3.3-2.2-1.5-2.5-1.5-3-.2-3.5 1.9-.7 15 .9 19.3 2.5 3.8 1.3 5.1.6 3.6-1.9-3.2-5.1-16-9.6-21.5-7.5-3.4 1.3-3.4 1-1.3-4.8.9-2.4 2-9.4 2.5-15.6.4-6.2 1.5-12.9 2.4-14.9 1.4-3.3 1.8-3.6 4.7-3.1 1.8.2 6.2 1.7 9.8 3.2 12 5.1 23.5 4.3 51-3.5 15-4.2 19.2-4.7 21-2.5zM87.9 106c1.1 0 1.1.3.1 1.6-1.1 1.2-1.1 1.8.2 3.1 1.9 1.8 3.8 1 3.8-1.8 0-1.7.3-1.8 2-.9 1.3.7 2 2.1 2 4.2 0 2.8-.2 3-2.7 2.4-1.6-.4-6.7-.9-11.5-1.3-8.3-.5-8.8-.7-8.8-2.9 0-1.2.5-2.6 1.2-3 1.9-1.2 8.1-2.3 10.3-1.8 1.1.2 2.6.4 3.4.4zm103.9 14.2c.7.7 1.2 3.3 1.2 5.8 0 8.6-7.2 19-13.2 19-1 0-1.8.4-1.8 1 0 .5.5 1 1 1 .6 0 1 6.6 1 17.7 0 19.3 1.1 26.4 5.6 36.4l2.6 5.7-3.3 4.9c-18.5 27.3-46.8 40.9-72.7 34.8-12-2.8-20.6-8.7-24.6-16.7-3.8-7.7-3.5-11.7 1.4-16.8 2.3-2.4 4.2-5.5 4.6-7.4l.6-3.4 3.4 2.3c5.5 3.8 10 4.8 18.3 4.3 13.3-.9 25.2-6.6 35.5-17.2 15.2-15.6 24.8-35.6 28.4-58.9 1.4-9.8 1.8-11 4.1-12.2 3.2-1.8 6.3-1.9 7.9-.3z"/><path d="M97.2 81.2c.8 2.3 5.6 4 8.5 3.1 4.5-1.5 3.9-3.1-1-2.6-2.7.3-4.7.1-5.1-.6-1-1.5-2.9-1.4-2.4.1zM121.5 96.5c-4.4 1.6-7.5 4.7-7.5 7.5 0 1.7.3 1.7 4.8.2 3.4-1.1 8.9-1.6 19.9-1.6 8.3-.1 15.5-.5 15.9-.9 1.4-1.4-1.1-2.7-9-4.7-9.2-2.3-18.4-2.5-24.1-.5zM122.5 106.7c-5.4 2.8-6.5 4.3-6.5 8.8 0 2.9.6 4.7 2 6 2.6 2.4 3.9 1.1 1.5-1.5-1-1.1-1.6-2.2-1.4-2.5 1.1-1.1 15.6-2.6 21.9-2.3 4.5.2 7.1-.1 7.4-.8.8-2.1-1.9-5.9-5.4-7.6-4.5-2.3-15.3-2.3-19.5-.1zm8.9 1.5c-.8 2.7.4 4 2.7 2.7 1.4-.7 1.8-1.6 1.4-2.9-.6-1.8-.3-1.8 2.7-.8 3.1 1 8.2 4.8 7.5 5.5-.2.2-5.1.5-10.8.8-5.7.2-11.9.8-13.6 1.4-7.4 2.2-3.4-4.7 4.1-7.2 5.5-1.8 6.8-1.7 6 .5zM122 139.2c0 .7 1.5 2.3 3.3 3.5 1.7 1.3 4.3 3.2 5.7 4.2 3 2.4 8 3.8 8 2.3 0-.6-1.5-1.5-3.3-2.1-1.8-.6-5.4-2.9-8.1-5.1-5.3-4.4-5.6-4.6-5.6-2.8zM112.1 176.8c-.6 1.2-1.1 3.1-1 4.4 0 1.7.4 1.4 1.5-1.6 1.5-4.3 1.2-6-.5-2.8zM115 179.1c-.6 1.1-.9 2.5-.7 3.2.2.7 1.1-.3 2.1-2.1.9-1.7 1.2-3.2.7-3.2-.6 0-1.5.9-2.1 2.1zM185.3 126.2c-1.1 1.3-2.6 3.3-3.2 4.5-1.4 2.7-1.5 7.6-.1 6.8.6-.3 1-1.7 1-3 0-3.1 2-4.3 2.7-1.6.3 1.2.9 2.1 1.4 2.1 1.2 0 1.1-1.7-.2-4.1-.8-1.6-.7-2.5.5-3.8.9-1 1.6-2.1 1.6-2.4 0-1.4-1.7-.6-3.7 1.5z"/></svg>