<svg width="33" height="33" viewBox="0 0 33 33" xmlns="http://www.w3.org/2000/svg"><path d="M25.626 20.94C24.003 20.7915 22.4205 20.379 20.925 19.713C20.19 19.3815 19.3305 19.6815 18.969 20.3955L17.949 22.4205C14.856 20.706 12.291 18.1395 10.5795 15.0495L12.603 14.031C13.317 13.6725 13.6185 12.813 13.2885 12.075C12.621 10.581 12.207 9 12.06 7.374C11.988 6.591 11.3505 6 10.575 6H6.75C6.336 6 6 6.336 6 6.75C6 9.804 6.666 12.7485 7.9785 15.5055C9.972 19.6485 13.3515 23.028 17.4975 25.023C20.253 26.3355 23.1975 27 26.25 27C26.664 27 27 26.664 27 26.25V22.425C27 21.6495 26.409 21.0105 25.626 20.94Z M1 1.0004V0.500401H0.5V1.0004H1ZM32 1H32.5V0.5L32 0.5L32 1ZM32 32V32.5H32.5V32H32ZM1 32L0.5 32L0.5 32.5L1 32.5L1 32ZM1.5 8.4404V1.0004H0.5V8.4404H1.5ZM1 1.5004H8.44V0.500401H1V1.5004ZM24.56 1.5L32 1.5L32 0.5L24.56 0.5L24.56 1.5ZM31.5 1V8.44H32.5V1H31.5ZM31.5 24.56V32H32.5V24.56H31.5ZM32 31.5H24.56V32.5H32V31.5ZM8.44 31.5L1 31.5L1 32.5L8.44 32.5L8.44 31.5ZM1.5 32L1.5 24.56L0.500001 24.56L0.5 32L1.5 32Z"/></svg>