<svg width="21" height="21" viewBox="0 0 21 21" version="1.1" xmlns="http://www.w3.org/2000/svg" xmlns:xlink="http://www.w3.org/1999/xlink">
<path id="path0_fill" d="M 19.626 14.94C 18.003 14.7915 16.4205 14.379 14.925 13.713C 14.19 13.3815 13.3305 13.6815 12.969 14.3955L 11.949 16.4205C 8.856 14.706 6.291 12.1395 4.5795 9.0495L 6.603 8.031C 7.317 7.6725 7.6185 6.813 7.2885 6.075C 6.621 4.581 6.207 3 6.06 1.374C 5.988 0.591 5.3505 0 4.575 0L 0.75 0C 0.336 0 0 0.336 0 0.75C 0 3.804 0.666 6.7485 1.9785 9.5055C 3.972 13.6485 7.3515 17.028 11.4975 19.023C 14.253 20.3355 17.1975 21 20.25 21C 20.664 21 21 20.664 21 20.25L 21 16.425C 21 15.6495 20.409 15.0105 19.626 14.94Z"/>
</svg>