<svg width="33" height="33" viewBox="0 0 33 33" xmlns="http://www.w3.org/2000/svg"><path d="M8.03296 12.1768V24.9486L14.9175 18.5627L8.03296 12.1768Z M21.1155 18.5627L28 24.9486V12.1768L21.1155 18.5627Z M18.0165 19.3346L26.8666 11.1255H9.16632L18.0165 19.3346Z M18.0165 21.4373L16.0509 19.614L9.16632 26H26.8666L19.9821 19.614L18.0165 21.4373Z M24.967 8H5V22.8745H6.51648V9.56276H24.967V8Z M1 1.0004V0.500401H0.5V1.0004H1ZM32 1H32.5V0.5L32 0.5L32 1ZM32 32V32.5H32.5V32H32ZM1 32L0.5 32L0.5 32.5L1 32.5L1 32ZM1.5 8.4404V1.0004H0.5V8.4404H1.5ZM1 1.5004H8.44V0.500401H1V1.5004ZM24.56 1.5L32 1.5L32 0.5L24.56 0.5L24.56 1.5ZM31.5 1V8.44H32.5V1H31.5ZM31.5 24.56V32H32.5V24.56H31.5ZM32 31.5H24.56V32.5H32V31.5ZM8.44 31.5L1 31.5L1 32.5L8.44 32.5L8.44 31.5ZM1.5 32L1.5 24.56L0.500001 24.56L0.5 32L1.5 32Z"/></svg>