<svg width="681" height="254" viewBox="0 0 681 254" version="1.1" xmlns="http://www.w3.org/2000/svg" xmlns:xlink="http://www.w3.org/1999/xlink">
<g id="Canvas" fill="none">
<g id="Vector">
<path fill-rule="evenodd" clip-rule="evenodd" d="M 197.297 203.16L 99.1088 101.63C 93.0638 95.1755 69.207 72.4615 66.2716 67.025L 151.823 67.1988L 241.329 158.576C 248.593 154.902 276.903 122.656 281.704 122.035C 294.341 122.01 309.765 121.241 322.079 122.035C 326.084 122.283 337.104 129.259 341.831 131.816C 345.09 133.578 346.06 132.809 346.483 136.532C 319.467 136.607 327.751 133.405 311.556 149.764L 245.21 216.689C 242.05 219.941 220.955 242.109 218.517 242.804L 158.291 242.432L 177.595 222.796C 182.396 218.129 194.188 207.778 197.297 203.16ZM 0 253.429L 85.8247 253.479L 86.1729 103.591L 182.695 203.16C 180.481 206.561 173.316 212.842 169.983 216.044C 165.579 220.264 161.873 223.913 157.519 228.158L 132.493 253.479L 223.492 253.479L 277.475 198.965C 300.536 177.021 285.411 181.464 325.412 181.117L 325.785 149.813L 328.074 146.959L 352.005 147.008L 352.105 181.34L 401.087 181.29L 401.062 85.8417L 351.956 85.8417L 351.931 125.163C 347.503 123.649 336.657 117.07 331.258 114.315C 330.089 113.719 328.92 113.198 327.776 112.528C 324.84 110.815 326.83 112.701 325.462 110.343L 325.363 85.8417L 276.231 85.8417L 276.256 111.212L 242.2 144.278C 239.115 142.242 234.637 136.93 231.751 133.901L 200.556 101.977C 192.098 94.7287 170.654 70.7486 158.912 59.5778L 158.788 12.3127L 0 12.6603L 0 253.429Z" fill="#153763"/>
<path fill-rule="evenodd" clip-rule="evenodd" d="M 464.299 116.574L 490.494 116.698L 490.569 181.365L 537.859 181.191L 537.81 85.7424L 416.71 85.792L 416.784 181.365L 464.025 181.092L 464.299 116.574Z" fill="#153763"/>
<path fill-rule="evenodd" clip-rule="evenodd" d="M 681 86.5864L 681 85.8417L 624.828 85.7175C 619.181 90.7072 608.236 103.318 602.663 106.421L 602.663 85.8417L 553.557 85.8417L 553.532 181.29L 602.514 181.315L 602.638 156.541C 605.922 158.402 611.047 165.304 613.833 168.58C 617.49 172.9 620.674 177.219 624.828 181.241L 680.229 181.365C 678.313 177.964 672.666 171.361 670.054 168.555L 637.914 129.607L 681 86.5864Z" fill="#153763"/>
<path fill-rule="evenodd" clip-rule="evenodd" d="M 382.007 230.566C 394.072 229.722 398.152 231.336 398.226 237.641C 398.326 245.709 387.579 245.088 381.907 244.815L 382.007 230.566ZM 381.858 208.994C 389.047 208.746 398.55 208.2 398.102 215.423C 397.679 222.3 389.52 221.282 381.833 221.307L 381.858 208.994ZM 401.286 225.055C 404.197 221.58 406.262 219.321 406.286 213.686C 406.162 197.649 389.818 200.008 373.424 200.008L 373.449 253.479C 378.673 253.479 386.111 253.479 391.41 253.479C 398.425 253.28 401.336 253.255 404.595 249.581C 407.605 246.081 408.849 240.918 408.177 235.556C 407.306 228.704 404.247 228.307 401.286 225.055Z" fill="#153763"/>
<path fill-rule="evenodd" clip-rule="evenodd" d="M 459.945 44.9316C 472.011 44.0628 476.091 45.7012 476.165 52.1058C 476.29 60.3225 465.518 59.7019 459.871 59.4289L 459.945 44.9316ZM 459.796 22.9623C 466.986 22.7141 476.489 22.1679 476.041 29.491C 475.618 36.5162 467.458 35.4736 459.771 35.4985L 459.796 22.9623ZM 479.225 39.3214C 482.136 35.7715 484.2 33.4629 484.225 27.7285C 484.101 11.3943 467.757 13.8022 451.363 13.8022L 451.388 68.2414C 456.612 68.2414 464.05 68.2414 469.349 68.2414C 476.364 68.0428 479.275 68.0428 482.534 64.2944C 485.544 60.7197 486.787 55.457 486.116 49.9957C 485.27 43.0202 482.21 42.623 479.225 39.3214Z" fill="#153763"/>
<path fill-rule="evenodd" clip-rule="evenodd" d="M 285.485 22.8133L 296.431 22.8133L 296.506 59.131L 282.898 59.1806C 282.575 55.7797 284.44 47.0416 284.764 42.7967C 285.286 36.1935 285.162 29.3917 285.485 22.8133ZM 274.813 57.7905L 271.504 59.553L 271.33 80.1818L 277.077 80.2562L 277.574 68.5889L 300.958 68.291L 301.207 80.157L 306.929 80.2811L 307.352 60.4218L 304.118 58.6841L 303.993 13.8022L 278.271 13.8022C 278.072 27.8526 278.943 45.5274 274.813 57.7905Z" fill="#153763"/>
<path fill-rule="evenodd" clip-rule="evenodd" d="M 542.536 253.479C 544.278 251.195 559.029 220.711 559.477 219.47L 559.477 253.479L 567.214 253.479L 567.289 200.032L 559.253 199.958L 542.163 234.141L 541.914 200.008L 534.401 199.933L 534.302 253.479L 542.536 253.479Z" fill="#153763"/>
<path fill-rule="evenodd" clip-rule="evenodd" d="M 339.866 253.479C 342.528 248.365 353.448 226.619 356.857 219.917L 356.857 253.479L 364.643 253.479L 364.618 200.008L 356.434 199.958L 339.542 234.588L 339.219 200.008L 331.607 199.933L 331.681 253.479L 339.866 253.479Z" fill="#153763"/>
<path fill-rule="evenodd" clip-rule="evenodd" d="M 681 68.1421L 681 13.8022L 672.965 13.8022C 671.472 19.0649 660.875 45.1798 658.288 48.4566L 658.288 13.8022L 651.123 13.8022L 651.098 68.2662C 659.83 68.3159 658.089 69.3337 661.895 60.6204L 673.487 33.6614L 673.487 68.1669L 681 68.1421Z" fill="#153763"/>
<path fill-rule="evenodd" clip-rule="evenodd" d="M 620.251 209.118L 642.516 209.068L 642.242 199.933L 611.718 199.958L 611.743 253.479L 643.386 253.479L 643.361 244.964L 620.102 244.567L 620.052 230.765C 626.445 228.828 634.306 231.063 641.098 229.797L 640.899 221.108L 620.127 220.934L 620.251 209.118Z" fill="#153763"/>
<path fill-rule="evenodd" clip-rule="evenodd" d="M 423.999 209.168L 446.487 208.919L 446.313 199.908L 415.541 200.008L 415.565 253.876L 447.209 253.876L 447.184 244.939L 424.023 244.84L 423.999 230.219L 444.895 230.07L 444.547 221.083L 423.949 220.81L 423.999 209.168Z" fill="#153763"/>
<path fill-rule="evenodd" clip-rule="evenodd" d="M 297.799 230.417L 314.268 230.367L 314.342 253.479L 322.751 253.479L 322.527 199.983L 314.392 200.008L 313.87 221.257L 297.799 221.058L 297.7 200.032L 289.366 200.057L 289.465 253.479L 297.725 253.479L 297.799 230.417Z" fill="#153763"/>
<path fill-rule="evenodd" clip-rule="evenodd" d="M 180.58 23.3346C 196.526 14.4228 199.063 53.8434 188.018 58.8827C 172.371 66.0569 169.46 29.5655 180.58 23.3346ZM 179.535 13.5291C 159.559 19.5614 161.375 76.3837 188.914 68.5889C 209.537 62.7553 207.248 5.13858 179.535 13.5291Z" fill="#153763"/>
<path fill-rule="evenodd" clip-rule="evenodd" d="M 489.648 68.2414L 517.983 68.291L 517.784 59.0813L 497.286 59.0565L 497.211 44.3358L 515.545 44.2365L 515.993 35.1509L 497.31 35.002L 497.261 22.9126L 517.386 22.7637C 517.361 19.9337 517.361 16.6321 517.361 13.8022C 512.485 13.8022 495.693 13.8022 489.698 13.8022L 489.648 68.2414Z" fill="#153763"/>
<path fill-rule="evenodd" clip-rule="evenodd" d="M 524.525 68.291L 531.914 68.291L 532.013 44.7082L 546.79 44.4103L 546.84 68.1917L 554.377 68.1917L 554.377 13.8022L 546.84 13.8022L 546.815 35.0516L 532.038 35.0764L 531.964 13.8022L 524.575 13.8022L 524.525 68.291Z" fill="#153763"/>
<path fill-rule="evenodd" clip-rule="evenodd" d="M 584.453 35.0516L 569.751 35.0764L 569.851 13.8022L 562.438 13.8022L 562.214 68.2662L 569.677 68.291L 569.702 44.7082L 584.453 44.4103L 584.553 68.2166L 592.066 68.1669L 592.041 13.8022L 584.453 13.8022L 584.453 35.0516Z" fill="#153763"/>
<path fill-rule="evenodd" clip-rule="evenodd" d="M 462.906 209.615C 470.195 207.852 477.931 208.994 477.658 217.186C 477.384 224.583 470.17 225.725 462.856 223.864L 462.906 209.615ZM 463.055 233.644C 473.479 233.446 489.599 234.314 486.116 212.047C 483.728 196.855 469.946 199.859 454.522 199.933L 454.597 254L 462.931 253.504L 463.055 233.644Z" fill="#153763"/>
<path fill-rule="evenodd" clip-rule="evenodd" d="M 327.228 27.3313L 331.905 46.6444L 322.079 46.57L 327.228 27.3313ZM 308.646 68.2414L 316.706 68.2414L 319.641 56.1272L 334.343 55.9287L 337.901 68.2414L 345.886 68.291L 331.184 13.8022L 322.974 13.8022L 308.646 68.2414Z" fill="#153763"/>
<path fill-rule="evenodd" clip-rule="evenodd" d="M 518.555 251.741C 523.083 248.539 525.844 243.35 526.59 237.293L 518.53 234.439C 517.56 239.85 515.968 243.028 511.639 245.187C 496.116 249.73 494.126 210.508 508.206 208.522C 515.122 207.554 516.018 212.37 518.729 217.236L 526.342 214.555C 524.6 196.185 500.644 192.933 493.032 211.774C 489.051 221.654 489.076 240.198 496.788 248.663C 502.982 255.34 514.998 254.273 518.555 251.741Z" fill="#153763"/>
<path fill-rule="evenodd" clip-rule="evenodd" d="M 607.862 43.9634C 618.037 43.9634 623.435 45.2295 623.261 52.3788C 623.137 57.6663 619.206 59.9005 607.862 59.9005L 607.862 43.9634ZM 600.101 68.2662C 617.365 68.5145 628.833 71.4437 630.923 56.0279C 634.207 32.0479 615.077 36.0446 607.862 35.3247L 607.862 13.8022L 600.151 13.8022L 600.101 68.2662Z" fill="#153763"/>
<path fill-rule="evenodd" clip-rule="evenodd" d="M 357.951 38.378L 357.752 22.9126C 365.165 22.7885 370.912 22.5403 370.912 30.6578C 370.887 39.0235 365.115 38.4773 357.951 38.378ZM 350.14 68.1918L 357.677 68.1421L 357.727 47.7864C 364.394 47.6374 370.19 48.2332 374.245 44.1869C 378.002 40.4633 379.146 33.7608 378.524 27.1079C 377.007 11.6673 365.464 13.8022 350.165 13.8022L 350.14 68.1918Z" fill="#153763"/>
<path fill-rule="evenodd" clip-rule="evenodd" d="M 239.438 51.5845L 232.274 48.407C 228.269 68.7627 211.303 60.9431 215.308 33.5374C 216.079 28.1754 218.144 23.5333 222.522 22.4162C 228.99 20.8026 230.284 27.0831 232.547 30.8315L 239.339 28.7463C 236.229 5.93299 206.899 4.39389 207.123 42.052C 207.322 75.4404 235.607 78.1959 239.438 51.5845Z" fill="#153763"/>
<path fill-rule="evenodd" clip-rule="evenodd" d="M 414.595 51.212L 408.127 48.6303L 406.461 52.7263C 402.679 64.2199 389.395 63.5993 390.166 38.5269C 390.465 28.92 392.38 20.9018 402.928 22.8629C 405.291 25.2709 406.336 26.5121 407.157 31.0052L 414.471 28.8952C 412.033 5.41162 382.007 5.1882 382.405 42.0271C 382.753 76.4333 412.108 77.0043 414.595 51.212Z" fill="#153763"/>
<path fill-rule="evenodd" clip-rule="evenodd" d="M 246.603 60.2977L 246.528 68.3655C 258.668 70.5252 259.34 62.0602 264.091 46.3962C 266.778 37.4844 271.156 22.8133 273.893 13.8022L 266.405 13.8022C 264.763 19.6358 260.832 34.2821 259.141 40.5874C 258.967 40.3888 258.718 39.8426 258.643 39.9916L 250.21 13.8022L 242.026 13.8022C 245.036 22.8878 249.265 33.1153 252.2 41.4562C 254.787 48.8538 256.031 54.9853 253.369 58.4607C 251.777 60.5708 249.936 60.1984 246.603 60.2977Z" fill="#153763"/>
<path fill-rule="evenodd" clip-rule="evenodd" d="M 681 208.969L 681 200.057L 647.715 199.933L 647.889 209.068L 659.979 209.168L 660.029 253.479L 668.462 253.479L 668.537 209.168L 681 208.969Z" fill="#153763"/>
<path fill-rule="evenodd" clip-rule="evenodd" d="M 573.309 209.068L 585.424 209.217L 585.473 253.479L 593.882 253.479L 593.981 209.168L 606.171 208.895L 605.997 199.933L 573.135 199.958L 573.309 209.068Z" fill="#153763"/>
<path fill-rule="evenodd" clip-rule="evenodd" d="M 417.456 22.8133L 428.228 22.9126L 428.452 68.1173L 435.964 68.2414L 436.039 22.9374L 446.935 22.8381L 447.01 13.8022L 417.456 13.7029L 417.456 22.8133Z" fill="#153763"/>
<path fill-rule="evenodd" clip-rule="evenodd" d="M 635.575 68.0925L 643.063 68.2662L 643.138 13.976L 635.625 13.827L 635.575 68.0925Z" fill="#153763"/>
<path fill-rule="evenodd" clip-rule="evenodd" d="M 674.233 0L 657.715 0C 658.337 7.47205 659.357 9.90481 666.074 11.3694C 672.119 9.80551 673.761 6.85145 674.233 0Z" fill="#153763"/>
</g>
</g>
</svg>

