<svg width="900" height="79" viewBox="0 0 900 79" version="1.1" xmlns="http://www.w3.org/2000/svg" xmlns:xlink="http://www.w3.org/1999/xlink">
<g id="Canvas" fill="none">
<g id="Vector">
<path d="M 0 14L 0 0L 4 0C 20.8 0 25 11 25 21L 25 37.5C 34.6 23.1 59 13.8333 70 11L 70 0L 87 0L 87 66L 70 66L 70 22.5C 48.8 28.5 31.1667 48.3333 25 57.5L 25 66L 8.5 66L 8.5 22.5C 8.5 15.3 2.83333 13.8333 0 14Z" fill="#64A90D"/>
<path d="M 108 14L 108 0L 112 0C 128.8 0 133 11 133 21L 133 37.5L 178 37.5L 178 0L 195 0L 195 66L 178 66L 178 50.5L 133 50.5L 133 66L 116.5 66L 116.5 22.5C 116.5 15.3 110.833 13.8333 108 14Z" fill="#64A90D"/>
<path d="M 627 14L 627 0L 631 0C 647.8 0 652 11 652 21L 652 37.5C 661.6 23.1 686 13.8333 697 11L 697 0L 714 0L 714 66L 697 66L 697 22.5C 675.8 28.5 658.167 48.3333 652 57.5L 652 66L 635.5 66L 635.5 22.5C 635.5 15.3 629.833 13.8333 627 14Z" fill="#64A90D"/>
<path d="M 813 14L 813 0L 817 0C 833.8 0 838 11 838 21L 838 37.5C 847.6 23.1 872 13.8333 883 11L 883 0L 900 0L 900 66L 883 66L 883 22.5C 861.8 28.5 844.167 48.3333 838 57.5L 838 66L 821.5 66L 821.5 22.5C 821.5 15.3 815.833 13.8333 813 14Z" fill="#64A90D"/>
<path fill-rule="evenodd" clip-rule="evenodd" d="M 282.194 69.8264C 303.086 64.7874 318 51.5443 318 36C 318 16.1177 293.6 0 263.5 0C 233.4 0 209 16.1177 209 36C 209 55.4642 232.385 71.3206 261.609 71.9788L 266.5 78.5L 290 78.5L 282.194 69.8264ZM 257 14C 240.468 16.1719 228 25.8885 228 37.5466C 228 49.2047 240.468 58.9213 257 61.0931L 257 14ZM 272 60.9518C 288.032 58.5266 300 48.9684 300 37.5466C 300 26.1248 288.032 16.5665 272 14.1413L 272 60.9518Z" fill="#64A90D"/>
<path fill-rule="evenodd" clip-rule="evenodd" d="M 384 73C 412.719 73 436 56.6584 436 36.5C 436 16.3416 412.719 0 384 0C 355.281 0 332 16.3416 332 36.5C 332 56.6584 355.281 73 384 73ZM 384 60C 402.778 60 418 49.4787 418 36.5C 418 23.5213 402.778 13 384 13C 365.222 13 350 23.5213 350 36.5C 350 49.4787 365.222 60 384 60Z" fill="#64A90D"/>
<path d="M 615.396 53C 606.812 64.8677 589.259 73 569 73C 540.281 73 517 56.6584 517 36.5C 517 16.3416 540.281 0 569 0C 589.259 0 606.812 8.13232 615.396 20L 593.209 20C 587.044 15.6786 578.474 13 569 13C 550.222 13 535 23.5213 535 36.5C 535 49.4787 550.222 60 569 60C 578.474 60 587.044 57.3214 593.209 53L 615.396 53Z" fill="#64A90D"/>
<path d="M 733.5 0L 733.5 12.5L 758 12.5L 758 66L 775 66L 775 12.5L 795.5 12.5L 795.5 0L 733.5 0Z" fill="#64A90D"/>
<path d="M 456 29L 497 29L 497 41L 456 41L 456 29Z" fill="#64A90D"/>
</g>
</g>
</svg>

