<svg width="190" height="30" viewBox="0 0 190 30" xmlns="http://www.w3.org/2000/svg"><path fill-rule="evenodd" clip-rule="evenodd" d="M2.27633 0H26.5597C27.8151 0 28.836 1.07002 28.836 2.36821V27.6318C28.836 28.9378 27.8075 30 26.5597 30H2.27633C1.02095 30 0 28.93 0 27.6318V2.36821C0 1.06216 1.02851 0 2.27633 0Z" fill="#F24F00"/><path d="M6.07546 26.7857C5.0193 26.7857 5.93464 26.7779 5.64517 26.7779C4.27608 26.7934 3.64238 26.8012 2.78181 25.7676C2.08553 24.9283 2.109 24.3766 2.15594 23.3352C2.16376 23.2109 2.17159 23.0554 2.17159 22.6047V11.3518L3.15733 10.6136L13.0305 3.24635L14.5013 2.14282L15.9721 3.25412L26.6119 11.2741V20.3743L21.7144 16.683V13.6832L14.4856 8.23554L7.07686 13.7687V21.9643H26.6998V26.7857H6.07546Z" fill="white"/><path d="M39.015 17.2037C38.0149 17.2037 36.8351 17.2374 36.1241 17.9379C35.4053 18.6553 35.374 19.8959 35.374 20.858C35.374 21.7948 35.4053 23.0523 36.1241 23.7781C36.8273 24.4786 38.0306 24.5123 39.015 24.5123C39.9995 24.5123 41.2106 24.4786 41.906 23.7781C42.6248 23.0523 42.6561 21.7948 42.6561 20.858C42.6561 19.8959 42.6248 18.6553 41.906 17.9379C41.195 17.2374 40.0151 17.2037 39.015 17.2037ZM37.5696 20.858C37.5696 20.2672 37.5774 19.879 37.8118 19.4992C38.0931 19.0266 38.4603 18.976 39.015 18.976C39.5698 18.976 39.9214 19.0266 40.2183 19.4992C40.4761 19.8959 40.4605 20.2335 40.4605 20.858C40.4605 21.4319 40.4605 21.8285 40.2183 22.2168C39.9214 22.6894 39.5776 22.74 39.015 22.74C38.4759 22.74 38.1009 22.6894 37.8118 22.2168C37.593 21.8623 37.5696 21.4234 37.5696 20.858ZM47.4691 19.0013C47.5941 19.0013 47.7035 19.0013 47.7972 19.1026C47.891 19.2038 47.891 19.3473 47.891 19.4739V24.4364H50.024V18.3177C50.024 18.0814 49.9771 17.8198 49.7662 17.5919C49.4927 17.2965 49.1802 17.2881 48.7895 17.2881H44.6484C44.3359 17.2881 43.9609 17.2712 43.6562 17.5919C43.4452 17.8198 43.3983 18.0814 43.3983 18.3177V24.4364H45.5314V19.4739C45.5314 19.3389 45.5313 19.2123 45.6251 19.1026C45.7267 18.9929 45.8439 19.0013 45.9533 19.0013H47.4691ZM56.8451 24.4364V22.6978H53.6103C53.4775 22.6978 53.3056 22.7063 53.204 22.605C53.1572 22.5628 53.1103 22.4784 53.1103 22.3434V21.5669H56.72V20.014H53.1103V19.4739C53.1103 19.3811 53.1103 19.2207 53.2118 19.1279C53.29 19.0604 53.4228 19.0266 53.54 19.0266H56.8138V17.2881H52.0555C51.8211 17.2881 51.5007 17.3303 51.2507 17.575C51.0085 17.8198 50.9694 18.1152 50.9694 18.3937V23.297C50.9694 23.6346 50.9694 23.9215 51.2741 24.1916C51.532 24.4195 51.8054 24.4364 52.0789 24.4364H56.8451ZM59.6422 24.4364V22.3771H62.4316C62.791 22.3771 63.2832 22.2758 63.5958 21.9889C64.1505 21.4656 64.1896 20.2419 64.1896 19.744C64.1896 18.7144 64.0099 18.1489 63.6973 17.7944C63.3301 17.364 62.8379 17.2965 62.3066 17.2965H58.6499C58.1967 17.2965 57.9155 17.4906 57.767 17.6679C57.5404 17.9464 57.5014 18.3515 57.5014 18.6468V24.4448H59.6344L59.6422 24.4364ZM59.6422 20.5964V19.4824C59.6422 19.3304 59.6735 19.0604 60.0094 19.0604H61.1893C61.4315 19.0604 61.6815 19.0604 61.8612 19.2207C62.0331 19.3726 62.0487 19.6005 62.0487 19.7862C62.0487 20.0816 61.9862 20.2841 61.8768 20.4107C61.6971 20.6133 61.4315 20.5964 61.1658 20.5964H59.6344H59.6422ZM63.5254 24.4364H65.7757L66.2992 22.9679H68.6822L69.2057 24.4364H71.456L69.0104 18.073C68.6979 17.2796 68.1275 17.2037 67.4946 17.2037C66.4711 17.2037 66.1898 17.5413 65.9788 18.073L63.5333 24.4364H63.5254ZM67.4008 19.5246C67.4165 19.4739 67.4556 19.3726 67.4868 19.3726C67.5181 19.3726 67.5493 19.4739 67.5727 19.5246L68.1666 21.3306H66.807L67.4008 19.5246ZM74.7141 24.4364V19.0688H77.0737V17.2881H70.2136V19.0688H72.5733V24.4364H74.7141ZM80.9023 17.2037C79.9022 17.2037 78.7224 17.2374 78.0113 17.9379C77.2925 18.6553 77.2613 19.8959 77.2613 20.858C77.2613 21.7948 77.2925 23.0523 78.0113 23.7781C78.7145 24.4786 79.9178 24.5123 80.9023 24.5123C81.8868 24.5123 83.0978 24.4786 83.7932 23.7781C84.512 23.0523 84.5433 21.7948 84.5433 20.858C84.5433 19.8959 84.512 18.6553 83.7932 17.9379C83.0822 17.2374 81.9024 17.2037 80.9023 17.2037ZM79.4568 20.858C79.4568 20.2672 79.4646 19.879 79.699 19.4992C79.9803 19.0266 80.3475 18.976 80.9023 18.976C81.457 18.976 81.8086 19.0266 82.1055 19.4992C82.3634 19.8959 82.3477 20.2335 82.3477 20.858C82.3477 21.4319 82.3477 21.8285 82.1055 22.2168C81.8164 22.6894 81.4648 22.74 80.9023 22.74C80.3632 22.74 79.9881 22.6894 79.699 22.2168C79.4803 21.8623 79.4568 21.4234 79.4568 20.858ZM87.4342 24.4279V22.3687H90.2236C90.583 22.3687 91.0752 22.2674 91.3878 21.9805C91.9425 21.4572 91.9816 20.2335 91.9816 19.7355C91.9816 18.7059 91.8019 18.1405 91.4893 17.786C91.1221 17.3556 90.6299 17.2881 90.0986 17.2881H86.4419C85.9888 17.2881 85.7075 17.4822 85.559 17.6594C85.3324 17.9379 85.2934 18.343 85.2934 18.6384V24.4364H87.4264L87.4342 24.4279ZM87.4342 20.5879V19.4739C87.4342 19.322 87.4655 19.0519 87.8014 19.0519H88.9813C89.2235 19.0519 89.4735 19.0519 89.6532 19.2123C89.8251 19.3642 89.8407 19.5921 89.8407 19.7777C89.8407 20.0731 89.7782 20.2757 89.6688 20.4023C89.4891 20.6048 89.2235 20.5879 88.9578 20.5879H87.4264H87.4342ZM101.615 17.2796H99.4824V19.8115H97.0837V17.2796H94.9506V24.4279H97.0837V21.5922H99.4824V24.4279H101.615V17.2796ZM108.429 24.4279V22.6894H105.194C105.061 22.6894 104.889 22.6978 104.788 22.5965C104.741 22.5543 104.694 22.4699 104.694 22.3349V21.5585H108.304V20.0056H104.694V19.4655C104.694 19.3726 104.694 19.2123 104.795 19.1195C104.874 19.0519 105.006 19.0182 105.124 19.0182H108.397V17.2796H103.639C103.405 17.2796 103.084 17.3218 102.834 17.5666C102.592 17.8113 102.553 18.1067 102.553 18.3852V23.2886C102.553 23.6262 102.553 23.9131 102.858 24.1832C103.116 24.411 103.389 24.4279 103.662 24.4279H108.429ZM109.179 22.6472H108.53V24.4279H116.453V22.6472H115.789L114.015 18.0054C113.882 17.651 113.609 17.1952 112.492 17.1952C111.374 17.1952 111.101 17.6425 110.968 18.0054L109.179 22.6472ZM112.382 19.5414C112.398 19.4824 112.429 19.3558 112.484 19.3558C112.538 19.3558 112.57 19.4739 112.585 19.5414L113.648 22.6472H111.32L112.374 19.5414H112.382ZM116.828 23.2886C116.828 23.5671 116.914 23.8793 117.07 24.0819C117.367 24.4364 117.758 24.4195 118.055 24.4195H121.516C122.086 24.4195 122.579 24.4195 123 23.9215C123.407 23.4489 123.399 22.8835 123.399 22.4193C123.399 21.9805 123.391 21.5247 123.04 21.1534C122.868 20.9762 122.594 20.8158 122.258 20.782V20.7398C122.532 20.723 122.727 20.6048 122.922 20.3854C123.227 20.0309 123.251 19.6596 123.251 19.2714C123.251 18.7988 123.204 18.1489 122.836 17.7438C122.461 17.3134 121.875 17.2712 121.399 17.2712H117.805C117.523 17.2712 117.219 17.4231 117.055 17.6257C116.914 17.8029 116.828 18.0814 116.828 18.419V23.2886ZM118.961 20.0225V19.4402C118.961 19.3304 118.953 19.2292 119.047 19.1363C119.133 19.0519 119.219 19.0519 119.32 19.0519H120.539C120.68 19.0519 120.891 19.0519 121.024 19.1954C121.078 19.2629 121.125 19.3726 121.125 19.4992C121.125 19.5921 121.11 19.7355 121.063 19.8284C120.946 20.0225 120.735 20.0225 120.555 20.0225H118.961ZM120.625 21.5754C120.805 21.5754 121.032 21.5754 121.172 21.7779C121.227 21.8623 121.258 21.972 121.258 22.0817C121.258 22.2252 121.203 22.4193 121.133 22.5037C121.094 22.5543 120.969 22.6472 120.563 22.6472H119.43C119.328 22.6472 119.117 22.6472 119.031 22.5459C118.984 22.4868 118.953 22.3602 118.953 22.1155V21.5754H120.625ZM131.353 24.4279V18.9675C131.353 18.3852 131.298 17.2037 129.782 17.2037C129.392 17.2037 128.775 17.2459 128.353 18.0392L126.532 21.4825C126.446 21.6429 126.399 21.7357 126.345 21.7357C126.227 21.7357 126.227 21.5838 126.227 21.491C126.227 21.4488 126.227 21.4234 126.227 21.3812L126.321 17.2881H124.149V22.7991C124.149 23.6599 124.321 24.5123 125.626 24.5123C126.54 24.5123 126.876 24.1241 127.056 23.7865L128.939 20.3179C129.071 20.0816 129.126 19.9718 129.181 19.9718C129.275 19.9718 129.275 20.1069 129.275 20.2335L129.181 24.4279H131.353ZM131.634 24.4279H134.22L135.83 21.7104C136.057 21.3306 136.221 21.0183 136.221 20.7314C136.221 20.4782 136.057 20.1913 135.916 19.9381L134.431 17.2796H131.97L133.861 20.2166C133.978 20.3938 134.119 20.5711 134.119 20.7483C134.119 20.858 134.064 21.0268 133.798 21.3981L131.634 24.4195V24.4279ZM143.354 24.4279L141.19 21.4066C140.924 21.0268 140.87 20.8664 140.87 20.7567C140.87 20.5795 141.01 20.4023 141.127 20.225L143.057 17.2881H140.596L139.072 19.9465C138.893 20.2672 138.768 20.5204 138.768 20.7398C138.768 21.0268 138.932 21.339 139.158 21.7188L140.768 24.4364H143.362L143.354 24.4279ZM136.424 24.4279H138.557V17.2796H136.424V24.4279ZM150.839 24.4279V18.9675C150.839 18.3852 150.785 17.2037 149.269 17.2037C148.878 17.2037 148.261 17.2459 147.839 18.0392L146.019 21.4825C145.933 21.6429 145.886 21.7357 145.831 21.7357C145.714 21.7357 145.714 21.5838 145.714 21.491C145.714 21.4488 145.714 21.4234 145.714 21.3812L145.808 17.2881H143.635V22.7991C143.635 23.6599 143.807 24.5123 145.112 24.5123C146.026 24.5123 146.362 24.1241 146.542 23.7865L148.425 20.3179C148.558 20.0816 148.613 19.9718 148.667 19.9718C148.761 19.9718 148.761 20.1069 148.761 20.2335L148.667 24.4279H150.839ZM158.668 20.0984C158.723 19.9043 158.762 19.8453 158.801 19.8453C158.84 19.8453 158.887 19.8875 158.887 20.0816L158.809 24.4279H160.965V18.4527C160.965 18.0139 160.84 17.1952 159.34 17.1952C158.77 17.1952 157.981 17.2628 157.637 18.3768L156.567 21.8454C156.551 21.9129 156.442 22.1746 156.371 22.1746C156.293 22.1746 156.191 21.9214 156.176 21.8454L155.105 18.3768C154.762 17.2628 153.973 17.1952 153.41 17.1952C153.066 17.1952 151.785 17.1952 151.785 18.4527V24.4279H153.933L153.871 20.0816C153.871 20.014 153.863 19.8453 153.949 19.8453C153.996 19.8453 154.043 19.9634 154.082 20.0984L155.105 23.5502C155.254 24.0735 155.449 24.5123 156.379 24.5123C157.317 24.5123 157.504 24.0735 157.653 23.5502L158.676 20.0984H158.668ZM165.364 17.1952C164.364 17.1952 163.184 17.229 162.473 17.9295C161.755 18.6468 161.723 19.8875 161.723 20.8496C161.723 21.7863 161.755 23.0438 162.473 23.7696C163.177 24.4701 164.38 24.5039 165.364 24.5039C166.349 24.5039 167.56 24.4701 168.255 23.7696C168.974 23.0438 169.005 21.7863 169.005 20.8496C169.005 19.8875 168.974 18.6468 168.255 17.9295C167.544 17.229 166.364 17.1952 165.364 17.1952ZM163.919 20.8496C163.919 20.2588 163.927 19.8706 164.161 19.4908C164.442 19.0182 164.81 18.9675 165.364 18.9675C165.919 18.9675 166.271 19.0182 166.568 19.4908C166.825 19.8875 166.81 20.225 166.81 20.8496C166.81 21.4234 166.81 21.8201 166.568 22.2083C166.278 22.6809 165.927 22.7316 165.364 22.7316C164.825 22.7316 164.45 22.6809 164.161 22.2083C163.942 21.8539 163.919 21.415 163.919 20.8496ZM175.365 24.4195V22.6387H173.529C172.818 22.6387 172.209 22.6387 171.92 22.0733C171.865 21.9551 171.756 21.6851 171.756 20.8918C171.756 20.5457 171.787 19.9634 171.974 19.6089C172.271 19.0351 172.787 19.0435 173.49 19.0435H175.256V17.2628H172.459C171.709 17.2628 170.748 17.3556 170.146 18.1911C169.677 18.8325 169.568 19.7355 169.568 20.9255C169.568 22.2927 169.779 23.0016 170.17 23.5333C170.709 24.2591 171.396 24.411 172.428 24.411H175.358L175.365 24.4195ZM180.053 24.4195V19.0519H182.413V17.2712H175.553V19.0519H177.913V24.4195H180.053ZM190 24.4195V18.9591C190 18.3768 189.945 17.1952 188.429 17.1952C188.039 17.1952 187.421 17.2374 186.999 18.0308L185.179 21.4741C185.093 21.6344 185.046 21.7273 184.991 21.7273C184.874 21.7273 184.874 21.5754 184.874 21.4825C184.874 21.4403 184.874 21.415 184.874 21.3728L184.968 17.2796H182.796V22.7906C182.796 23.6515 182.968 24.5039 184.273 24.5039C185.187 24.5039 185.523 24.1157 185.702 23.7781L187.585 20.3094C187.718 20.0731 187.773 19.9634 187.828 19.9634C187.921 19.9634 187.921 20.0984 187.921 20.225L187.828 24.4195H190Z M38.7285 7.0374V7.67866H37.7198C36.8049 7.67866 36.1325 7.72085 35.7337 8.42117C35.6321 8.61523 35.374 9.15524 35.374 10.5137C35.374 11.1381 35.4288 12.0831 35.6712 12.5978C36.0308 13.3825 36.7658 13.4331 37.4617 13.4331H38.7363V14.1756H40.8709V13.4331H42.1454C42.8335 13.4331 43.5764 13.3825 43.936 12.5978C44.1706 12.0915 44.2332 11.1381 44.2332 10.5137C44.2332 9.15524 43.9751 8.61523 43.8735 8.42117C43.4747 7.72085 42.8023 7.67866 41.8874 7.67866H40.8787V7.0374H38.7285ZM38.7285 11.6612H38.5408C37.9935 11.6612 37.7589 11.4756 37.6416 11.1634C37.5869 11.0031 37.5634 10.8174 37.5634 10.5727C37.5634 10.2015 37.5947 10.0074 37.6494 9.88087C37.7823 9.5518 38.1029 9.45899 38.4626 9.45899H38.7285V11.6612ZM40.8631 11.6612V9.45899H41.129C41.4886 9.45899 41.8092 9.5518 41.9421 9.88087C41.9969 10.0159 42.0282 10.2099 42.0282 10.5727C42.0282 10.8174 42.0125 11.0031 41.95 11.1634C41.8327 11.484 41.5981 11.6612 41.0508 11.6612H40.8631ZM50.856 14.184V12.4459H47.6189C47.486 12.4459 47.3139 12.4543 47.2123 12.3531C47.1654 12.3109 47.1185 12.2265 47.1185 12.0915V11.3153H50.7309V9.76274H47.1185V9.22274C47.1185 9.12992 47.1185 8.96961 47.2201 8.8768C47.2983 8.80929 47.4312 8.77554 47.5485 8.77554H50.8248V7.0374H46.0629C45.8283 7.0374 45.5077 7.07959 45.2575 7.32428C45.0151 7.56897 44.976 7.86429 44.976 8.14273V13.045C44.976 13.3825 44.976 13.6693 45.2809 13.9393C45.539 14.1672 45.8127 14.184 46.0863 14.184H50.856ZM51.6067 12.4121H50.9577V14.184H58.8863V12.4121H58.2217L56.4468 7.77147C56.3138 7.41709 56.0402 6.96146 54.922 6.96146C53.8039 6.96146 53.5302 7.40866 53.3973 7.77147L51.6067 12.4121ZM54.8125 9.30711C54.8282 9.24805 54.8595 9.12149 54.9142 9.12149C54.9689 9.12149 55.0002 9.23961 55.0158 9.30711L56.0714 12.4121H53.7413L54.7969 9.30711H54.8125ZM65.1339 14.184V12.4459H61.8967C61.7638 12.4459 61.5918 12.4543 61.4901 12.3531C61.4432 12.3109 61.3963 12.2265 61.3963 12.0915V11.3153H65.0088V9.76274H61.3963V9.22274C61.3963 9.12992 61.3963 8.96961 61.498 8.8768C61.5762 8.80929 61.7091 8.77554 61.8264 8.77554H65.1026V7.0374H60.3407C60.1061 7.0374 59.7856 7.07959 59.5353 7.32428C59.2929 7.56897 59.2539 7.86429 59.2539 8.14273V13.045C59.2539 13.3825 59.2538 13.6693 59.5588 13.9393C59.8168 14.1672 60.0905 14.184 60.3642 14.184H65.1339ZM67.9332 14.184V12.1253H70.7246C71.0843 12.1253 71.5769 12.024 71.8897 11.7371C72.4448 11.214 72.4839 9.99056 72.4839 9.49274C72.4839 8.46335 72.3041 7.89804 71.9913 7.54366C71.6238 7.11334 71.1312 7.04584 70.5995 7.04584H66.9401C66.4866 7.04584 66.2051 7.2399 66.0566 7.41709C65.8298 7.69553 65.7907 8.10054 65.7907 8.39585V14.1925H67.9253L67.9332 14.184ZM67.9332 10.3449V9.23117C67.9332 9.0793 67.9644 8.80929 68.3007 8.80929H69.4814C69.7238 8.80929 69.974 8.80929 70.1538 8.96961C70.3258 9.12149 70.3415 9.3493 70.3415 9.53493C70.3415 9.83024 70.2789 10.0327 70.1694 10.1593C69.9896 10.3618 69.7238 10.3449 69.4579 10.3449H67.9253H67.9332ZM71.8193 14.184H74.0712L74.5951 12.7159H76.98L77.5039 14.184H79.7558L77.3084 7.8221C76.9956 7.02896 76.4248 6.95303 75.7915 6.95303C74.7671 6.95303 74.4856 7.29053 74.2745 7.8221L71.8271 14.184H71.8193ZM75.6976 9.27336C75.7133 9.22274 75.7524 9.12149 75.7836 9.12149C75.8149 9.12149 75.8462 9.22274 75.8696 9.27336L76.4639 11.079H75.1034L75.6976 9.27336ZM81.8279 14.184L83.423 9.45899C83.4386 9.4168 83.4777 9.2818 83.5246 9.2818C83.5716 9.2818 83.6107 9.4168 83.6263 9.45899L85.2214 14.184H87.489L84.9477 7.69553C84.6741 7.00365 83.9234 6.96146 83.5168 6.96146C83.1102 6.96146 82.3596 7.00365 82.0859 7.69553L79.5447 14.184H81.8279ZM87.6923 7.0374V12.834C87.6923 13.1631 87.7314 13.5343 87.9659 13.8381C88.1067 14.0153 88.3569 14.184 88.6384 14.184H92.7435C93.455 14.184 93.8851 13.779 94.0649 13.4922C94.3308 13.0618 94.3777 12.4375 94.3777 11.9396C94.3777 11.4334 94.3386 10.9271 94.1196 10.4377C93.7756 9.66993 93.1813 9.6193 92.7982 9.6193H89.8269V7.0374H87.6923ZM91.3751 11.2309C91.6331 11.2309 91.7895 11.2224 91.9225 11.2731C92.157 11.3743 92.1805 11.5937 92.1805 11.7709C92.1805 12.1084 92.0632 12.2771 91.9615 12.3446C91.8364 12.429 91.6722 12.4037 91.336 12.4037H90.2257C90.1006 12.4037 89.952 12.4037 89.8738 12.294C89.8191 12.2096 89.8191 12.0831 89.8191 11.9734V11.2309H91.3751ZM101.814 7.0374H99.6791V9.56868H97.2786V7.0374H95.144V14.184H97.2786V11.349H99.6791V14.184H101.814V7.0374ZM102.76 7.0374V12.834C102.76 13.1631 102.799 13.5343 103.034 13.8381C103.174 14.0153 103.424 14.184 103.706 14.184H107.811C108.523 14.184 108.953 13.779 109.133 13.4922C109.398 13.0618 109.445 12.4375 109.445 11.9396C109.445 11.4334 109.406 10.9271 109.187 10.4377C108.843 9.66993 108.249 9.6193 107.866 9.6193H104.895V7.0374H102.76ZM106.443 11.2309C106.701 11.2309 106.857 11.2224 106.99 11.2731C107.225 11.3743 107.248 11.5937 107.248 11.7709C107.248 12.1084 107.131 12.2771 107.029 12.3446C106.904 12.429 106.732 12.4037 106.404 12.4037H105.293C105.168 12.4037 105.02 12.4037 104.941 12.294C104.887 12.2096 104.887 12.0831 104.887 11.9734V11.2309H106.443ZM112.19 14.184V7.0374H110.055V14.184H112.19ZM120.345 14.184V8.72492C120.345 8.14273 120.29 6.96146 118.774 6.96146C118.383 6.96146 117.765 7.00365 117.343 7.79678L115.521 11.2393C115.435 11.3996 115.388 11.4924 115.333 11.4924C115.208 11.4924 115.216 11.3068 115.216 11.1381L115.31 7.04584H113.136V12.5556C113.136 13.4162 113.308 14.2684 114.614 14.2684C115.529 14.2684 115.865 13.8803 116.045 13.5428L117.929 10.0749C118.062 9.83868 118.117 9.72899 118.171 9.72899C118.265 9.72899 118.265 9.86399 118.265 9.99056L118.171 14.184H120.345ZM114.254 5.12207C114.395 5.56926 114.715 6.15989 115.099 6.47208C115.513 6.80959 116.139 6.96146 116.717 6.96146C117.296 6.96146 117.921 6.80959 118.336 6.47208C118.711 6.16833 119.039 5.5777 119.18 5.12207H117.843C117.781 5.27395 117.655 5.50176 117.515 5.61989C117.327 5.7802 116.983 5.87302 116.717 5.87302C116.451 5.87302 116.131 5.7802 115.935 5.61989C115.787 5.48489 115.662 5.28238 115.591 5.12207H114.254Z" fill="#333333"/></svg>