<svg width="31" height="27" viewBox="0 0 31 27" version="1.1" xmlns="http://www.w3.org/2000/svg" xmlns:xlink="http://www.w3.org/1999/xlink">
<path id="path0_fill" d="M 10.4341 14.8042C 8.88319 14.8042 7.62146 16.2959 7.62146 18.1302C 7.62146 19.9645 8.88319 21.4562 10.4341 21.4562C 11.9849 21.4562 13.2467 19.9645 13.2467 18.1302C 13.2467 16.2959 11.9849 14.8042 10.4341 14.8042ZM 10.4341 20.3475C 9.50365 20.3475 8.7465 19.3531 8.7465 18.1302C 8.7465 16.9073 9.50365 15.9129 10.4341 15.9129C 11.3645 15.9129 12.1216 16.9073 12.1216 18.1302C 12.1216 19.3531 11.365 20.3475 10.4341 20.3475Z"/>
<path id="path1_fill" d="M 21.1221 14.8042C 19.5712 14.8042 18.3094 16.2959 18.3094 18.1302C 18.3094 19.9645 19.5712 21.4562 21.1221 21.4562C 22.6729 21.4562 23.9347 19.9645 23.9347 18.1302C 23.9347 16.2959 22.6729 14.8042 21.1221 14.8042ZM 21.1221 20.3475C 20.1916 20.3475 19.4345 19.3531 19.4345 18.1302C 19.4345 16.9073 20.1916 15.9129 21.1221 15.9129C 22.0525 15.9129 22.8096 16.9073 22.8096 18.1302C 22.8096 19.3531 22.053 20.3475 21.1221 20.3475Z"/>
<path id="path2_fill" d="M 21.9806 12.0325C 21.953 12.0325 21.9244 12.0325 21.8968 12.033C 21.3759 12.0419 20.8544 12.063 20.333 12.0835C 19.8582 12.1023 19.3834 12.1212 18.9092 12.1306L 18.0851 12.1478C 16.6547 12.1772 15.1724 12.2071 13.725 12.2015C 13.0646 12.1988 12.4037 12.1744 11.7438 12.15C 10.8449 12.1167 9.91678 12.0813 8.99537 12.104C 7.71676 12.1345 6.64122 12.5369 5.79744 13.3008C 4.3962 14.5697 3.8168 16.2526 4.02662 18.4461C 4.33151 21.6297 5.63543 23.2578 8.52792 24.0643C 10.9597 24.7423 13.4022 24.8032 15.4593 24.7744L 16.1445 24.7777C 16.3756 24.7794 16.6068 24.7816 16.838 24.7816C 17.1232 24.7816 17.4084 24.7789 17.6936 24.77C 19.7159 24.7062 21.4884 24.4086 23.1118 23.8587C 24.8945 23.2555 26.0814 22.1036 26.6383 20.4356C 27.0635 19.1607 27.1884 17.9528 27.0202 16.7427C 26.7463 14.7748 25.0042 12.0325 21.9806 12.0325ZM 25.57 20.0897C 25.1228 21.4296 24.1992 22.3193 22.7468 22.8104C 21.2308 23.3232 19.5663 23.602 17.6582 23.6619C 17.157 23.6774 16.6558 23.673 16.1546 23.6696L 15.452 23.6657C 13.4691 23.6935 11.1273 23.6369 8.83505 22.9972C 6.40665 22.3204 5.40705 21.0582 5.14717 18.3425C 4.97278 16.5176 5.43461 15.1356 6.55853 14.1173C 7.19587 13.5408 8.02446 13.2365 9.02237 13.2121C 9.90891 13.1921 10.8202 13.2248 11.7011 13.2576C 12.3739 13.2825 13.0472 13.3074 13.72 13.3102C 15.187 13.3169 16.6715 13.2858 18.1088 13.2559L 18.9317 13.2393C 19.4138 13.2293 19.8959 13.2099 20.378 13.191C 20.8904 13.1705 21.4029 13.15 21.9154 13.1417C 21.9356 13.1411 21.9559 13.1411 21.9761 13.1411C 24.2993 13.1411 25.6927 15.3707 25.9047 16.8945C 26.0504 17.9334 25.9402 18.9788 25.57 20.0897Z"/>
<path id="path3_fill" d="M 29.1756 8.51348C 28.841 8.05948 28.6879 7.79229 28.7358 7.30725C 28.8353 6.28561 28.6936 5.25731 28.5563 4.26339L 28.5473 4.19798C 28.3639 2.86536 28.0107 1.59371 27.4971 0.417969L 27.3143 0L 26.4834 0.174061C 25.3297 0.41298 24.136 0.660213 23.0481 1.27941C 22.3258 1.69072 21.6069 2.1292 20.9122 2.55271C 20.447 2.83653 19.9818 3.12035 19.5138 3.39697C 19.4885 3.41193 19.4378 3.42413 19.4238 3.42413C 16.9076 2.99119 14.2947 2.98676 11.6554 3.41138C 11.6227 3.41692 11.5164 3.39918 11.4321 3.34985C 11.1418 3.17856 10.8588 2.99452 10.5765 2.81103C 10.2485 2.59761 9.92 2.38475 9.58249 2.19018C 7.97255 1.2589 6.19386 0.360318 4.09622 0.0964543L 3.68558 0.0443469L 3.46676 0.511651C 3.42569 0.597019 3.39082 0.670746 3.36213 0.747244C 2.76023 2.34595 2.39741 4.02226 2.27984 5.78338C 2.23878 6.3937 2.19659 7.02509 2.28771 7.65537C 2.31809 7.86435 2.29278 7.90648 2.21009 8.00848C 1.45237 8.93921 0.910663 9.91262 0.553463 10.9842C -0.0467471 12.7835 -0.155314 14.7786 0.210887 17.2614C 0.514649 19.3385 1.03161 20.8541 1.88551 22.1745C 3.68164 24.9506 6.45431 26.5144 10.127 26.8226C 11.9625 26.9767 13.825 27 15.651 27C 16.0436 27 16.4346 26.9989 16.8233 26.9978C 17.3357 26.9961 17.8487 26.995 18.3601 26.9961C 20.7114 26.9972 22.5868 26.6957 24.2918 26.0377C 27.3272 24.8675 29.3455 22.6878 30.29 19.5586C 30.8165 17.8152 31.0522 15.9615 30.9903 14.048C 30.9217 11.916 30.3108 10.054 29.1756 8.51348ZM 29.2122 19.2426C 28.3594 22.0659 26.6162 23.9512 23.8823 25.0055C 22.3129 25.6114 20.5803 25.898 18.3629 25.8875C 17.8493 25.8863 17.3351 25.8874 16.821 25.8891C 14.6491 25.8952 12.4035 25.9013 10.2232 25.7178C 6.8717 25.4368 4.45455 24.0825 2.83448 21.5786C 2.07002 20.3973 1.60425 19.017 1.32412 17.1023C 0.978728 14.7631 1.07098 12.9831 1.62225 11.3301C 1.9367 10.3871 2.41597 9.52736 3.08762 8.7014C 3.38182 8.33997 3.47238 7.9913 3.40094 7.49849C 3.32613 6.98241 3.36494 6.40978 3.40544 5.80167C 3.50895 4.24565 3.83352 2.7168 4.3696 1.25779C 6.09373 1.55824 7.61704 2.33819 9.01209 3.1453C 9.33273 3.33045 9.64436 3.53333 9.95544 3.73511C 10.2519 3.92802 10.5489 4.12037 10.8538 4.29998C 11.1575 4.47847 11.5243 4.55497 11.8365 4.50397C 14.3498 4.09986 16.8373 4.10319 19.2314 4.51561C 19.507 4.56162 19.8361 4.49732 20.0909 4.3471C 20.564 4.06716 21.0332 3.78112 21.5029 3.49453C 22.2015 3.06824 22.8996 2.64252 23.6101 2.2384C 24.5208 1.7201 25.5485 1.50003 26.637 1.27386C 27.0167 2.23841 27.2833 3.27002 27.4318 4.34543L 27.4408 4.41084C 27.5691 5.34268 27.7018 6.30612 27.6147 7.19915C 27.528 8.08276 27.8729 8.63266 28.2644 9.16371C 29.2786 10.5401 29.8023 12.1494 29.8653 14.0818C 29.9244 15.8778 29.7044 17.614 29.2122 19.2426Z"/>
</svg>