<svg width="125" height="142" viewBox="0 0 125 142" version="1.1" xmlns="http://www.w3.org/2000/svg" xmlns:xlink="http://www.w3.org/1999/xlink">
<path d="M 0 0L 12 126.5L 61 141.5L 112 126.5L 125 0L 0 0Z" />
<path d="M 56.8029 6.95037C 47.5301 -2.31679 32.4963 -2.31679 23.2239 6.95037L 11.3999 18.7676C 16.0567 17.9453 20.8523 18.2506 25.3854 19.7056L 30.6856 14.4084C 35.8372 9.25978 44.1891 9.25978 49.3406 14.4084C 54.4922 19.557 54.4922 27.9041 49.3406 33.0528L 30.6858 51.697C 25.5342 56.8456 17.1823 56.8456 12.0308 51.697C 9.92075 49.5885 8.7237 46.9391 8.34169 44.1973L -5.58216e-07 52.5342C 1.13355 54.9164 2.59565 57.1829 4.56851 59.155C 13.8413 68.4221 28.8751 68.4221 38.1477 59.155L 56.8027 40.5103C 66.0752 31.2431 66.0752 16.2177 56.8029 6.95037Z" transform="translate(45.2432 26)" fill="#F2F2F2"/>
<path d="M 59.5404 6.95064C 50.2676 -2.31688 35.2338 -2.31688 25.9614 6.95064L 6.9546 25.9979C -2.3182 35.2654 -2.3182 50.2906 6.9546 59.5578C 16.227 68.8253 31.2608 68.8253 40.5336 59.5578L 52.7085 47.3387C 48.0517 48.161 43.2561 47.8557 38.7229 46.4008L 33.0715 52.1001C 27.92 57.2487 19.5681 57.2487 14.4165 52.1001C 9.26497 46.9515 9.26497 38.6044 14.4165 33.4557L 33.4231 14.4087C 38.5747 9.25987 46.9266 9.25987 52.0781 14.4087C 54.1882 16.5172 55.3856 19.1665 55.7672 21.9083L 61.4056 16.2728L 64.1089 13.5714C 62.9757 11.1892 61.5132 8.92237 59.5404 6.95064Z" transform="translate(19 49.4915)" fill="#F2F2F2"/>
</svg>