<svg width="33" height="28" viewBox="0 0 33 28" version="1.1" xmlns="http://www.w3.org/2000/svg" xmlns:xlink="http://www.w3.org/1999/xlink">
<path id="path0_fill" d="M 16.5 7.63623C 16.1442 7.63623 15.8555 7.92132 15.8555 8.2726C 15.8555 8.62388 16.1442 8.90897 16.5 8.90897C 16.8558 8.90897 17.1445 8.62388 17.1445 8.2726C 17.1445 7.92132 16.8558 7.63623 16.5 7.63623Z"/>
<path id="path1_fill" d="M 32.9997 8.26735C 32.9996 8.25061 32.9986 8.23387 32.9972 8.2172C 32.9968 8.21364 32.9968 8.21001 32.9965 8.20645C 32.9945 8.1871 32.9914 8.16782 32.9876 8.14873C 32.986 8.14039 32.9837 8.13237 32.9817 8.12417C 32.9791 8.11322 32.9764 8.10227 32.9732 8.09146C 32.9705 8.08248 32.9673 8.0737 32.9642 8.06486C 32.9608 8.05505 32.9573 8.04525 32.9534 8.03558C 32.9499 8.02686 32.946 8.01827 32.9421 8.00975C 32.9377 8.00026 32.9332 7.99091 32.9283 7.98155C 32.924 7.97328 32.9196 7.9652 32.9149 7.95718C 32.9096 7.94802 32.904 7.93898 32.8982 7.93007C 32.8932 7.92231 32.8881 7.91467 32.8828 7.90716C 32.8766 7.89851 32.8701 7.89004 32.8634 7.88164C 32.8576 7.87433 32.8519 7.86707 32.8458 7.86007C 32.8434 7.85721 32.8413 7.85415 32.8387 7.85135L 26.0066 0.214903C 26.005 0.213121 26.0032 0.211593 26.0016 0.209875C 25.991 0.19823 25.9798 0.18722 25.9682 0.176338C 25.9639 0.172266 25.9598 0.167938 25.9553 0.163993C 25.9417 0.151838 25.9274 0.140447 25.9127 0.129438C 25.9098 0.127338 25.9072 0.12492 25.9043 0.122883C 25.8867 0.110219 25.8685 0.0982558 25.8494 0.0872466C 25.8496 0.0873739 25.8491 0.0871193 25.8494 0.0872466C 25.8116 0.0655463 25.7704 0.0467733 25.7274 0.0325823C 25.727 0.032455 25.7267 0.0323915 25.7263 0.0323278C 25.7199 0.0302278 25.7132 0.0288276 25.7067 0.0269185C 25.6916 0.0224639 25.6764 0.0180095 25.6613 0.0147003C 25.6561 0.0135549 25.6507 0.0129822 25.6454 0.0120276C 25.6285 0.00878211 25.6117 0.00585463 25.5948 0.00394552C 25.5896 0.00337278 25.5843 0.00330925 25.5791 0.0028638C 25.5619 0.00140014 25.5448 0.000254686 25.5278 0.000191049C 25.5264 0.000191049 25.525 0 25.5236 0L 7.47656 0C 7.47508 0 7.4736 0.000191014 7.47205 0.000254651C 7.45549 0.000381925 7.43879 0.00152738 7.4221 0.0029274C 7.41643 0.00343649 7.41076 0.00350023 7.40508 0.00407296C 7.38871 0.00591844 7.37241 0.00878194 7.35603 0.0119002C 7.35023 0.012982 7.34437 0.0136184 7.33863 0.0148275C 7.32381 0.018073 7.30898 0.022464 7.29422 0.0267913C 7.28746 0.0287641 7.28043 0.0302278 7.27373 0.0323914C 7.27341 0.0325187 7.27302 0.0325822 7.2727 0.0326459C 7.22958 0.0468369 7.1891 0.0651645 7.1514 0.0868647C 7.15165 0.0867374 7.15114 0.086992 7.1514 0.0868647C 7.13232 0.0978739 7.11337 0.11022 7.09577 0.122947C 7.09287 0.125047 7.09023 0.127402 7.08739 0.129565C 7.0727 0.140575 7.05839 0.151966 7.04479 0.164057C 7.04034 0.168066 7.03615 0.172393 7.03184 0.176466C 7.02036 0.187284 7.00908 0.198357 6.99851 0.209939C 6.9969 0.211721 6.9951 0.213248 6.99349 0.214966L 0.161455 7.85142C 0.158941 7.85422 0.156814 7.85727 0.154301 7.86014C 0.148242 7.86714 0.142441 7.87439 0.136705 7.88171C 0.130066 7.89011 0.123557 7.89857 0.117369 7.90723C 0.11202 7.91473 0.106928 7.92237 0.1019 7.93014C 0.0960996 7.93911 0.0904922 7.94808 0.085207 7.95725C 0.0805664 7.96526 0.0760547 7.97335 0.0718008 7.98162C 0.0669668 7.99091 0.0623906 8.00033 0.0580723 8.00981C 0.0541406 8.01834 0.0502734 8.02686 0.0467285 8.03565C 0.0427969 8.04532 0.0393164 8.05512 0.0359004 8.06492C 0.0328066 8.07376 0.0296484 8.08255 0.0269414 8.09152C 0.0237188 8.10234 0.0210762 8.11328 0.0184336 8.12423C 0.0164355 8.13244 0.0141797 8.14052 0.0125039 8.14879C 0.00863672 8.16795 0.00560742 8.18717 0.00360938 8.20651C 0.00322266 8.21007 0.00322266 8.2137 0.00296484 8.21727C 0.00148242 8.23394 0.000515625 8.25068 0.000386719 8.26741C 0.000257812 8.26913 0 8.27078 0 8.27263C 0 8.27785 0.000644531 8.28294 0.000773437 8.28809C 0.0010957 8.30133 0.00161133 8.3145 0.00277148 8.32768C 0.00348047 8.33601 0.00451172 8.34422 0.00554297 8.35243C 0.00702539 8.36382 0.00870117 8.37515 0.0108281 8.38641C 0.0124395 8.39532 0.0141797 8.40417 0.0161777 8.41289C 0.0185625 8.42326 0.021334 8.43357 0.0242344 8.44388C 0.026748 8.45285 0.0292617 8.46182 0.0321621 8.4706C 0.0354492 8.48053 0.0393164 8.49033 0.0431191 8.5002C 0.0464707 8.50879 0.0496289 8.5175 0.0533027 8.5259C 0.0576856 8.5359 0.0627773 8.54563 0.0677402 8.55543C 0.0716719 8.56326 0.0752812 8.57128 0.0795352 8.57892C 0.0854648 8.58954 0.0922324 8.59985 0.0988066 8.61022C 0.102867 8.61659 0.106541 8.62321 0.110795 8.62944C 0.121752 8.64535 0.133482 8.66094 0.146051 8.67609L 0.146695 8.67685C 0.146953 8.67717 0.147211 8.67749 0.147469 8.67781L 16.0015 27.7672C 16.0029 27.7688 16.0044 27.7702 16.0058 27.7718C 16.0196 27.788 16.0339 27.8037 16.0492 27.8184C 16.0509 27.8202 16.0528 27.8217 16.0546 27.8233C 16.0682 27.8362 16.0825 27.8484 16.0971 27.8599C 16.1017 27.8636 16.1063 27.8671 16.111 27.8706C 16.1262 27.882 16.1418 27.8928 16.1579 27.9028C 16.1597 27.9039 16.1614 27.9051 16.1631 27.9062C 16.181 27.917 16.1995 27.9267 16.2183 27.9357C 16.2232 27.9381 16.2281 27.9402 16.2331 27.9425C 16.2488 27.9495 16.2649 27.956 16.2812 27.9618C 16.2852 27.9633 16.2892 27.9649 16.2932 27.9662C 16.3132 27.9729 16.3336 27.9786 16.3543 27.9834C 16.3583 27.9843 16.3625 27.985 16.3666 27.9858C 16.3836 27.9894 16.4008 27.9922 16.4183 27.9944C 16.424 27.9951 16.4297 27.9959 16.4354 27.9964C 16.4567 27.9985 16.4782 28 16.4999 28C 16.5216 28 16.5431 27.9985 16.5643 27.9964C 16.5701 27.9959 16.5757 27.9951 16.5815 27.9944C 16.5989 27.9922 16.6161 27.9894 16.6331 27.9858C 16.6372 27.985 16.6413 27.9843 16.6454 27.9834C 16.6661 27.9787 16.6865 27.9729 16.7064 27.9662C 16.7105 27.9649 16.7145 27.9632 16.7185 27.9618C 16.7348 27.956 16.7509 27.9495 16.7666 27.9425C 16.7715 27.9402 16.7765 27.9381 16.7814 27.9357C 16.8002 27.9267 16.8187 27.917 16.8366 27.9062C 16.8383 27.9051 16.84 27.9039 16.8417 27.9028C 16.8579 27.8928 16.8734 27.882 16.8887 27.8707C 16.8934 27.8672 16.898 27.8636 16.9026 27.8599C 16.9172 27.8484 16.9314 27.8362 16.945 27.8234C 16.9469 27.8217 16.9487 27.8202 16.9505 27.8184C 16.9658 27.8037 16.9802 27.788 16.9939 27.7718C 16.9953 27.7702 16.9968 27.7689 16.9982 27.7672L 32.8522 8.67781C 32.8525 8.67749 32.8527 8.67717 32.853 8.67685L 32.8536 8.67609C 32.8662 8.66094 32.878 8.64535 32.8889 8.62944C 32.8931 8.62321 32.8968 8.61659 32.9009 8.61022C 32.9074 8.59985 32.9142 8.58954 32.9201 8.57892C 32.9244 8.57128 32.928 8.56326 32.9319 8.55543C 32.9369 8.54563 32.9419 8.5359 32.9464 8.5259C 32.9501 8.5175 32.9532 8.50879 32.9566 8.5002C 32.9604 8.4904 32.9642 8.4806 32.9675 8.4706C 32.9704 8.46182 32.9729 8.45285 32.9754 8.44388C 32.9783 8.43357 32.9811 8.42332 32.9835 8.41289C 32.9855 8.4041 32.9872 8.39532 32.9888 8.38641C 32.9909 8.37508 32.9927 8.36382 32.9941 8.35243C 32.9952 8.34422 32.9962 8.33595 32.9969 8.32768C 32.9981 8.3145 32.9986 8.30127 32.9989 8.28809C 32.9994 8.28288 33 8.27778 33 8.27263C 33 8.27078 32.9997 8.26913 32.9997 8.26735ZM 25.7811 1.88538L 30.9262 7.63626L 23.8395 7.63626L 25.7811 1.88538ZM 24.6292 1.27255L 22.6997 6.98767L 17.8761 1.27255L 24.6292 1.27255ZM 15.1239 1.27255L 10.3003 6.98767L 8.37078 1.27255L 15.1239 1.27255ZM 7.21894 1.88538L 9.16047 7.63626L 2.07384 7.63626L 7.21894 1.88538ZM 2.00655 8.909L 9.59011 8.909L 14.7843 24.2944L 2.00655 8.909ZM 16.5 25.3514L 10.9489 8.909L 13.9219 8.909C 14.2778 8.909 14.5664 8.6241 14.5664 8.27263C 14.5664 7.92116 14.2778 7.63626 13.9219 7.63626L 11.4308 7.63626L 16.5 1.63019L 21.5692 7.63626L 19.0175 7.63626C 18.6616 7.63626 18.373 7.92116 18.373 8.27263C 18.373 8.6241 18.6616 8.909 19.0175 8.909L 22.0511 8.909L 16.5 25.3514ZM 18.2156 24.2944L 23.4099 8.909L 30.9934 8.909L 18.2156 24.2944Z"/>
</svg>