<svg width="33" height="30" viewBox="0 0 33 30" version="1.1" xmlns="http://www.w3.org/2000/svg" xmlns:xlink="http://www.w3.org/1999/xlink">
<path id="path0_fill" d="M 30.1426 22.0477C 30.8323 21.768 31.3242 21.0532 31.3242 20.2174L 31.3242 15C 31.3242 13.9212 30.505 13.0435 29.4981 13.0435L 26.4903 13.0435L 26.4903 8.50029C 26.4903 8.15372 26.3572 7.83879 26.1413 7.60218C 26.5954 7.05938 26.9288 6.13557 26.3168 4.65423C 25.8876 3.61532 25.1407 2.65975 24.7336 2.18269C 24.6112 2.03921 24.4331 1.95671 24.2458 1.95671C 24.0584 1.95671 23.8803 2.03921 23.7579 2.18269C 21.8236 4.44997 21.328 6.35725 22.3409 7.58751C 22.117 7.82548 21.9786 8.14648 21.9786 8.50022L 21.9786 13.0434L 18.7559 13.0434L 18.7559 6.54364C 18.7559 6.19707 18.6228 5.88207 18.4069 5.64553C 18.861 5.10266 19.1945 4.17893 18.5825 2.69752C 18.1532 1.6586 17.4063 0.703107 16.9993 0.225978C 16.8769 0.0824998 16.6988 0 16.5114 0C 16.3241 0 16.146 0.0824998 16.0236 0.225978C 14.0894 2.49312 13.5936 4.4004 14.6065 5.63079C 14.3827 5.86883 14.2443 6.18983 14.2443 6.54357L 14.2443 13.0434L 11.0216 13.0434L 11.0216 8.50016C 11.0216 8.15359 10.8885 7.83866 10.6726 7.60211C 11.1267 7.05925 11.4602 6.13551 10.8481 4.6541C 10.4189 3.61512 9.67198 2.65962 9.26496 2.18256C 9.14256 2.03902 8.96448 1.95658 8.77711 1.95658C 8.58975 1.95658 8.41166 2.03908 8.28927 2.18256C 6.35496 4.44977 5.85938 6.35705 6.8722 7.58738C 6.64835 7.82542 6.50997 8.14642 6.50997 8.50016L 6.50997 13.0434L 3.50187 13.0434C 2.49492 13.0434 1.67572 13.9211 1.67572 14.9999L 1.67572 20.2173C 1.67572 21.0531 2.16763 21.7678 2.85734 22.0476L 2.85741 28.0435C 2.85741 28.2721 2.89453 28.4916 2.96208 28.6957L 2.51149 28.6957C 2.15557 28.6957 1.86695 28.9876 1.86695 29.3478C 1.86695 29.708 2.15557 30 2.51149 30L 30.4885 30C 30.8444 30 31.133 29.708 31.133 29.3478C 31.133 28.9876 30.8444 28.6957 30.4885 28.6957L 30.0379 28.6957C 30.1055 28.4916 30.1426 28.2721 30.1426 28.0435L 30.1426 22.0477ZM 24.2431 3.65151C 25.0184 4.71671 25.765 6.16446 25.0949 6.8274C 24.869 7.05083 24.5678 7.1739 24.2465 7.17409L 24.2383 7.17409C 23.9146 7.17214 23.6175 7.05083 23.4018 6.83255C 22.6593 6.08125 23.5532 4.5806 24.2431 3.65151ZM 23.2676 8.50029C 23.2676 8.48966 23.2788 8.47837 23.2893 8.47837L 24.2306 8.47837L 24.2459 8.47844C 24.2463 8.47844 24.2468 8.47837 24.2472 8.47837L 25.1796 8.47837C 25.1901 8.47837 25.2013 8.48966 25.2013 8.50029L 25.2013 13.0435L 23.2677 13.0435L 23.2676 8.50029ZM 16.5086 1.69487C 17.284 2.76006 18.0306 4.20782 17.3604 4.87082C 17.1346 5.09425 16.8334 5.21731 16.5121 5.21744L 16.5038 5.21744C 16.1802 5.21549 15.8831 5.09418 15.6674 4.87597C 14.9249 4.1246 15.8188 2.62395 16.5086 1.69487ZM 17.4668 6.5437L 17.4668 13.0435L 15.5332 13.0435L 15.5332 6.5437C 15.5332 6.53307 15.5443 6.52179 15.5548 6.52179L 16.5114 6.52179C 16.5119 6.52179 16.5123 6.52179 16.5128 6.52179L 17.4451 6.52179C 17.4556 6.52179 17.4668 6.53307 17.4668 6.5437ZM 8.77421 3.65145C 9.54959 4.71658 10.2962 6.1644 9.62603 6.82733C 9.40025 7.05077 9.09887 7.17383 8.77763 7.17403L 8.76938 7.17403C 8.44576 7.17207 8.1487 7.05077 7.93297 6.83249C 7.19047 6.08118 8.08437 4.58053 8.77421 3.65145ZM 7.79871 8.50029C 7.79871 8.48966 7.80986 8.47837 7.82037 8.47837L 8.76165 8.47837L 8.77699 8.47844C 8.77744 8.47844 8.77789 8.47837 8.77834 8.47837L 9.71078 8.47837C 9.72129 8.47837 9.73238 8.48966 9.73238 8.50029L 9.73238 13.0435L 7.79878 13.0435L 7.79871 8.50029ZM 28.8534 22.5875L 26.8531 22.5875C 26.4972 22.5875 26.2086 22.8795 26.2086 23.2396C 26.2086 23.5998 26.4972 23.8918 26.8531 23.8918L 28.8534 23.8918L 28.8534 28.0435C 28.8534 28.3968 28.6076 28.6953 28.3168 28.6957L 4.68304 28.6957C 4.39217 28.6953 4.14647 28.3968 4.14647 28.0435L 4.14647 27.5439L 6.14678 27.5439C 6.50269 27.5439 6.79131 27.2519 6.79131 26.8917C 6.79131 26.5316 6.50269 26.2396 6.14678 26.2396L 4.14647 26.2396L 4.14641 22.0478C 4.83619 21.768 5.32809 21.0533 5.32809 20.2175L 5.32809 18.2766C 5.32809 17.8445 5.63418 17.4795 5.99647 17.4795C 6.35876 17.4795 6.66485 17.8445 6.66485 18.2766L 6.66485 20.9543C 6.66485 22.1131 7.54296 23.0557 8.62236 23.0557C 9.7017 23.0557 10.5798 22.113 10.5798 20.9543L 10.5798 18.2766C 10.5798 17.8445 10.8859 17.4795 11.2482 17.4795C 11.6105 17.4795 11.9166 17.8445 11.9166 18.2766L 11.9166 18.4434C 11.9166 19.6021 12.7947 20.5448 13.8741 20.5448C 14.9534 20.5448 15.8315 19.6021 15.8315 18.4434L 15.8315 18.2766C 15.8315 17.8445 16.1376 17.4795 16.4999 17.4795C 16.8623 17.4795 17.1683 17.8445 17.1683 18.2766L 17.1683 19.6499C 17.1683 20.8086 18.0465 21.7513 19.1258 21.7513C 20.2051 21.7513 21.0832 20.8086 21.0832 19.6499L 21.0832 18.2766C 21.0832 17.8445 21.3893 17.4795 21.7516 17.4795C 22.114 17.4795 22.4201 17.8445 22.4201 18.2766L 22.4201 18.4434C 22.4201 19.6021 23.2982 20.5448 24.3775 20.5448C 25.4568 20.5448 26.335 19.6021 26.335 18.4434L 26.335 18.2766C 26.335 17.8445 26.641 17.4795 27.0034 17.4795C 27.3657 17.4795 27.6718 17.8445 27.6718 18.2766L 27.6718 20.2175C 27.6718 21.0533 28.1637 21.768 28.8534 22.0478L 28.8534 22.5875ZM 30.0352 20.2174C 30.0352 20.5709 29.7892 20.8696 29.4981 20.8696C 29.2069 20.8696 28.961 20.5709 28.961 20.2174L 28.961 18.2765C 28.961 17.1178 28.0829 16.1751 27.0035 16.1751C 25.9241 16.1751 25.046 17.1178 25.046 18.2765L 25.046 18.4433C 25.046 18.8754 24.7399 19.2404 24.3776 19.2404C 24.0153 19.2404 23.7093 18.8754 23.7093 18.4433L 23.7093 18.2765C 23.7093 17.1178 22.8311 16.1751 21.7517 16.1751C 20.6724 16.1751 19.7943 17.1178 19.7943 18.2765L 19.7943 19.6498C 19.7943 20.0819 19.4882 20.4469 19.1259 20.4469C 18.7636 20.4469 18.4575 20.0819 18.4575 19.6498L 18.4575 18.2765C 18.4575 17.1178 17.5794 16.1751 16.5 16.1751C 15.4207 16.1751 14.5426 17.1178 14.5426 18.2765L 14.5426 18.4433C 14.5426 18.8754 14.2365 19.2404 13.8742 19.2404C 13.5119 19.2404 13.2058 18.8754 13.2058 18.4433L 13.2058 18.2765C 13.2058 17.1178 12.3277 16.1751 11.2483 16.1751C 10.169 16.1751 9.29087 17.1178 9.29087 18.2765L 9.29087 20.9542C 9.29087 21.3863 8.98478 21.7513 8.62249 21.7513C 8.26014 21.7513 7.95405 21.3863 7.95405 20.9542L 7.95405 18.2765C 7.95405 17.1178 7.07594 16.1751 5.9966 16.1751C 4.91727 16.1751 4.03916 17.1178 4.03916 18.2765L 4.03916 20.2174C 4.03916 20.5709 3.7932 20.8696 3.502 20.8696C 3.21087 20.8696 2.96491 20.5709 2.96491 20.2174L 2.96491 15C 2.96491 14.6466 3.21087 14.3479 3.50207 14.3479L 29.4981 14.3479C 29.7892 14.3479 30.0352 14.6466 30.0352 15L 30.0352 20.2174Z"/>
<path id="path1_fill" d="M 32.3555 28.6957L 32.3403 28.6957C 31.9844 28.6957 31.6958 28.9877 31.6958 29.3479C 31.6958 29.708 31.9844 30 32.3403 30L 32.3555 30C 32.7115 30 33 29.708 33 29.3479C 33 28.9877 32.7115 28.6957 32.3555 28.6957Z"/>
<path id="path2_fill" d="M 0.659679 28.6957L 0.644532 28.6957C 0.288557 28.6957 0 28.9877 0 29.3479C 0 29.708 0.288557 30 0.644532 30L 0.659679 30C 1.01559 30 1.30421 29.708 1.30421 29.3479C 1.30421 28.9877 1.01565 28.6957 0.659679 28.6957Z"/>
<path id="path3_fill" d="M 8.01371 26.2397L 7.99857 26.2397C 7.64266 26.2397 7.35403 26.5317 7.35403 26.8919C 7.35403 27.2521 7.64266 27.5441 7.99857 27.5441L 8.01371 27.5441C 8.36962 27.5441 8.65825 27.2521 8.65825 26.8919C 8.65825 26.5317 8.36962 26.2397 8.01371 26.2397Z"/>
<path id="path4_fill" d="M 25.0014 22.5876L 24.9862 22.5876C 24.6303 22.5876 24.3417 22.8796 24.3417 23.2398C 24.3417 23.6 24.6303 23.892 24.9862 23.892L 25.0014 23.892C 25.3574 23.892 25.646 23.6 25.646 23.2398C 25.646 22.8796 25.3574 22.5876 25.0014 22.5876Z"/>
<path id="path5_fill" d="M 16.4229 22.2616L 15.1983 22.2616C 14.8424 22.2616 14.5538 22.5536 14.5538 22.9138C 14.5538 23.274 14.8424 23.5659 15.1983 23.5659L 16.4229 23.5659C 16.7789 23.5659 17.0675 23.274 17.0675 22.9138C 17.0675 22.5536 16.7789 22.2616 16.4229 22.2616Z"/>
<path id="path6_fill" d="M 11.7823 24.1206L 10.9444 24.1206C 10.5885 24.1206 10.2999 24.4126 10.2999 24.7728C 10.2999 25.133 10.5885 25.4249 10.9444 25.4249L 11.7823 25.4249C 12.1383 25.4249 12.4269 25.133 12.4269 24.7728C 12.4269 24.4126 12.1382 24.1206 11.7823 24.1206Z"/>
<path id="path7_fill" d="M 26.1554 26.2397L 24.673 26.2397C 24.3171 26.2397 24.0284 26.5317 24.0284 26.8919C 24.0284 27.2521 24.3171 27.5441 24.673 27.5441L 26.1554 27.5441C 26.5113 27.5441 26.7999 27.2521 26.7999 26.8919C 26.7999 26.5317 26.5113 26.2397 26.1554 26.2397Z"/>
<path id="path8_fill" d="M 21.4825 23.5011L 20.6447 23.5011C 20.2887 23.5011 20.0001 23.7931 20.0001 24.1533C 20.0001 24.5135 20.2887 24.8054 20.6447 24.8054L 21.4825 24.8054C 21.8385 24.8054 22.1271 24.5135 22.1271 24.1533C 22.1271 23.7931 21.8385 23.5011 21.4825 23.5011Z"/>
<path id="path9_fill" d="M 17.8731 26.2397L 17.0352 26.2397C 16.6793 26.2397 16.3907 26.5317 16.3907 26.8919C 16.3907 27.2521 16.6793 27.5441 17.0352 27.5441L 17.8731 27.5441C 18.2291 27.5441 18.5177 27.2521 18.5177 26.8919C 18.5177 26.5317 18.2291 26.2397 17.8731 26.2397Z"/>
</svg>