<svg width="33" height="25" viewBox="0 0 33 25" version="1.1" xmlns="http://www.w3.org/2000/svg" xmlns:xlink="http://www.w3.org/1999/xlink">
<path id="path0_fill" d="M 23.5872 7.02002L 22.4062 7.02002C 22.1005 7.02002 21.8525 7.28787 21.8525 7.61834C 21.8525 7.94874 22.1004 8.21666 22.4062 8.21666L 23.5872 8.21666C 23.893 8.21666 24.1409 7.94881 24.1409 7.61834C 24.1409 7.28787 23.893 7.02002 23.5872 7.02002Z"/>
<path id="path1_fill" d="M 23.7327 11.9627C 23.5144 11.6605 23.1856 11.4872 22.8308 11.4872L 10.1692 11.4872C 9.81435 11.4872 9.48564 11.6605 9.2672 11.9627C 9.04884 12.265 8.97291 12.6516 9.05902 13.0236L 9.35434 14.3C 9.48196 14.8514 9.93848 15.2365 10.4645 15.2365L 22.5355 15.2365C 23.0615 15.2365 23.518 14.8514 23.6457 14.2999L 23.941 13.0236C 24.027 12.6515 23.9511 12.2649 23.7327 11.9627ZM 22.8666 12.7334L 22.5713 14.0097C 22.5672 14.0276 22.5525 14.04 22.5355 14.04L 10.4645 14.04C 10.4475 14.04 10.4327 14.0275 10.4286 14.0098L 10.1333 12.7334C 10.132 12.7278 10.1289 12.7145 10.14 12.6992C 10.1511 12.6839 10.1637 12.6839 10.1691 12.6839L 22.8308 12.6839C 22.8362 12.6839 22.8488 12.6839 22.8599 12.6992C 22.8709 12.7145 22.868 12.7277 22.8666 12.7334Z"/>
<path id="path2_fill" d="M 31.2651 8.21656C 32.2217 8.21656 33 7.3756 33 6.34193C 33 5.30826 32.2217 4.46729 31.2651 4.46729L 30.6745 4.46729C 29.812 4.46729 29.0946 5.15121 28.9618 6.04343L 27.4847 1.65419C 27.1518 0.664747 26.2735 5.53926e-05 25.2993 5.53926e-05L 19.9587 5.53926e-05C 18.8084 5.53926e-05 18.6213 9.03209e-05 17.7972 9.03209e-05L 13.0411 5.53926e-05C 12.217 5.53926e-05 12.5 -6.92407e-05 11.9118 5.53926e-05L 7.70067 5.53926e-05C 6.72639 5.53926e-05 5.84809 0.664817 5.51519 1.65412L 4.03818 6.04336C 3.90547 5.15121 3.18811 4.46729 2.32553 4.46729L 1.73495 4.46729C 0.778271 4.46729 0 5.30826 0 6.34193C 0 7.3756 0.778271 8.21656 1.73488 8.21656L 2.32547 8.21656C 2.59817 8.21656 2.85624 8.14803 3.08608 8.02636L 1.82022 9.73621C 1.40811 10.2928 1.18117 10.9918 1.18117 11.7046L 1.18117 23.5727C 1.18117 24.2546 1.69447 24.8092 2.32547 24.8092L 4.09729 24.8092C 4.72828 24.8092 5.24159 24.2546 5.24159 23.5727L 5.24159 20.9801L 27.7583 20.9801L 27.7583 23.5727C 27.7583 24.2546 28.2717 24.8092 28.9026 24.8092L 30.6745 24.8092C 31.3055 24.8092 31.8188 24.2546 31.8188 23.5727L 31.8188 11.7046C 31.8188 10.9918 31.5918 10.2927 31.1797 9.73621L 29.9139 8.02636C 30.1437 8.14803 30.4018 8.21656 30.6745 8.21656L 31.2651 8.21656ZM 2.32553 7.01999L 1.73495 7.01999C 1.3889 7.01999 1.10743 6.71585 1.10743 6.34193C 1.10743 5.968 1.3889 5.66387 1.73495 5.66387L 2.32553 5.66387C 2.67158 5.66387 2.95305 5.968 2.95305 6.34193C 2.95305 6.71578 2.67152 7.01999 2.32553 7.01999ZM 4.13422 23.5727C 4.13422 23.5947 4.11765 23.6126 4.09729 23.6126L 2.32547 23.6126C 2.3051 23.6126 2.28854 23.5947 2.28854 23.5727L 2.28854 20.6067C 2.64303 20.8432 3.0603 20.9801 3.50664 20.9801L 4.13415 20.9801L 4.13422 23.5727ZM 23.0335 19.7836L 9.96645 19.7836L 9.96645 18.4673C 9.96645 18.4453 9.98302 18.4274 10.0034 18.4274L 22.9967 18.4274C 23.017 18.4274 23.0336 18.4453 23.0336 18.4673L 23.0335 19.7836ZM 30.7114 23.5727C 30.7114 23.5947 30.6948 23.6126 30.6745 23.6126L 28.9026 23.6126C 28.8823 23.6126 28.8657 23.5947 28.8657 23.5727L 28.8657 20.9801L 29.4932 20.9801C 29.9396 20.9801 30.3568 20.8432 30.7113 20.6067L 30.7114 23.5727ZM 30.3151 10.4837C 30.5706 10.8289 30.7115 11.2626 30.7115 11.7047L 30.7115 18.4673C 30.7115 19.1931 30.165 19.7836 29.4934 19.7836L 24.1409 19.7836L 24.1409 18.4673C 24.1409 17.7855 23.6276 17.2309 22.9966 17.2309L 10.0034 17.2309C 9.37239 17.2309 8.85908 17.7855 8.85908 18.4673L 8.85908 19.7836L 3.5067 19.7836C 2.83504 19.7836 2.2886 19.1931 2.2886 18.4673L 2.2886 11.7047C 2.2886 11.2626 2.42937 10.8289 2.68499 10.4837L 4.36341 8.21656L 20.0436 8.21656C 20.3494 8.21656 20.5974 7.94871 20.5974 7.61824C 20.5974 7.28785 20.3495 7.01992 20.0436 7.01992L 4.88787 7.01992L 6.55604 2.06294C 6.73039 1.54471 7.19045 1.19656 7.70079 1.19656L 25.2993 1.19656C 25.8097 1.19656 26.2697 1.54478 26.4441 2.06294L 28.1123 7.01992L 25.9498 7.01992C 25.644 7.01992 25.3961 7.28778 25.3961 7.61824C 25.3961 7.94864 25.644 8.21656 25.9498 8.21656L 28.6367 8.21656L 30.3151 10.4837ZM 30.047 6.34193C 30.047 5.968 30.3284 5.66387 30.6745 5.66387L 31.2651 5.66387C 31.6111 5.66387 31.8926 5.968 31.8926 6.34193C 31.8926 6.71585 31.6111 7.01999 31.2651 7.01999L 30.6745 7.01999C 30.3285 7.01999 30.047 6.71578 30.047 6.34193Z"/>
<path id="path3_fill" d="M 5.86909 15.9545C 5.2381 15.9545 4.72479 16.5091 4.72479 17.1909C 4.72479 17.8728 5.2381 18.4274 5.86909 18.4274C 6.50009 18.4274 7.01339 17.8728 7.01339 17.1909C 7.01339 16.5091 6.50009 15.9545 5.86909 15.9545Z"/>
<path id="path4_fill" d="M 27.1309 15.9545C 26.4999 15.9545 25.9866 16.5091 25.9866 17.1909C 25.9866 17.8728 26.4999 18.4274 27.1309 18.4274C 27.7619 18.4274 28.2752 17.8728 28.2752 17.1909C 28.2752 16.5091 27.7618 15.9545 27.1309 15.9545Z"/>
<path id="path5_fill" d="M 5.57385 10.8491C 4.45436 10.8491 3.54364 11.8332 3.54364 13.0429C 3.54364 14.2525 4.45436 15.2366 5.57385 15.2366C 6.69334 15.2366 7.60406 14.2525 7.60406 13.0429C 7.60406 11.8332 6.69334 10.8491 5.57385 10.8491ZM 5.57385 14.04C 5.06499 14.04 4.65101 13.5927 4.65101 13.0428C 4.65101 12.4929 5.06493 12.0456 5.57385 12.0456C 6.08277 12.0456 6.49669 12.4929 6.49669 13.0428C 6.49669 13.5927 6.08271 14.04 5.57385 14.04Z"/>
<path id="path6_fill" d="M 27.4262 10.8491C 26.3067 10.8491 25.396 11.8332 25.396 13.0429C 25.396 14.2525 26.3067 15.2366 27.4262 15.2366C 28.5457 15.2366 29.4564 14.2525 29.4564 13.0429C 29.4564 11.8332 28.5457 10.8491 27.4262 10.8491ZM 27.4262 14.04C 26.9173 14.04 26.5033 13.5927 26.5033 13.0428C 26.5033 12.4929 26.9173 12.0456 27.4262 12.0456C 27.935 12.0456 28.349 12.4929 28.349 13.0428C 28.349 13.5927 27.9351 14.04 27.4262 14.04Z"/>
</svg>