<svg width="33" height="36" viewBox="0 0 33 36" version="1.1" xmlns="http://www.w3.org/2000/svg" xmlns:xlink="http://www.w3.org/1999/xlink">
<path id="path0_fill" d="M 32.9887 5.91785C 32.7522 4.60925 32.1595 3.39248 31.2746 2.39833C 31.2728 2.39641 31.2712 2.3944 31.2695 2.39247C 30.8162 1.87622 30.0651 1.16645 29.0611 0.716677L 29.0382 0.706455C 28.0692 0.23764 27.0293 0 25.9476 0C 24.3479 0 22.8348 0.520886 21.5718 1.50648L 21.5633 1.51312C 20.4775 2.36836 19.761 3.59046 19.6723 3.74615C 19.6683 3.75296 19.6644 3.75987 19.6607 3.76677C 19.091 4.82025 18.7899 6.01439 18.7899 7.22015C 18.7899 7.47054 18.8029 7.724 18.8288 7.97334C 18.8527 8.20635 18.991 8.41167 19.1967 8.52026C 19.3269 8.58902 19.4631 8.64625 19.603 8.69151C 20.1606 10.4132 21.3785 11.7901 22.9267 12.5644C 22.263 12.9064 21.667 13.3585 21.1514 13.9115C 20.8892 14.1926 20.9026 14.6349 21.1814 14.8994C 21.4601 15.1638 21.8987 15.1502 22.1608 14.8691C 22.4086 14.6033 22.6798 14.3673 22.9723 14.1625C 23.3918 15.3612 24.4729 16.2395 25.7025 16.2395L 25.8059 16.2395C 27.0376 16.2395 28.1177 15.2982 28.5124 14.0247C 29.9756 14.9499 30.9117 16.5984 30.9117 18.3617L 30.9117 25.6219L 24.6094 29.7469C 24.2883 29.957 24.1969 30.3899 24.4053 30.7136C 24.538 30.9199 24.7603 31.0322 24.9872 31.0322C 25.1165 31.0322 25.2472 30.9958 25.3637 30.9195L 31.9817 26.5878C 32.1785 26.4589 32.2975 26.2382 32.2975 26.0015L 32.2975 18.3617C 32.2975 15.8865 30.9276 13.6679 28.7626 12.5608C 30.8128 11.5287 32.2626 9.44549 32.4047 7.0192C 32.6003 6.84036 32.7703 6.63024 32.9063 6.39391C 32.9892 6.25028 33.0183 6.0814 32.9887 5.91785ZM 25.806 14.8417L 25.7026 14.8417C 24.8734 14.8417 24.1728 14.0309 24.1728 13.0712C 24.1728 13.0592 24.1725 13.0473 24.1719 13.0354C 24.7091 13.1779 25.2711 13.2533 25.8473 13.2533C 26.3398 13.2533 26.8204 13.1979 27.2827 13.093C 27.2285 14.038 26.5617 14.8417 25.806 14.8417ZM 25.8472 11.8554C 23.7579 11.8554 21.9053 10.6 21.0938 8.71807C 22.0559 8.44356 22.7918 7.6202 22.947 6.60613C 23.3604 6.65968 23.7794 6.68668 24.1997 6.68668C 25.6091 6.68668 26.9668 6.38867 28.1828 5.81798C 28.4961 6.90353 29.4915 7.6991 30.6675 7.6991C 30.7532 7.6991 30.8385 7.69473 30.9229 7.68617C 30.4343 10.0608 28.3378 11.8554 25.8472 11.8554ZM 30.6675 6.3013C 30.005 6.3013 29.466 5.75779 29.466 5.0896L 29.466 4.70064C 29.466 4.44631 29.3291 4.21208 29.1084 4.08898C 28.8876 3.96579 28.6181 3.97339 28.4047 4.10872C 27.1854 4.88079 25.7314 5.28889 24.1996 5.28889C 23.6006 5.28889 23.0056 5.22519 22.4311 5.09956C 22.2264 5.05474 22.0125 5.10585 21.8493 5.23856C 21.6862 5.37127 21.5914 5.57126 21.5914 5.7826L 21.5914 6.2066C 21.5914 6.8747 21.0524 7.4183 20.39 7.4183C 20.3446 7.4183 20.2998 7.41576 20.2554 7.41078C 20.2451 7.40921 20.2348 7.4079 20.2245 7.40685C 20.209 7.40476 20.1937 7.40222 20.1784 7.39951C 20.1765 7.33958 20.1756 7.27982 20.1756 7.22023C 20.1756 6.25045 20.4168 5.29046 20.8732 4.44343C 20.8751 4.44002 20.877 4.4367 20.8784 4.43417C 20.8843 4.42342 21.5102 3.32897 22.415 2.61579C 22.4169 2.6143 22.4196 2.6122 22.4196 2.6122C 23.4377 1.81777 24.6576 1.39788 25.9476 1.39788C 26.8202 1.39788 27.6585 1.5893 28.439 1.96682C 28.4525 1.97337 28.4725 1.98255 28.4986 1.99417C 29.2692 2.33944 29.8609 2.89825 30.2238 3.30983C 30.2278 3.31455 30.2318 3.31918 30.236 3.3239C 30.8899 4.05578 31.3469 4.93749 31.5676 5.88849C 31.3409 6.14745 31.0132 6.3013 30.6675 6.3013ZM 19.9458 24.1841C 21.5159 23.2521 22.5721 21.5293 22.5721 19.5626C 22.5721 18.6775 22.3581 17.8418 21.9799 17.1054C 21.9663 17.0744 21.9508 17.045 21.9335 17.017C 21.0339 15.3436 19.2765 14.2046 17.2604 14.2046C 15.2438 14.2046 13.486 15.3439 12.5867 17.0182C 12.5699 17.0454 12.5548 17.0742 12.5415 17.1042C 12.1628 17.8409 11.9488 18.677 11.9488 19.5626C 11.9488 21.529 13.0044 23.2514 14.5741 24.1834C 12.6311 25.1966 11.4003 27.2078 11.4003 29.4336L 11.4003 31.9828C 11.4003 32.2218 11.5213 32.4441 11.7211 32.5725L 16.8884 35.8907C 17.0019 35.9636 17.1311 36 17.2605 36C 17.389 36 17.5175 35.964 17.6305 35.8919L 22.81 32.5911C 23.012 32.4624 23.1339 32.2379 23.1328 31.9969L 23.1206 29.4303C 23.11 27.1993 21.8806 25.1947 19.9458 24.1841ZM 17.2604 15.6025C 18.4664 15.6025 19.547 16.1537 20.2678 17.0197C 19.3341 17.2896 18.3102 17.4304 17.2605 17.4304C 16.2105 17.4304 15.1865 17.2896 14.2529 17.0197C 14.9737 16.1537 16.0544 15.6025 17.2604 15.6025ZM 13.3345 19.5626C 13.3345 19.1085 13.4106 18.6719 13.5507 18.2654C 14.6941 18.6348 15.9629 18.8282 17.2605 18.8282C 18.5578 18.8282 19.8264 18.6348 20.97 18.2654C 21.1101 18.6719 21.1863 19.1085 21.1863 19.5626C 21.1863 21.7461 19.4252 23.5227 17.2604 23.5227C 15.0957 23.5227 13.3345 21.7461 13.3345 19.5626ZM 18.4903 24.7756C 18.4037 25.4368 17.8287 25.8838 17.3085 25.8838L 17.2242 25.8838C 16.6732 25.8838 16.0614 25.4138 15.9821 24.7637C 16.3916 24.8661 16.8199 24.9206 17.2603 24.9206C 17.6835 24.9206 18.0954 24.8703 18.4903 24.7756ZM 17.2618 34.4735L 12.786 31.5993L 12.786 29.4337C 12.786 27.8968 13.5559 26.4935 14.8019 25.6665C 15.2349 26.6631 16.2556 27.2817 17.2242 27.2817L 17.3085 27.2817C 18.3542 27.2817 19.2785 26.5952 19.6778 25.6415C 20.9419 26.4636 21.7273 27.878 21.7347 29.437L 21.7451 31.6163L 17.2618 34.4735ZM 12.2848 15.7124C 12.4868 15.3845 12.387 14.9535 12.062 14.7498C 11.8511 14.6175 11.6323 14.4975 11.4078 14.3908C 12.264 13.9492 13.0215 13.3167 13.6227 12.5256C 13.8703 12.6123 14.1362 12.6595 14.4126 12.6595C 15.7441 12.6595 16.8274 11.5668 16.8274 10.2237L 16.8274 8.48672C 16.8274 6.27876 15.9912 4.18762 14.473 2.59866C 12.9591 1.01434 10.9266 0.0940076 8.75005 0.00716414L 8.75005 0.00716414C 8.56089 -0.000174735 8.3842 -0.00192209 8.21106 0.00235893C 6.04419 0.055129 4.00021 0.939813 2.45565 2.49338C 0.872104 4.0861 0 6.21463 0 8.4868L 0 10.2238C 0 11.5669 1.08327 12.6596 2.41485 12.6596C 2.69132 12.6596 2.95705 12.6125 3.20459 12.5258C 3.86691 13.3972 4.71884 14.0761 5.68362 14.5195C 3.54558 15.6537 2.22318 17.8492 2.22318 20.2805L 2.22318 26.0017C 2.22318 26.2384 2.34201 26.4591 2.53897 26.588L 8.82489 30.7022C 8.94138 30.7785 9.07208 30.8149 9.20139 30.8149C 9.42823 30.8149 9.65065 30.7026 9.78326 30.4964C 9.99156 30.1725 9.90019 29.7397 9.5792 29.5296L 3.60898 25.622L 3.60898 20.2805C 3.60898 18.6633 4.3555 17.1785 5.6061 16.2203C 6.035 17.4758 7.13637 18.4191 8.35415 18.4191L 8.45756 18.4191C 9.78014 18.4191 10.8358 17.2115 11.2075 15.8624C 11.2488 15.8867 11.2898 15.9116 11.3304 15.937C 11.6556 16.1409 12.0828 16.0402 12.2848 15.7124ZM 4.12857 5.9465C 3.68061 6.71394 3.44381 7.59233 3.44381 8.4868L 3.44381 10.2238C 3.44381 10.5549 3.28929 10.8503 3.04912 11.0405C 3.0285 11.054 3.00884 11.0685 2.99013 11.0839C 2.82583 11.1962 2.62774 11.2617 2.41476 11.2617C 1.84736 11.2617 1.3858 10.7961 1.3858 10.2238L 1.3858 8.48672C 1.3858 4.60646 4.39854 1.49355 8.24424 1.39972C 8.38801 1.39613 8.53569 1.39771 8.69575 1.40391C 12.4784 1.55514 15.4415 4.66622 15.4415 8.48672L 15.4415 10.2237C 15.4415 10.796 14.9799 11.2616 14.4125 11.2616C 14.1995 11.2616 14.0013 11.196 13.8369 11.0837C 13.8183 11.0684 13.7987 11.054 13.7782 11.0405C 13.538 10.8503 13.3834 10.5548 13.3834 10.2237L 13.3834 8.48672C 13.3834 6.01963 11.5614 3.88768 9.14527 3.52764C 8.95533 3.49916 8.76227 3.55176 8.61217 3.6725C 8.46207 3.79324 8.36827 3.9713 8.3532 4.16438C 8.31517 4.65294 8.22735 5.13468 8.09145 5.60219L 4.72559 5.60219C 4.48022 5.60219 4.25303 5.73315 4.12857 5.9465ZM 8.45756 17.0212L 8.35415 17.0212C 7.57082 17.0212 6.80196 16.062 6.80196 15.0846C 6.80196 15.0243 6.79425 14.965 6.77953 14.9081C 7.30579 15.0431 7.85379 15.1135 8.41374 15.1135C 8.94381 15.1135 9.46331 15.0504 9.96367 14.9292C 9.91656 15.9456 9.15402 17.0212 8.45756 17.0212ZM 8.41374 13.7156C 6.79876 13.7156 5.30824 12.9739 4.32899 11.707C 4.6427 11.2959 4.82953 10.7813 4.82953 10.2237L 4.82953 8.48672C 4.82953 7.97186 4.93814 7.46469 5.14584 7.00007L 8.59155 7.00007C 8.88162 7.00007 9.14094 6.81791 9.2415 6.5434C 9.41472 6.07074 9.54542 5.58314 9.63238 5.08654C 11.0197 5.5959 11.9977 6.95123 11.9977 8.48672L 11.9977 10.2237C 11.9977 10.7813 12.1845 11.2959 12.4983 11.707C 11.5192 12.974 10.0287 13.7156 8.41374 13.7156Z"/>
</svg>