<svg width="33" height="33" viewBox="0 0 33 33" version="1.1" xmlns="http://www.w3.org/2000/svg" xmlns:xlink="http://www.w3.org/1999/xlink">
<path id="path0_fill" d="M 24.8063 6.25962C 19.1021 1.69935 10.7812 2.62677 6.2209 8.33091C 1.66063 14.0351 2.58805 22.356 8.29219 26.9163C 8.5962 27.1493 9.03085 27.0961 9.26981 26.7967L 24.9399 7.24428C 25.1745 6.93534 25.1147 6.4948 24.8063 6.25962ZM 13.5953 19.1445L 10.9719 19.1445C 10.9015 19.1445 10.8593 19.1445 10.8593 19.1445L 10.8593 16.4438C 10.894 16.4129 10.9397 16.3976 10.9859 16.4016L 15.7967 16.4016L 13.5953 19.1445ZM 16.9079 14.9949L 10.9719 14.9949C 10.1651 14.9671 9.48696 15.5951 9.45267 16.4016L 9.45267 19.1234C 9.48696 19.9299 10.1651 20.5579 10.9719 20.5301L 12.4699 20.5301L 8.62275 25.3619C 3.69868 21.0855 3.17365 13.627 7.45004 8.70297C 9.24238 6.63924 11.6951 5.26116 14.39 4.80374C 17.5417 4.2591 20.7793 5.02089 23.3574 6.91371L 16.9079 14.9949Z"/>
<path id="path1_fill" d="M 29.61 14.2916L 29.6522 14.3057C 29.2682 12.0866 28.324 10.0022 26.9092 8.25004C 26.7721 8.08089 26.5643 7.9848 26.3466 7.98981C 26.1337 7.98911 25.932 8.08476 25.798 8.25004L 10.3951 27.2398C 10.1504 27.5414 10.1964 27.9844 10.4979 28.2291C 10.5358 28.2599 10.5768 28.2866 10.6202 28.3089C 17.1268 31.6071 25.0752 29.0062 28.3734 22.4996C 29.6569 19.9675 30.0905 17.0893 29.61 14.2916ZM 20.9028 16.5633L 21.0294 16.4016L 25.2494 16.4016C 25.3197 16.4016 25.3619 16.4016 25.3619 16.4016L 25.3619 19.1023C 25.3295 19.1321 25.2863 19.1474 25.2423 19.1445L 20.8888 19.1445L 20.9028 16.5633ZM 19.4962 18.3006L 19.4962 19.1445L 18.7928 19.1445L 19.4962 18.3006ZM 23.3645 26.2612C 21.9408 27.2473 20.3176 27.908 18.61 28.1963C 16.4049 28.5756 14.1373 28.3144 12.0761 27.4438L 17.6605 20.5512L 25.2283 20.5512C 26.035 20.579 26.7132 19.951 26.7475 19.1445L 26.7475 16.4086C 26.7132 15.6022 26.035 14.9742 25.2283 15.002L 22.1266 15.002L 26.3466 9.83955C 30.0578 15.1977 28.7227 22.55 23.3645 26.2612Z"/>
<path id="path2_fill" d="M 16.5 0C 7.38728 0 0 7.38728 0 16.5C 0 25.6127 7.38728 33 16.5 33C 25.6127 33 33 25.6127 33 16.5C 32.9884 7.39212 25.6079 0.0116049 16.5 0ZM 16.5 31.5934C 8.16419 31.5934 1.40665 24.8358 1.40665 16.5C 1.40665 8.16419 8.16419 1.40665 16.5 1.40665C 24.8358 1.40665 31.5934 8.16419 31.5934 16.5C 31.5856 24.8326 24.8326 31.5856 16.5 31.5934Z"/>
<path id="path3_fill" d="M 9.57595 10.052C 9.39678 9.7257 8.9943 9.59558 8.65794 9.75515L 8.65794 9.74108C 7.15994 10.4905 6.3891 12.1846 6.80819 13.8063C 6.37494 14.419 6.18672 15.1717 6.2807 15.9163C 6.43086 16.7558 6.89004 17.5085 7.56778 18.0262C 7.87065 18.2547 8.30003 18.2017 8.53837 17.9067C 8.77143 17.5959 8.70849 17.1551 8.39771 16.922C 8.03118 16.6175 7.78247 16.1946 7.69438 15.7264C 7.65183 15.2402 7.80929 14.7576 8.13044 14.3901C 8.27497 14.2046 8.31717 13.9591 8.24297 13.736C 7.85861 12.6905 8.31023 11.5222 9.29796 11.0071C 9.63846 10.8201 9.76286 10.3925 9.57595 10.052Z"/>
</svg>