<svg width="33" height="33" viewBox="0 0 33 33" xmlns="http://www.w3.org/2000/svg"><path d="M21.8372 21.2978C21.5443 20.8994 21.3325 20.4382 21.2378 19.9294H8.63736C8.46683 19.9294 8.32817 19.7862 8.32817 19.6109V9.6869C8.32817 9.51117 8.46683 9.36843 8.63736 9.36843H25.1209C25.2916 9.36843 25.4301 9.51117 25.4301 9.6869V16.1713C25.9432 16.3501 26.3968 16.6512 26.7582 17.0515V9.6869C26.7582 8.75657 26.0236 8 25.1209 8H8.63736C7.73464 8 7 8.75657 7 9.6869V19.6109C7 20.5411 7.73464 21.2978 8.63736 21.2978H14.0472V22.3507C13.006 22.4669 12.1904 23.3673 12.1904 24.4703V25.0989C12.1904 25.3825 12.4134 25.6122 12.6884 25.6122H21.0705C21.3456 25.6122 21.5685 25.3825 21.5685 25.0989V24.4703C21.5685 23.3668 20.7514 22.4662 19.7095 22.3504V21.2978H21.8372ZM20.5724 24.4703V24.5858H13.1864V24.4703C13.1864 23.8548 13.6728 23.3534 14.2702 23.3534H19.488C20.0859 23.3534 20.5724 23.8548 20.5724 24.4703Z M22.9031 22.2301V25.8091C22.9031 25.8895 22.9521 25.9608 23.0247 25.9884C23.0456 25.9963 23.0672 26 23.0881 26C23.1423 26 23.1947 25.9764 23.2306 25.9323L24.2601 24.6726C24.296 24.6298 24.3469 24.6049 24.4026 24.6049C24.4568 24.6049 24.5092 24.6298 24.5444 24.6726L25.5739 25.9323C25.6098 25.9764 25.6614 26 25.7156 26C25.7366 26 25.7581 25.9963 25.7791 25.9882C25.8523 25.9608 25.9006 25.8895 25.9006 25.8091V22.2301C25.451 22.4762 24.9457 22.6284 24.402 22.6284C23.8574 22.6284 23.3527 22.4759 22.9031 22.2301Z M24.402 16.6289C22.9673 16.6289 21.8045 17.8273 21.8045 19.3054C21.8045 20.784 22.9673 21.982 24.402 21.982C25.8365 21.982 27 20.784 27 19.3054C27 17.8273 25.8365 16.6289 24.402 16.6289ZM25.8117 18.9771L25.2529 19.5381C25.2223 19.5694 25.2077 19.6145 25.215 19.6589L25.3463 20.4509C25.3548 20.5024 25.3338 20.5544 25.2934 20.585C25.2522 20.6156 25.1987 20.6197 25.1529 20.595L24.4634 20.2213C24.4247 20.2008 24.3784 20.2008 24.3398 20.2213L23.6502 20.595C23.6044 20.6196 23.5508 20.6156 23.5097 20.585C23.4691 20.5544 23.4483 20.5024 23.4567 20.4509L23.5881 19.6589C23.5953 19.6145 23.5808 19.5694 23.5502 19.5381L22.9914 18.9771C22.9555 18.9408 22.9418 18.8866 22.958 18.8368C22.9736 18.7873 23.0149 18.7513 23.0653 18.7434L23.8364 18.628C23.8804 18.6216 23.9176 18.5933 23.9372 18.5529L24.2822 17.8324C24.3052 17.7856 24.351 17.7559 24.402 17.7559C24.4522 17.7559 24.4979 17.7856 24.5209 17.8324L24.8659 18.5529C24.8857 18.5933 24.9228 18.6215 24.9667 18.628L25.738 18.7434C25.7881 18.7513 25.8295 18.7873 25.845 18.8368C25.8615 18.8866 25.8477 18.9408 25.8117 18.9771Z M1 1.0004V0.500401H0.5V1.0004H1ZM32 1H32.5V0.5L32 0.5L32 1ZM32 32V32.5H32.5V32H32ZM1 32L0.5 32L0.5 32.5L1 32.5L1 32ZM1.5 8.4404V1.0004H0.5V8.4404H1.5ZM1 1.5004H8.44V0.500401H1V1.5004ZM24.56 1.5L32 1.5L32 0.5L24.56 0.5L24.56 1.5ZM31.5 1V8.44H32.5V1H31.5ZM31.5 24.56V32H32.5V24.56H31.5ZM32 31.5H24.56V32.5H32V31.5ZM8.44 31.5L1 31.5L1 32.5L8.44 32.5L8.44 31.5ZM1.5 32L1.5 24.56L0.500001 24.56L0.5 32L1.5 32Z"/></svg>