<svg width="56" height="56" viewBox="0 0 56 56" version="1.1" xmlns="http://www.w3.org/2000/svg" xmlns:xlink="http://www.w3.org/1999/xlink">
<path id="path0_fill" fill-rule="evenodd" d="M 27 35.5L 27 20L 29 20L 29 35.5L 27 35.5Z"/>
<path id="path1_fill" fill-rule="evenodd" d="M 35.75 28.75L 20.25 28.75L 20.25 26.75L 35.75 26.75L 35.75 28.75Z"/>
<path id="path2_fill" fill-rule="evenodd" d="M 0 6.55671e-07L 15 6.55671e-07L 15 2L 2 2L 2 15L 0 15L 0 6.55671e-07Z"/>
<path id="path3_fill" fill-rule="evenodd" d="M 56 6.55671e-07L 56 15L 54 15L 54 2L 41 2L 41 0L 56 6.55671e-07Z"/>
<path id="path4_fill" fill-rule="evenodd" d="M 56 56L 41 56L 41 54L 54 54L 54 41L 56 41L 56 56Z"/>
<path id="path5_fill" fill-rule="evenodd" d="M 0 56L 1.96701e-06 41L 2 41L 2 54L 15 54L 15 56L 0 56Z"/>
</svg>
