<svg width="125" height="142" viewBox="0 0 125 142" xmlns="http://www.w3.org/2000/svg">
<path d="M0 0L12 126.5L61 141.5L112 126.5L125 0H0Z"/>
<path d="M0 4.65214e-05H26.4984V15.3016H11.5L12.5 35.4122H26.4984V87L6 81L4.76231 65.5L18.8613 66.8895V51.1507L3.88116 49.8392L0 4.65214e-05Z" transform="translate(14 28)" fill="#ffffff"/>
<path fill-rule="evenodd" clip-rule="evenodd" d="M61.452 0L32.373 4.65214e-05L34 77.5L53.8151 78.6934V90L61.452 88V71.6985H59.6897L61.452 0ZM40.3036 23.1709H50.8778V56.8343H40.3036V23.1709Z" transform="translate(14 28)" fill="#ffffff"/>
<path d="M68.5 4.65214e-05H81.5L79 66.8895L92 65.5L90.5 81L66.5 87L68.5 4.65214e-05Z" transform="translate(14 28)" fill="#ffffff"/>
</svg>
