<svg width="125" height="142" viewBox="0 0 125 142" xmlns="http://www.w3.org/2000/svg"><path d="M0 0L12 126.5L61 141.5L112 126.5L125 0H0Z"/><path fill-rule="evenodd" clip-rule="evenodd" d="M68.5903 34.5089L71.1047 24.4515L84.6529 10C85.5561 10 87.4529 10.6323 87.8142 13.1613C87.0916 13.8838 79.0831 22.1934 75.1692 26.2579L73.1135 34.7737C81.5351 35.4241 87.3625 36.8264 87.3625 38.4513C87.3625 40.6961 76.2419 42.5158 62.524 42.5158C48.8061 42.5158 37.6855 40.6961 37.6855 38.4513C37.6855 36.2066 48.8061 34.3869 62.524 34.3869C64.6166 34.3869 66.6488 34.4292 68.5903 34.5089ZM67.4918 38.9029C67.0402 39.0535 66.2273 39.4449 66.5885 39.8062C67.0402 40.2578 68.3949 40.7094 69.2981 40.7094C70.653 40.7094 72.911 40.2578 72.911 39.8062C72.911 39.3903 72.5281 38.9744 72.1148 38.9112L72.0078 39.3545C72.0076 40.2578 66.5886 40.2578 67.4918 38.9029ZM41.3207 75.8551L43.1048 93.5476C46.7177 95.8056 54.1269 96.8756 62.524 96.9372C68.5451 96.9814 76.9755 95.8056 81.4916 93.5476C81.9109 89.0743 82.6593 81.9328 83.5065 74.1163C81.9801 75.5587 78.7816 76.6874 76.5239 75.9348C73.8142 75.0316 78.7819 70.0638 80.1367 68.7091C81.4916 67.3544 80.1367 67.8059 77.8787 68.7091C76.0165 69.454 73.8472 74.8059 72.8905 77.1662L72.8905 77.1663C72.6871 77.668 72.5386 78.0345 72.4594 78.1929C72.0078 79.0961 70.2014 82.709 69.7497 83.1606C69.2981 83.6122 68.3949 83.6122 68.3949 82.709C68.3949 81.9864 68.696 81.2036 68.8465 80.9025L71.5562 74.1284C70.3519 74.8811 67.6723 76.3864 66.5885 76.3864C65.5046 76.3864 65.2337 75.4832 65.2337 75.0316C64.1498 76.4768 62.6745 76.537 62.0724 76.3864C61.4703 76.2359 60.3563 75.4832 60.7176 73.6768C59.8144 75.0317 57.1047 76.838 55.7498 76.3864C54.3951 75.9349 54.3951 75.4833 54.3951 73.2258V73.2252C54.3951 71.6937 55.4337 69.7468 56.243 68.2298C56.627 67.51 56.9594 66.887 57.1047 66.451C57.466 65.3672 58.1585 65.3973 58.4595 65.5478C59.3237 66.7001 58.5342 68.2198 57.6146 69.9898C57.0926 70.9947 56.5286 72.0803 56.2015 73.2252C55.5629 75.4604 57.8592 73.406 59.419 72.0105C60.0654 71.4323 60.5853 70.9671 60.7176 70.9671C60.8836 70.9671 61.2936 70.1129 61.7908 69.0772C62.6461 67.2953 63.7592 64.9766 64.3304 65.5478C64.7735 65.9909 64.2386 67.3031 63.6319 68.7917C63.0017 70.338 62.2939 72.0747 62.524 73.2252C62.8853 75.0316 64.782 73.9779 65.6853 73.2252C66.739 69.9134 69.0272 62.8382 69.7497 61.0317C70.653 58.7737 71.5562 57.4189 72.4594 57.4189C73.182 57.4189 73.3626 58.3221 73.3626 58.7737C71.8572 62.236 68.6659 69.7929 67.9433 72.3219L67.8659 72.5924C67.5573 73.67 67.4417 74.0738 67.5429 74.1385C67.6036 74.1773 67.7421 74.0944 67.9637 73.9617C68.3276 73.7439 68.9153 73.3921 69.7497 73.2252C72.0078 72.7736 74.2658 68.7091 74.2658 67.3543C74.2658 65.9994 76.0723 65.5478 76.0723 66.451V68.2575C76.9755 67.5048 79.0529 65.9091 80.1367 65.5478C81.4916 65.0962 82.8464 65.0962 82.3948 68.2575C82.1252 70.1447 80.407 71.5491 79.1619 72.5668C78.3215 73.2537 77.6967 73.7644 77.8787 74.1284C78.3303 75.0316 82.3948 72.3219 83.7496 70.9671C83.7878 70.929 83.8249 70.8933 83.8609 70.8601C85.1199 59.3351 86.5196 46.9704 87.3625 39.8062C84.2012 42.0642 73.9458 43.6034 62.524 43.4042C55.045 43.2738 40.8468 42.9674 37.6855 39.8062L40.5487 68.1991C40.5712 68.1185 40.5936 68.0363 40.6168 67.9517C40.9497 66.7329 41.4173 65.0214 44.008 60.5801C47.1693 55.1608 49.4273 55.1608 51.2337 55.1608C53.0402 55.1608 55.7498 57.8704 55.7498 59.2253C55.7498 60.5801 54.8467 60.5801 53.9436 60.5801H53.9434C53.6009 60.5801 53.5182 60.3204 53.3997 59.9487C53.2057 59.3401 52.916 58.4312 51.2337 57.8704C48.5241 56.9672 43.5563 65.5477 42.6531 70.0638C41.7499 74.5799 43.5563 74.5799 47.1692 72.3219C50.0595 70.5154 51.3842 66.451 51.6853 64.6445C53.4916 63.1993 53.6423 64.6446 53.4918 65.5478L50.7822 75.0316C50.3306 76.838 49.1564 80.3606 48.0725 79.9993C46.9887 79.638 48.5241 75.3327 49.4274 73.2252C48.3736 74.4295 45.5435 76.7477 42.6531 76.3864C42.1139 76.319 41.6753 76.1309 41.3207 75.8551ZM44.0081 95.354C46.7177 97.612 54.6734 98.3365 62.524 98.3969C68.2211 98.4407 76.9755 97.612 81.0399 95.354L77.4271 100.773L76.5239 118.838C74.2658 122.902 51.5048 123.173 48.9758 118.838L47.6209 100.773L44.0081 95.354Z" fill="white"/></svg>