<svg width="125" height="142" viewBox="0 0 125 142" xmlns="http://www.w3.org/2000/svg">
<path d="M0 0L12 126.5L61 141.5L112 126.5L125 0H0Z"/>
<path d="M79.8872 20.2873C80.8285 17.4484 81.2997 14.5055 81.2997 11.4575C81.2997 7.39302 80.4099 3.57373 78.6326 -1.34824e-07C74.9039 -1.34824e-07 71.61 0.683858 68.751 2.04992C65.8935 3.41634 62.6347 5.53602 58.976 8.40896C54.3755 7.28791 49.4943 6.72739 44.3368 6.72739C38.6898 6.72739 33.3044 7.34093 28.1809 8.56709C24.4518 5.62365 21.1579 3.46071 18.2997 2.07642C15.4415 0.692141 12.1304 0.000183844 8.3657 0.000183844C6.58811 3.57391 5.6994 7.39339 5.6994 11.4577C5.6994 14.5412 6.16967 17.5195 7.11093 20.392C2.37001 25.9634 0 32.9004 0 41.2045C0 48.4931 1.08007 54.2911 3.2415 58.6013C4.39207 60.8779 5.8904 62.8926 7.73795 64.6451C9.58477 66.3964 11.6936 67.8164 14.064 68.9028C16.4347 69.9882 18.8218 70.8911 21.2271 71.6086C23.6323 72.3265 26.2898 72.8526 29.2004 73.1842C32.1108 73.5184 34.6813 73.7371 36.912 73.843C39.1426 73.9468 41.617 74 44.3366 74C47.5428 74 50.4523 73.9205 53.0676 73.7638C55.6821 73.6064 58.6702 73.2202 62.0342 72.6085C65.3976 71.995 68.3606 71.1622 70.9231 70.1115C73.485 69.0608 75.9429 67.5537 78.2955 65.5921C80.6481 63.6293 82.4861 61.2998 83.8114 58.6015C85.9364 54.2567 87 48.4574 87 41.2047C86.9987 32.8655 84.6285 25.8933 79.8872 20.2873ZM73.6154 58.5213C72.4998 60.8169 71.0879 62.6198 69.3803 63.9351C67.6719 65.2492 65.546 66.2999 63.0018 67.0893C60.4564 67.8773 58.0177 68.3938 55.6821 68.6383C53.3458 68.8839 50.75 69.0061 47.8911 69.0061H39.1073C36.2493 69.0061 33.652 68.8839 31.317 68.6383C28.9817 68.3938 26.542 67.8773 23.9973 67.0893C21.4535 66.2999 19.3276 65.2492 17.6192 63.9351C15.9108 62.6196 14.4993 60.8169 13.3839 58.5213C12.2687 56.2256 11.7109 53.5371 11.7109 50.4541C11.7109 46.2485 12.9134 42.6742 15.3188 39.7324C17.7239 36.789 20.9827 35.3178 25.0953 35.3178C26.5947 35.3178 29.9931 35.6854 35.2911 36.4213C37.7657 36.8066 40.5021 36.9994 43.4994 36.9994C46.4975 36.9994 49.2336 36.8072 51.7078 36.4213C57.0764 35.6852 60.4738 35.3178 61.9038 35.3178C66.0162 35.3178 69.275 36.7897 71.6801 39.7324C74.0855 42.6755 75.2873 46.2485 75.2873 50.4541C75.2873 53.5377 74.7295 56.2276 73.6154 58.5213Z" transform="translate(19 26)" fill="white"/>
<path d="M10.4832 1.78778C9.41996 0.595865 8.15694 -2.47178e-07 6.69267 -2.47178e-07C5.22804 -2.47178e-07 3.96484 0.596602 2.9018 1.78778C1.83931 2.97841 1.08941 4.31024 0.653939 5.7803C0.217552 7.25331 -4.02375e-07 8.6895 -4.02375e-07 10.0918C-4.02375e-07 11.4927 0.218101 12.9291 0.653939 14.4019C1.08886 15.8729 1.83839 17.2039 2.9018 18.3944C3.96539 19.5863 5.22804 20.1824 6.69267 20.1824C8.15694 20.1824 9.42051 19.5852 10.4832 18.3944C11.546 17.2038 12.2956 15.8729 12.731 14.4019C13.1669 12.9291 13.385 11.4927 13.385 10.0918C13.385 8.69079 13.1674 7.25331 12.731 5.7803C12.2954 4.31079 11.5466 2.97952 10.4832 1.78778Z" transform="translate(39.0757 66.3623)" fill="white"/>
<path d="M10.483 1.78778C9.42014 0.595865 8.15676 -2.47178e-07 6.69286 -2.47178e-07C5.2295 -2.47178e-07 3.96539 0.596602 2.90198 1.78778C1.83913 2.97841 1.08978 4.31024 0.654857 5.7803C0.218103 7.25331 -2.28012e-06 8.6895 -2.28012e-06 10.0918C-2.28012e-06 11.4927 0.218103 12.9291 0.654857 14.4019C1.08978 15.8729 1.83931 17.2039 2.90198 18.3944C3.96558 19.5863 5.2295 20.1824 6.69286 20.1824C8.15676 20.1824 9.42033 19.5852 10.483 18.3944C11.5453 17.2038 12.2952 15.8729 12.7314 14.4019C13.1671 12.9291 13.385 11.4927 13.385 10.0918C13.385 8.69079 13.1671 7.25331 12.7314 5.7803C12.2954 4.31079 11.5453 2.97952 10.483 1.78778Z" transform="translate(72.5376 66.3623)" fill="white"/>
</svg>
