<svg width="125" height="142" viewBox="0 0 125 142" xmlns="http://www.w3.org/2000/svg">
<path d="M0 0L12 126.5L61 141.5L112 126.5L125 0H0Z"/>
<path d="M27 0V16L8 15L12 67L27 70V87.5L6.5 81L0 0H27Z" transform="translate(13 28)" fill="#ffffff"/>
<path d="M33 89V0H42.5L47.5 44L52.5 0H62.5V89L55 91V43L47.5 65L40.5 43V91L33 89Z" transform="translate(13 28)" fill="#ffffff"/>
<path d="M98.5 0L97 15L75.5 16V38.5L94.5 36.5L91.5 81L67.5 88.5V70L84 67L85 50L67.5 53V0H98.5Z" transform="translate(13 28)" fill="#ffffff"/>
</svg>
