<svg width="27" height="27" viewBox="0 0 27 27" version="1.1" xmlns="http://www.w3.org/2000/svg" xmlns:xlink="http://www.w3.org/1999/xlink">
<path id="path0_fill" d="M 19.2471 12.6549C 18.6261 12.2569 17.8701 11.9149 16.9977 11.6388C 16.166 11.3774 15.2314 11.1363 14.2288 10.9239C 13.4539 10.7471 12.8873 10.6105 12.5495 10.5177C 12.2538 10.4366 11.9568 10.3234 11.6664 10.1804C 11.4292 10.0625 11.2464 9.9283 11.1251 9.78355C 11.0471 9.68839 11.0139 9.5875 11.0139 9.44447C 11.0139 9.27875 11.0707 9.05228 11.5108 8.7675C 11.945 8.48618 12.5537 8.34325 13.3185 8.34325C 14.3914 8.34325 14.844 8.56209 15.0173 8.69222C 15.3746 8.96011 15.6904 9.34876 15.9678 9.87109C 16.2701 10.3835 16.5422 10.736 16.822 10.9788C 17.1804 11.2928 17.6696 11.4521 18.2747 11.4521C 18.9336 11.4521 19.5186 11.2104 19.9652 10.7523C 20.4041 10.3023 20.636 9.75667 20.636 9.17478C 20.636 8.62621 20.4827 8.0671 20.1805 7.51263C 19.8883 6.97686 19.4322 6.46797 18.8253 5.99995C 18.2291 5.54182 17.482 5.17296 16.6036 4.90335C 15.7371 4.63783 14.712 4.50298 13.5556 4.50298C 12.1094 4.50298 10.8241 4.70494 9.73682 5.10231C 8.59519 5.5184 7.70261 6.13353 7.08154 6.93137C 6.4463 7.749 6.12389 8.69558 6.12389 9.74496C 6.12389 10.8433 6.43507 11.7847 7.05016 12.5446C 7.6322 13.2624 8.42188 13.8349 9.39665 14.244C 10.2946 14.6211 11.416 14.9525 12.7339 15.2303C 13.6502 15.4194 14.3919 15.6009 14.9385 15.769C 15.3887 15.9067 15.7536 16.1028 16.0233 16.3514C 16.2239 16.5364 16.3126 16.7611 16.3126 17.0791C 16.3126 17.3557 16.2381 17.7229 15.6584 18.1127C 15.132 18.467 14.4103 18.6473 13.5118 18.6473C 12.8588 18.6473 12.3418 18.561 11.9763 18.39C 11.6219 18.2248 11.3481 18.0188 11.1636 17.7796C 10.9406 17.4883 10.7259 17.1113 10.5277 16.6649C 10.2959 16.1274 9.9995 15.7042 9.6434 15.4048C 9.23641 15.0669 8.74374 14.8959 8.17706 14.8959C 7.51817 14.8959 6.93373 15.1131 6.48716 15.5257C 6.02992 15.9511 5.7874 16.4945 5.7874 17.0979C 5.7874 17.9314 6.08791 18.7823 6.68118 19.6261C 7.25439 20.4402 8.0056 21.0974 8.91704 21.5829C 10.161 22.2349 11.7373 22.5658 13.6029 22.5658C 15.1556 22.5658 16.5268 22.3259 17.6785 21.8532C 18.8721 21.3641 19.8002 20.6662 20.4366 19.7779C 21.0796 18.8785 21.4062 17.8526 21.4062 16.7291C 21.4062 15.7907 21.2121 14.9742 20.8294 14.3041C 20.4508 13.6424 19.9185 13.088 19.2471 12.6549ZM 19.4695 19.105C 18.9643 19.8106 18.2084 20.3726 17.223 20.7758C 16.2168 21.189 14.9983 21.3985 13.6023 21.3985C 11.9319 21.3985 10.5424 21.1143 9.47479 20.5546C 8.73122 20.1584 8.11788 19.622 7.65236 18.962C 7.19926 18.317 6.96972 17.6897 6.96972 17.0991C 6.96972 16.8137 7.07381 16.5838 7.29562 16.3777C 7.52452 16.1671 7.81259 16.0644 8.17642 16.0644C 8.46035 16.0644 8.691 16.1408 8.87857 16.2967C 9.0909 16.4753 9.28022 16.7531 9.4411 17.1283C 9.67893 17.6646 9.94151 18.1204 10.2208 18.4858C 10.5225 18.8773 10.943 19.2007 11.47 19.4464C 11.9952 19.6921 12.682 19.8165 13.5113 19.8165C 14.6523 19.8165 15.5987 19.5678 16.325 19.0782C 17.1017 18.5559 17.4957 17.8835 17.4957 17.0805C 17.4957 16.4397 17.2727 15.9086 16.8314 15.5001C 16.4292 15.1295 15.9104 14.8459 15.2905 14.6556C 14.7085 14.4764 13.93 14.2862 12.9795 14.09C 11.7379 13.8274 10.6886 13.5187 9.86107 13.1714C 9.06845 12.8381 8.43431 12.3817 7.97532 11.8168C 7.53289 11.2694 7.30814 10.5731 7.30814 9.74623C 7.30814 8.95956 7.54826 8.25217 8.02152 7.64294C 8.50361 7.02254 9.21929 6.53644 10.1491 6.19791C 11.1044 5.8483 12.2519 5.6715 13.5574 5.6715C 14.5949 5.6715 15.5022 5.78819 16.2546 6.01929C 16.9958 6.24631 17.6169 6.55034 18.0995 6.92156C 18.5768 7.2886 18.9265 7.67445 19.1406 8.06656C 19.3494 8.44886 19.4547 8.82235 19.4547 9.17541C 19.4547 9.45728 19.3435 9.70882 19.1152 9.94346C 18.8898 10.174 18.6153 10.2854 18.2764 10.2854C 18.0653 10.2854 17.7778 10.2545 17.6068 10.1039C 17.4282 9.94928 17.2212 9.67376 17.0041 9.30672C 16.6575 8.65481 16.2304 8.13602 15.7347 7.76362C 15.2077 7.36852 14.418 7.17655 13.3196 7.17655C 12.3205 7.17655 11.4935 7.38377 10.863 7.79222C 10.1792 8.23464 9.83254 8.79075 9.83254 9.44502C 9.83254 9.85583 9.95974 10.2177 10.2123 10.5235C 10.4412 10.7979 10.7524 11.0331 11.1386 11.2245C 11.4976 11.4019 11.8667 11.5426 12.2352 11.6429C 12.58 11.7381 13.1614 11.8787 13.973 12.0643C 14.9472 12.2709 15.8446 12.502 16.639 12.7518C 17.4103 12.9963 18.0716 13.2934 18.6034 13.6348C 19.1133 13.9633 19.5162 14.3812 19.7995 14.8785C 20.081 15.3722 20.2236 15.9955 20.2236 16.7314C 20.2219 17.608 19.9682 18.4069 19.4695 19.105ZM 26.2855 16.1694C 26.4559 15.336 26.5429 14.4846 26.5429 13.6354C 26.5429 6.61526 20.7538 0.904083 13.6379 0.904083C 12.9695 0.904083 12.3023 0.9543 11.6522 1.05464C 10.4656 0.36414 9.11575 0 7.7328 0C 3.46861 0 0 3.42228 0 7.62895C 0 8.90998 0.328297 10.1718 0.950562 11.2929C 0.805051 12.0696 0.731697 12.8569 0.731697 13.6354C 0.731697 20.6563 6.5214 26.3686 13.6378 26.3686C 14.3648 26.3686 15.09 26.3085 15.7974 26.19C 16.8686 26.7205 18.0629 27 19.2672 27C 23.5314 27 27 23.5783 27 19.3722C 27 18.2523 26.7599 17.1761 26.2855 16.1694ZM 19.2672 25.8334C 18.1877 25.8334 17.117 25.5684 16.1718 25.0672L 15.9878 24.9697L 15.7826 25.007C 15.0828 25.136 14.3611 25.2014 13.6372 25.2014C 7.17257 25.2014 1.9141 20.0125 1.9141 13.6354C 1.9141 12.8621 1.99454 12.079 2.15193 11.308L 2.19629 11.0892L 2.08216 10.8966C 1.49358 9.90796 1.1825 8.77749 1.1825 7.62895C 1.1825 4.06601 4.12116 1.16724 7.73225 1.16724C 8.96794 1.16724 10.1728 1.51041 11.2162 2.15941L 11.4085 2.27901L 11.6333 2.2405C 12.2863 2.12845 12.9606 2.07124 13.6379 2.07124C 20.1019 2.07124 25.3599 7.25891 25.3599 13.6354C 25.3599 14.4689 25.2682 15.3039 25.0878 16.1187L 25.0435 16.3195L 25.1358 16.5032C 25.5883 17.3997 25.8172 18.365 25.8172 19.3722C 25.817 22.9352 22.8784 25.8334 19.2672 25.8334Z"/>
</svg>