<svg width="30" height="25" viewBox="0 0 30 25" version="1.1" xmlns="http://www.w3.org/2000/svg" xmlns:xlink="http://www.w3.org/1999/xlink">
<path id="path0_fill" d="M 22.5742 5.02478L 10.2362 12.2554C 9.538 12.6655 9.20758 13.4755 9.43253 14.2247L 10.7666 18.6849C 10.8806 19.0652 11.2362 19.318 11.6454 19.318C 11.6682 19.318 11.6913 19.3172 11.7143 19.3156C 12.1518 19.2854 12.498 18.9753 12.5562 18.5621L 12.903 16.1165C 12.9498 15.7874 13.1164 15.4813 13.3718 15.2551L 23.5534 6.24966C 23.8611 5.9782 23.9017 5.53369 23.6482 5.21573C 23.3942 4.89749 22.9328 4.8152 22.5742 5.02478ZM 12.5577 14.4224C 12.1002 14.8276 11.8022 15.3752 11.7185 15.9642L 11.5503 17.1506L 10.5819 13.9129C 10.5032 13.6506 10.6191 13.367 10.8634 13.2235L 19.902 7.92659L 12.5577 14.4224Z"/>
<path id="path1_fill" d="M 29.5119 0.311506C 29.1264 0.000628233 28.5945 -0.0849523 28.1234 0.0882158L 0.88361 10.087C 0.344137 10.285 -0.00273763 10.7683 1.62783e-05 11.3183C 0.00282878 11.8688 0.354801 12.3495 0.897438 12.5429L 7.26013 14.8025L 9.74211 22.3975C 9.8784 22.815 10.2224 23.1394 10.6622 23.2653C 11.1018 23.3911 11.5765 23.3012 11.9313 23.025L 15.631 20.1553C 15.8086 20.0174 16.0623 20.0106 16.2478 20.1388L 22.9207 24.7485C 23.1607 24.9145 23.444 25 23.7306 25C 23.8985 25 24.0675 24.9707 24.2296 24.911C 24.6683 24.7496 24.9873 24.3918 25.0828 23.9541L 29.9712 1.58005C 30.0738 1.10894 29.8979 0.622885 29.5119 0.311506ZM 28.801 1.34895L 23.9126 23.723C 23.8949 23.8038 23.8337 23.8374 23.7988 23.8503C 23.7636 23.8633 23.6942 23.8776 23.6232 23.8284L 16.9501 19.2185C 16.6518 19.0124 16.3011 18.9101 15.951 18.9101C 15.5691 18.9101 15.1877 19.0319 14.876 19.2736L 11.1755 22.144C 11.1097 22.1953 11.0413 22.1862 11.0065 22.1762C 10.9715 22.1661 10.9089 22.1377 10.8835 22.0599L 8.31447 14.1984C 8.25957 14.0304 8.12597 13.8961 7.95277 13.8345L 1.31615 11.4777C 1.21677 11.4423 1.19562 11.3685 1.19533 11.3128C 1.19504 11.2576 1.21543 11.1842 1.31386 11.1481L 28.5537 1.1493C 28.5535 1.14936 28.5538 1.14925 28.5537 1.1493C 28.6422 1.1168 28.7081 1.15399 28.7393 1.17907C 28.7705 1.20444 28.8203 1.26019 28.801 1.34895Z"/>
<path id="path2_fill" d="M 25.0479 12.2848C 24.7253 12.2181 24.4071 12.413 24.3371 12.7199L 24.2463 13.118C 24.1763 13.4249 24.381 13.7277 24.7035 13.7943C 24.7463 13.8031 24.7889 13.8074 24.8309 13.8074C 25.106 13.8074 25.3536 13.6255 25.4144 13.3593L 25.5052 12.9612C 25.5752 12.6543 25.3704 12.3515 25.0479 12.2848Z"/>
<path id="path3_fill" d="M 24.4501 14.9042C 24.1271 14.8376 23.8092 15.0323 23.7392 15.3393L 22.3647 21.3634C 22.2947 21.6703 22.4994 21.9731 22.8219 22.0397C 22.8647 22.0486 22.9073 22.0528 22.9493 22.0528C 23.2244 22.0528 23.4719 21.8709 23.5327 21.6047L 24.9073 15.5805C 24.9773 15.2736 24.7726 14.9708 24.4501 14.9042Z"/>
</svg>