<svg width="33" height="24" viewBox="0 0 33 24" version="1.1" xmlns="http://www.w3.org/2000/svg" xmlns:xlink="http://www.w3.org/1999/xlink">
<path id="path0_fill" d="M 30.9283 17.9449C 30.2243 16.8988 29.4289 15.9649 28.6596 15.0617C 28.3893 14.7442 28.1097 14.4159 27.8404 14.09C 27.8404 14.09 27.8403 14.0899 27.8404 14.09C 27.4781 13.6519 27.3006 13.3408 27.2821 13.1112C 27.2639 12.8855 27.3883 12.5506 27.6745 12.0556C 28.1024 11.3111 28.5585 10.5653 28.9998 9.84414C 29.3919 9.20307 29.7974 8.54013 30.1861 7.87343L 30.2733 7.72374C 31.0316 6.42264 31.8156 5.07725 32.2357 3.43773C 32.3557 2.96766 32.4803 2.27204 32.1798 1.66138C 31.8791 1.05056 31.3217 0.869523 30.9289 0.786607C 30.7371 0.745854 30.555 0.742484 30.3856 0.742484L 25.467 0.737076C 24.6166 0.719521 24.0267 1.21921 23.7052 2.22267C 23.4479 3.02409 23.144 3.95286 22.7919 4.8339C 22.1184 6.53478 21.2625 8.49382 20.0219 10.126L 19.9668 10.1988C 19.8824 10.3105 19.7444 10.4933 19.6735 10.5352C 19.5391 10.4305 19.384 9.83168 19.3911 9.51796C 19.3913 9.5102 19.3914 9.50252 19.3914 9.49484L 19.387 2.44908C 19.387 2.41327 19.385 2.37745 19.3811 2.34195C 19.2708 1.33677 19.0557 0.329079 17.7725 0.0151256C 17.7313 0.00501579 17.6895 0 17.6476 0L 12.5312 0C 11.5686 0 11.0595 0.546479 10.6513 1.13896C 10.5331 1.31169 10.2192 1.77032 10.3791 2.33098C 10.541 2.8983 11.0232 3.01155 11.1815 3.0487C 11.739 3.17989 12.0274 3.57057 12.1166 4.31744C 12.2931 5.76863 12.3147 7.32108 12.1848 9.20064C 12.1486 9.70527 12.0812 10.0888 11.9724 10.4078C 11.9424 10.4961 11.9159 10.5508 11.8975 10.583C 11.868 10.5683 11.8222 10.5401 11.7587 10.4862C 11.3669 10.1539 11.0716 9.63717 10.7861 9.13763C 9.64552 7.14129 8.68616 4.93641 7.85278 2.39603C 7.50958 1.35503 6.8644 0.773597 6.03728 0.75855C 4.46143 0.726026 3.00398 0.72681 1.58314 0.761058C 0.912984 0.775478 0.443036 1.037 0.186126 1.53849C -0.0711001 2.04093 -0.0616809 2.68153 0.214194 3.44282C 2.18628 8.8794 3.97694 12.8343 6.02008 16.2665C 7.45869 18.6828 8.90684 20.3601 10.5775 21.545C 12.3327 22.79 14.3123 23.4001 16.6088 23.4C 16.8699 23.4 17.1356 23.3921 17.4049 23.3762C 18.8217 23.2962 19.3982 22.5975 19.4611 20.8867C 19.4964 19.9826 19.5775 19.2501 19.8592 18.6137C 19.9379 18.4356 20.0268 18.3162 20.0968 18.2943C 20.1713 18.2713 20.3034 18.3278 20.4502 18.446C 20.7187 18.6622 20.9499 18.9553 21.14 19.2126C 21.3327 19.4741 21.5274 19.7442 21.7158 20.0055C 22.1168 20.5616 22.5314 21.1368 22.9658 21.6854C 23.9484 22.9271 25.0811 23.4966 26.3339 23.3773L 30.8352 23.3799C 30.8351 23.3799 30.8353 23.3799 30.8352 23.3799C 30.8495 23.3799 30.864 23.3793 30.8783 23.3781C 31.3975 23.3353 31.8464 22.9789 32.11 22.4002C 32.4274 21.7034 32.4226 20.8207 32.0969 20.0381C 31.757 19.2246 31.3161 18.5243 30.9283 17.9449ZM 30.9872 21.6142C 30.9251 21.7505 30.8486 21.7754 30.8091 21.7813L 26.3087 21.7787C 26.3089 21.7787 26.3086 21.7787 26.3087 21.7787C 26.2909 21.7787 26.2727 21.7796 26.2551 21.7815C 25.3685 21.873 24.6149 21.4867 23.8861 20.5658C 23.4728 20.0437 23.0683 19.4828 22.6772 18.9403C 22.4866 18.676 22.2896 18.4025 22.0916 18.1339C 21.846 17.8014 21.5425 17.4194 21.1526 17.1054C 20.5687 16.6356 20.0848 16.6498 19.7818 16.7444C 19.482 16.8381 19.0558 17.1053 18.7287 17.8455C 18.3049 18.8031 18.2114 19.8362 18.1733 20.8121C 18.1513 21.409 18.0699 21.5667 18.0359 21.6067C 17.9913 21.6592 17.8424 21.7516 17.3454 21.7797C 14.9574 21.9189 12.9533 21.3887 11.2178 20.1577C 9.70811 19.0869 8.38613 17.5487 7.05765 15.3174C 5.07108 11.9804 3.32316 8.11615 1.39033 2.78772C 1.32029 2.5947 1.29867 2.47424 1.29241 2.40974C 1.34172 2.38968 1.43806 2.36327 1.60697 2.35943C 3.0134 2.32565 4.45561 2.32471 6.01724 2.357C 6.23103 2.36092 6.47448 2.44046 6.65882 2.99964C 7.52956 5.65397 8.53539 7.96395 9.73396 10.0618C 10.0522 10.6186 10.4483 11.3117 11.0305 11.8055C 11.5637 12.2582 11.9964 12.2366 12.2656 12.1388C 12.5349 12.0409 12.9086 11.7689 13.1603 11.03C 13.3227 10.5538 13.4209 10.0175 13.4695 9.3399C 13.6084 7.32946 13.5838 5.65797 13.3921 4.08139C 13.257 2.95183 12.7865 2.13584 12.0455 1.71914C 12.1771 1.63419 12.3254 1.59876 12.5313 1.59876L 17.5808 1.59876C 17.8649 1.67776 17.9212 1.77055 17.9405 1.80229C 18.0223 1.93717 18.0691 2.25621 18.0976 2.50551L 18.1019 9.4863C 18.0906 10.1555 18.3529 11.6397 19.2461 12.0467C 19.2535 12.05 19.2609 12.0532 19.2683 12.0562C 20.0815 12.3856 20.6194 11.6739 20.9082 11.2916L 20.9596 11.2237C 22.3185 9.43567 23.2336 7.34647 23.9485 5.5412C 24.3211 4.60898 24.6366 3.64471 24.9035 2.81351C 25.037 2.39665 25.1585 2.328 25.4484 2.3356C 25.4524 2.33576 25.4563 2.33576 25.4603 2.33576L 30.3852 2.34117C 30.4997 2.34117 30.6193 2.34281 30.712 2.36248C 30.9467 2.41201 31.0433 2.47236 31.0752 2.49736C 31.0785 2.54368 31.0777 2.67691 31.0068 2.95497C 30.6496 4.3491 29.9592 5.5336 29.2283 6.78769L 29.141 6.93761C 28.7613 7.58903 28.3603 8.24444 27.9726 8.87838C 27.5257 9.60887 27.0637 10.3641 26.6257 11.1264C 25.6892 12.7462 25.7715 13.8211 26.9402 15.2343C 27.2164 15.5686 27.4994 15.901 27.7733 16.2225C 28.5497 17.1342 29.283 17.9952 29.9375 18.9675C 30.2801 19.4796 30.6685 20.0946 30.9516 20.7723C 31.0993 21.1271 31.0631 21.4476 30.9872 21.6142Z"/>
<path id="path1_fill" d="M 4.702 4.93169C 4.60731 4.6994 4.51343 4.46648 4.42044 4.23309C 4.26265 3.8374 3.87627 3.67486 3.55684 3.87047C 3.2376 4.06601 3.10662 4.54532 3.26434 4.9411C 3.3591 5.17887 3.45475 5.41618 3.55115 5.65278C 3.66463 5.93115 3.89164 6.09166 4.12705 6.09166C 4.22479 6.09166 4.3241 6.06399 4.41734 6.0056C 4.73525 5.80639 4.86263 5.32566 4.702 4.93169Z"/>
<path id="path2_fill" d="M 8.74604 13.2241C 7.68882 11.4483 6.69974 9.51948 5.72242 7.32753C 5.55015 6.94116 5.15784 6.80119 4.84624 7.01467C 4.53465 7.22823 4.42162 7.7146 4.59388 8.10089C 5.59877 10.3545 6.61762 12.3409 7.7086 14.1734C 7.83504 14.3858 8.03018 14.4981 8.22786 14.4981C 8.36087 14.4981 8.49501 14.4473 8.61019 14.3418C 8.89662 14.0797 8.95744 13.5793 8.74604 13.2241Z"/>
</svg>